{
.appVersion = "3112";
customParameters = (
{
name = localizedDesigner;
value = "French;Ange Degheest & Oriane Charvieux";
},
{
name = license;
value = "SIL OFL";
},
{
name = licenseURL;
value = "https://scripts.sil.org/cms/scripts/page.php?item_id=OFL_web";
},
{
name = vendorID;
value = VTF;
}
);
date = "2021-04-30 16:08:52 +0000";
designerURL = orianecharvieux.fr;
familyName = FT88;
featurePrefixes = (
{
automatic = 1;
code = "languagesystem DFLT dflt;\012\012languagesystem latn dflt;\012";
name = Languagesystems;
}
);
features = (
{
automatic = 1;
code = "feature frac;\012feature ordn;\012feature ss01;\012";
name = aalt;
},
{
automatic = 1;
code = "lookup ccmp_latn_1 {\012	sub fi by f i;\012	sub fl by f l;\012} ccmp_latn_1;\012\012script latn;\012lookup ccmp_latn_1;\012";
name = ccmp;
},
{
automatic = 1;
code = "sub one slash eight by oneeighth;\012sub one slash four by onequarter;\012sub three slash eight by threeeighths;\012sub one slash two by onehalf;\012sub five slash eight by fiveeighths;\012sub three slash four by threequarters;\012sub seven slash eight by seveneighths;\012sub one slash three by onethird;\012sub two slash three by twothirds;\012";
name = frac;
},
{
automatic = 1;
code = "sub [zero one two three four five six seven eight nine] [O o]' by ordmasculine;\012";
name = ordn;
},
{
automatic = 1;
code = "lookupflag IgnoreMarks;\012sub f i by fi;\012sub f l by fl;\012";
name = liga;
},
{
automatic = 1;

glyphs = (
{
glyphname = A;
lastChange = "2021-04-30 16:08:47 +0000";
layers = (
{
associatedMasterId = "AA73B291-862F-432F-B5A8-6883F1AD5643";
layerId = "71803AA8-9C84-4B24-AAA0-4CE8AE5B2104";
name = img;
width = 700;
},
{
associatedMasterId = "AA73B291-862F-432F-B5A8-6883F1AD5643";
layerId = "6AD711BC-4DE6-43D5-8846-39C02C009028";
name = public.background;
paths = (
{
closed = 1;
nodes = (
"500 0 LINE",
"500 300 LINE",
"200 300 LINE",
"200 600 LINE",
"100 600 LINE",
"100 300 LINE",
"0 300 LINE",
"0 0 LINE",
"100 0 LINE",
"100 200 LINE",
"400 200 LINE",
"400 0 LINE"
);
},
{
closed = 1;
nodes = (
"500 600 LINE",
"500 700 LINE",
"200 700 LINE",
"200 600 LINE",
"500 600 LINE",
"500 300 LINE",
"600 300 LINE",
"600 600 LINE"
);
}
);
width = 700;
},
{
guideLines = (
{
angle = 90;
position = "{700, 0}";
}
);
layerId = "AA73B291-862F-432F-B5A8-6883F1AD5643";
paths = (
{
closed = 1;
nodes = (
"500 0 LINE",
"500 200 LINE",
"600 200 LINE",
"600 400 LINE",
"500 400 LINE",
"500 300 LINE",
"200 300 LINE",
"200 400 LINE",
"100 400 LINE",
"100 200 LINE",
"400 200 LINE",
"400 0 LINE"
);
},
{
closed = 1;
nodes = (
"600 600 LINE",
"600 700 LINE",
"300 700 LINE",
"300 600 LINE"
);
},
{
closed = 1;
nodes = (
"0 200 LINE",
"0 0 LINE",
"100 0 LINE",
"100 200 LINE"
);
},
{
closed = 1;
nodes = (
"600 400 LINE",
"700 400 LINE",
"700 600 LINE",
"600 600 LINE"
);
},
{
closed = 1;
nodes = (
"200 400 LINE",
"300 400 LINE",
"300 600 LINE",
"200 600 LINE"
);
}
);
width = 700;
}
);
unicode = 0041;
},
{
glyphname = Aacute;
lastChange = "2021-04-30 16:08:47 +0000";
layers = (
{
associatedMasterId = "AA73B291-862F-432F-B5A8-6883F1AD5643";
layerId = "71803AA8-9C84-4B24-AAA0-4CE8AE5B2104";
name = img;
width = 700;
},
{
components = (
{
alignment = -1;
name = acute;
transform = "{1, 0, 0, 1, 200, 100}";
}
);
layerId = "AA73B291-862F-432F-B5A8-6883F1AD5643";
paths = (
{
closed = 1;
nodes = (
"100 100 LINE",
"400 100 LINE",
"400 0 LINE",
"500 0 LINE",
"500 200 LINE",
"200 200 LINE",
"200 400 LINE",
"100 400 LINE",
"100 200 LINE",
"0 200 LINE",
"0 0 LINE",
"100 0 LINE"
);
},
{
closed = 1;
nodes = (
"600 400 LINE",
"500 400 LINE",
"500 500 LINE",
"200 500 LINE",
"200 400 LINE",
"500 400 LINE",
"500 200 LINE",
"600 200 LINE"
);
}
);
width = 700;
}
);
unicode = 00C1;
},
{
glyphname = Acircumflex;
lastChange = "2021-04-30 16:08:47 +0000";
layers = (
{
associatedMasterId = "AA73B291-862F-432F-B5A8-6883F1AD5643";
layerId = "71803AA8-9C84-4B24-AAA0-4CE8AE5B2104";
name = img;
width = 700;
},
{
components = (
{
alignment = -1;
name = circumflex;
transform = "{1, 0, 0, 1, 98, 100}";
}
);
layerId = "AA73B291-862F-432F-B5A8-6883F1AD5643";
paths = (
{
closed = 1;
nodes = (
"100 100 LINE",
"400 100 LINE",
"400 0 LINE",
"500 0 LINE",
"500 200 LINE",
"200 200 LINE",
"200 400 LINE",
"100 400 LINE",
"100 200 LINE",
"0 200 LINE",
"0 0 LINE",
"100 0 LINE"
);
},
{
closed = 1;
nodes = (
"600 400 LINE",
"500 400 LINE",
"500 500 LINE",
"200 500 LINE",
"200 400 LINE",
"500 400 LINE",
"500 200 LINE",
"600 200 LINE"
);
}
);
width = 700;
}
);
unicode = 00C2;
},
{
glyphname = Adieresis;
lastChange = "2021-04-30 16:08:47 +0000";
layers = (
{
associatedMasterId = "AA73B291-862F-432F-B5A8-6883F1AD5643";
layerId = "71803AA8-9C84-4B24-AAA0-4CE8AE5B2104";
name = img;
width = 700;
},
{
associatedMasterId = "AA73B291-862F-432F-B5A8-6883F1AD5643";
layerId = "6AD711BC-4DE6-43D5-8846-39C02C009028";
name = public.background;
paths = (
{
closed = 1;
nodes = (
"100 100 LINE",
"400 100 LINE",
"400 0 LINE",
"500 0 LINE",
"500 200 LINE",
"200 200 LINE",
"200 500 LINE",
"100 500 LINE",
"100 200 LINE",
"0 200 LINE",
"0 0 LINE",
"100 0 LINE"
);
},
{
closed = 1;
nodes = (
"600 500 LINE",
"500 500 LINE",
"500 600 LINE",
"200 600 LINE",
"200 500 LINE",
"500 500 LINE",
"500 200 LINE",
"600 200 LINE"
);
},
{
closed = 1;
nodes = (
"300 700 LINE",
"400 700 LINE",
"400 800 LINE",
"300 800 LINE"
);
},
{
closed = 1;
nodes = (
"500 700 LINE",
"600 700 LINE",
"600 800 LINE",
"500 800 LINE"
);
}
);
width = 700;
},
{
layerId = "AA73B291-862F-432F-B5A8-6883F1AD5643";
paths = (
{
closed = 1;
nodes = (
"100 100 LINE",
"400 100 LINE",
"400 0 LINE",
"500 0 LINE",
"500 200 LINE",
"200 200 LINE",
"200 400 LINE",
"100 400 LINE",
"100 200 LINE",
"0 200 LINE",
"0 0 LINE",
"100 0 LINE"
);
},
{
closed = 1;
nodes = (
"600 400 LINE",
"500 400 LINE",
"500 500 LINE",
"200 500 LINE",
"200 400 LINE",
"500 400 LINE",
"500 200 LINE",
"600 200 LINE"
);
},
{
closed = 1;
nodes = (
"300 600 LINE",
"400 600 LINE",
"400 700 LINE",
"300 700 LINE"
);
},
{
closed = 1;
nodes = (
"500 600 LINE",
"600 600 LINE",
"600 700 LINE",
"500 700 LINE"
);
}
);
width = 700;
}
);
unicode = 00C4;
},
{
glyphname = Agrave;
lastChange = "2021-04-30 16:08:47 +0000";
layers = (
{
associatedMasterId = "AA73B291-862F-432F-B5A8-6883F1AD5643";
layerId = "71803AA8-9C84-4B24-AAA0-4CE8AE5B2104";
name = img;
width = 700;
},
{
associatedMasterId = "AA73B291-862F-432F-B5A8-6883F1AD5643";
layerId = "6AD711BC-4DE6-43D5-8846-39C02C009028";
name = public.background;
width = 700;
},
{
layerId = "AA73B291-862F-432F-B5A8-6883F1AD5643";
paths = (
{
closed = 1;
nodes = (
"100 100 LINE",
"400 100 LINE",
"400 0 LINE",
"500 0 LINE",
"500 200 LINE",
"200 200 LINE",
"200 400 LINE",
"100 400 LINE",
"100 200 LINE",
"0 200 LINE",
"0 0 LINE",
"100 0 LINE"
);
},
{
closed = 1;
nodes = (
"600 400 LINE",
"500 400 LINE",
"500 500 LINE",
"200 500 LINE",
"200 400 LINE",
"500 400 LINE",
"500 200 LINE",
"600 200 LINE"
);
},
{
closed = 1;
nodes = (
"400 600 LINE",
"500 600 LINE",
"500 700 LINE",
"400 700 LINE",
"400 800 LINE",
"300 800 LINE",
"300 700 LINE",
"400 700 LINE"
);
}
);
width = 700;
}
);
unicode = 00C0;
},
{
glyphname = Aring;
lastChange = "2021-04-30 16:08:47 +0000";
layers = (
{
associatedMasterId = "AA73B291-862F-432F-B5A8-6883F1AD5643";
layerId = "71803AA8-9C84-4B24-AAA0-4CE8AE5B2104";
name = img;
width = 700;
},
{
layerId = "AA73B291-862F-432F-B5A8-6883F1AD5643";
paths = (
{
closed = 1;
nodes = (
"100 100 LINE",
"400 100 LINE",
"400 0 LINE",
"500 0 LINE",
"500 200 LINE",
"200 200 LINE",
"200 400 LINE",
"100 400 LINE",
"100 200 LINE",
"0 200 LINE",
"0 0 LINE",
"100 0 LINE"
);
},
{
closed = 1;
nodes = (
"600 400 LINE",
"500 400 LINE",
"500 500 LINE",
"200 500 LINE",
"200 400 LINE",
"500 400 LINE",
"500 200 LINE",
"600 200 LINE"
);
},
{
closed = 1;
nodes = (
"400 500 LINE",
"500 500 LINE",
"500 600 LINE",
"400 600 LINE",
"400 700 LINE",
"300 700 LINE",
"300 600 LINE",
"400 600 LINE"
);
},
{
closed = 1;
nodes = (
"500 600 LINE",
"600 600 LINE",
"600 700 LINE",
"500 700 LINE",
"500 800 LINE",
"400 800 LINE",
"400 700 LINE",
"500 700 LINE"
);
}
);
width = 700;
}
);
unicode = 00C5;
},
{
glyphname = Atilde;
lastChange = "2021-04-30 16:08:47 +0000";
layers = (
{
associatedMasterId = "AA73B291-862F-432F-B5A8-6883F1AD5643";
layerId = "71803AA8-9C84-4B24-AAA0-4CE8AE5B2104";
name = img;
width = 700;
},
{
layerId = "AA73B291-862F-432F-B5A8-6883F1AD5643";
paths = (
{
closed = 1;
nodes = (
"500 600 LINE",
"600 600 LINE",
"600 700 LINE",
"500 700 LINE",
"500 800 LINE",
"400 800 LINE",
"400 700 LINE",
"500 700 LINE"
);
},
{
closed = 1;
nodes = (
"300 600 LINE",
"400 600 LINE",
"400 700 LINE",
"300 700 LINE"
);
},
{
closed = 1;
nodes = (
"600 700 LINE",
"700 700 LINE",
"700 800 LINE",
"600 800 LINE"
);
},
{
closed = 1;
nodes = (
"100 100 LINE",
"400 100 LINE",
"400 0 LINE",
"500 0 LINE",
"500 200 LINE",
"200 200 LINE",
"200 400 LINE",
"100 400 LINE",
"100 200 LINE",
"0 200 LINE",
"0 0 LINE",
"100 0 LINE"
);
},
{
closed = 1;
nodes = (
"600 400 LINE",
"500 400 LINE",
"500 500 LINE",
"200 500 LINE",
"200 400 LINE",
"500 400 LINE",
"500 200 LINE",
"600 200 LINE"
);
}
);
width = 700;
}
);
unicode = 00C3;
},
{
glyphname = AE;
lastChange = "2021-04-30 16:08:47 +0000";
layers = (
{
associatedMasterId = "AA73B291-862F-432F-B5A8-6883F1AD5643";
layerId = "71803AA8-9C84-4B24-AAA0-4CE8AE5B2104";
name = img;
width = 700;
},
{
layerId = "AA73B291-862F-432F-B5A8-6883F1AD5643";
paths = (
{
closed = 1;
nodes = (
"300 700 LINE",
"300 600 LINE",
"400 600 LINE",
"400 300 LINE",
"600 300 LINE",
"600 400 LINE",
"500 400 LINE",
"500 600 LINE",
"700 600 LINE",
"700 700 LINE"
);
},
{
closed = 1;
nodes = (
"200 400 LINE",
"100 400 LINE",
"100 200 LINE",
"300 200 LINE",
"300 0 LINE",
"600 0 LINE",
"600 100 LINE",
"400 100 LINE",
"400 300 LINE",
"200 300 LINE"
);
},
{
closed = 1;
nodes = (
"200 400 LINE",
"300 400 LINE",
"300 600 LINE",
"200 600 LINE"
);
},
{
closed = 1;
nodes = (
"0 0 LINE",
"100 0 LINE",
"100 200 LINE",
"0 200 LINE"
);
}
);
width = 700;
}
);
unicode = 00C6;
},
{
glyphname = B;
lastChange = "2021-04-30 16:08:47 +0000";
layers = (
{
associatedMasterId = "AA73B291-862F-432F-B5A8-6883F1AD5643";
layerId = "71803AA8-9C84-4B24-AAA0-4CE8AE5B2104";
name = img;
width = 700;
},
{
associatedMasterId = "AA73B291-862F-432F-B5A8-6883F1AD5643";
layerId = "6AD711BC-4DE6-43D5-8846-39C02C009028";
name = public.background;
paths = (
{
closed = 1;
nodes = (
"0 300 LINE",
"0 0 LINE",
"400 0 LINE",
"400 100 LINE",
"100 100 LINE",
"100 300 LINE",
"400 300 LINE",
"400 100 LINE",
"500 100 LINE",
"500 400 LINE",
"200 400 LINE",
"200 600 LINE",
"500 600 LINE",
"500 400 LINE",
"600 400 LINE",
"600 600 LINE",
"500 600 LINE",
"500 700 LINE",
"100 700 LINE",
"100 400 LINE",
"0 400 LINE"
);
}
);
width = 700;
},
{
guideLines = (
{
angle = 90;
position = "{700, 0}";
}
);
layerId = "AA73B291-862F-432F-B5A8-6883F1AD5643";
paths = (
{
closed = 1;
nodes = (
"300 500 LINE",
"300 600 LINE",
"600 600 LINE",
"600 500 LINE",
"700 500 LINE",
"700 600 LINE",
"600 600 LINE",
"600 700 LINE",
"200 700 LINE",
"200 500 LINE"
);
},
{
closed = 1;
nodes = (
"500 300 LINE",
"500 400 LINE",
"200 400 LINE",
"200 500 LINE",
"100 500 LINE",
"100 200 LINE",
"200 200 LINE",
"200 300 LINE"
);
},
{
closed = 1;
nodes = (
"100 100 LINE",
"100 200 LINE",
"0 200 LINE",
"0 0 LINE",
"400 0 LINE",
"400 100 LINE"
);
},
{
closed = 1;
nodes = (
"500 300 LINE",
"500 200 LINE",
"600 200 LINE",
"600 300 LINE"
);
},
{
closed = 1;
nodes = (
"400 100 LINE",
"500 100 LINE",
"500 200 LINE",
"400 200 LINE"
);
},
{
closed = 1;
nodes = (
"600 400 LINE",
"600 500 LINE",
"500 500 LINE",
"500 400 LINE"
);
}
);
width = 700;
}
);
unicode = 0042;
},
{
glyphname = C;
lastChange = "2021-04-30 16:08:47 +0000";
layers = (
{
associatedMasterId = "AA73B291-862F-432F-B5A8-6883F1AD5643";
layerId = "71803AA8-9C84-4B24-AAA0-4CE8AE5B2104";
name = img;
width = 700;
},
{
associatedMasterId = "AA73B291-862F-432F-B5A8-6883F1AD5643";
layerId = "6AD711BC-4DE6-43D5-8846-39C02C009028";
name = public.background;
paths = (
{
closed = 1;
nodes = (
"0 100 LINE",
"100 100 LINE",
"100 0 LINE",
"400 0 LINE",
"400 100 LINE",
"100 100 LINE",
"100 400 LINE",
"0 400 LINE"
);
},
{
closed = 1;
nodes = (
"500 500 LINE",
"600 500 LINE",
"600 600 LINE",
"500 600 LINE",
"500 700 LINE",
"200 700 LINE",
"200 600 LINE",
"500 600 LINE"
);
},
{
closed = 1;
nodes = (
"100 400 LINE",
"200 400 LINE",
"200 600 LINE",
"100 600 LINE"
);
},
{
closed = 1;
nodes = (
"400 100 LINE",
"500 100 LINE",
"500 200 LINE",
"400 200 LINE"
);
}
);
width = 700;
},
{
guideLines = (
{
angle = 90;
position = "{700, 0}";
}
);
layerId = "AA73B291-862F-432F-B5A8-6883F1AD5643";
paths = (
{
closed = 1;
nodes = (
"100 300 LINE",
"0 300 LINE",
"0 100 LINE",
"100 100 LINE",
"100 0 LINE",
"400 0 LINE",
"400 100 LINE",
"100 100 LINE"
);
},
{
closed = 1;
nodes = (
"300 600 LINE",
"600 600 LINE",
"600 500 LINE",
"700 500 LINE",
"700 600 LINE",
"600 600 LINE",
"600 700 LINE",
"300 700 LINE"
);
},
{
closed = 1;
nodes = (
"100 300 LINE",
"200 300 LINE",
"200 500 LINE",
"100 500 LINE"
);
},
{
closed = 1;
nodes = (
"400 100 LINE",
"500 100 LINE",
"500 200 LINE",
"400 200 LINE"
);
},
{
closed = 1;
nodes = (
"200 500 LINE",
"300 500 LINE",
"300 600 LINE",
"200 600 LINE"
);
}
);
width = 700;
}
);
unicode = 0043;
},
{
glyphname = Ccedilla;
lastChange = "2021-04-30 16:08:47 +0000";
layers = (
{
associatedMasterId = "AA73B291-862F-432F-B5A8-6883F1AD5643";
layerId = "71803AA8-9C84-4B24-AAA0-4CE8AE5B2104";
name = img;
width = 700;
},
{
components = (
{
alignment = -1;
name = C;
}
);
layerId = "AA73B291-862F-432F-B5A8-6883F1AD5643";
paths = (
{
closed = 1;
nodes = (
"100 -100 LINE",
"200 -100 LINE",
"200 0 LINE",
"100 0 LINE"
);
},
{
closed = 1;
nodes = (
"0 -200 LINE",
"100 -200 LINE",
"100 -100 LINE",
"0 -100 LINE"
);
}
);
width = 700;
}
);
unicode = 00C7;
},
{
glyphname = D;
lastChange = "2021-04-30 16:08:47 +0000";
layers = (
{
associatedMasterId = "AA73B291-862F-432F-B5A8-6883F1AD5643";
layerId = "71803AA8-9C84-4B24-AAA0-4CE8AE5B2104";
name = img;
width = 700;
},
{
associatedMasterId = "AA73B291-862F-432F-B5A8-6883F1AD5643";
layerId = "6AD711BC-4DE6-43D5-8846-39C02C009028";
name = public.background;
paths = (
{
closed = 1;
nodes = (
"500 300 LINE",
"600 300 LINE",
"600 600 LINE",
"500 600 LINE",
"500 700 LINE",
"100 700 LINE",
"100 400 LINE",
"200 400 LINE",
"200 600 LINE",
"500 600 LINE"
);
},
{
closed = 1;
nodes = (
"400 0 LINE",
"400 100 LINE",
"100 100 LINE",
"100 400 LINE",
"0 400 LINE",
"0 0 LINE"
);
},
{
closed = 1;
nodes = (
"500 100 LINE",
"500 300 LINE",
"400 300 LINE",
"400 100 LINE"
);
}
);
width = 700;
},
{
guideLines = (
{
angle = 90;
position = "{800, 0}";
}
);
layerId = "AA73B291-862F-432F-B5A8-6883F1AD5643";
paths = (
{
closed = 1;
nodes = (
"700 400 LINE",
"700 600 LINE",
"600 600 LINE",
"600 700 LINE",
"200 700 LINE",
"200 500 LINE",
"300 500 LINE",
"300 600 LINE",
"600 600 LINE",
"600 400 LINE"
);
},
{
closed = 1;
nodes = (
"100 100 LINE",
"100 200 LINE",
"0 200 LINE",
"0 0 LINE",
"400 0 LINE",
"400 100 LINE"
);
},
{
closed = 1;
nodes = (
"200 500 LINE",
"100 500 LINE",
"100 200 LINE",
"200 200 LINE"
);
},
{
closed = 1;
nodes = (
"600 400 LINE",
"500 400 LINE",
"500 200 LINE",
"600 200 LINE"
);
},
{
closed = 1;
nodes = (
"400 100 LINE",
"500 100 LINE",
"500 200 LINE",
"400 200 LINE"
);
}
);
width = 700;
}
);
unicode = 0044;
},
{
glyphname = E;
lastChange = "2021-04-30 16:08:47 +0000";
layers = (
{
associatedMasterId = "AA73B291-862F-432F-B5A8-6883F1AD5643";
layerId = "71803AA8-9C84-4B24-AAA0-4CE8AE5B2104";
name = img;
width = 700;
},
{
associatedMasterId = "AA73B291-862F-432F-B5A8-6883F1AD5643";
layerId = "6AD711BC-4DE6-43D5-8846-39C02C009028";
name = public.background;
paths = (
{
closed = 1;
nodes = (
"0 0 LINE",
"500 0 LINE",
"500 100 LINE",
"100 100 LINE",
"100 300 LINE",
"400 300 LINE",
"400 400 LINE",
"200 400 LINE",
"200 600 LINE",
"600 600 LINE",
"600 700 LINE",
"100 700 LINE",
"100 400 LINE",
"0 400 LINE"
);
}
);
width = 700;
},
{
guideLines = (
{
angle = 90;
position = "{800, 0}";
}
);
layerId = "AA73B291-862F-432F-B5A8-6883F1AD5643";
paths = (
{
closed = 1;
nodes = (
"700 600 LINE",
"700 700 LINE",
"200 700 LINE",
"200 500 LINE",
"300 500 LINE",
"300 600 LINE"
);
},
{
closed = 1;
nodes = (
"100 100 LINE",
"100 200 LINE",
"0 200 LINE",
"0 0 LINE",
"500 0 LINE",
"500 100 LINE"
);
},
{
closed = 1;
nodes = (
"200 300 LINE",
"500 300 LINE",
"500 400 LINE",
"200 400 LINE",
"200 500 LINE",
"100 500 LINE",
"100 200 LINE",
"200 200 LINE"
);
}
);
width = 700;
}
);
unicode = 0045;
},
{
glyphname = Eacute;
lastChange = "2021-04-30 16:08:47 +0000";
layers = (
{
associatedMasterId = "AA73B291-862F-432F-B5A8-6883F1AD5643";
layerId = "71803AA8-9C84-4B24-AAA0-4CE8AE5B2104";
name = img;
width = 700;
},
{
components = (
{
alignment = -1;
name = acute;
transform = "{1, 0, 0, 1, 100, 100}";
}
);
layerId = "AA73B291-862F-432F-B5A8-6883F1AD5643";
paths = (
{
closed = 1;
nodes = (
"100 200 LINE",
"400 200 LINE",
"400 300 LINE",
"200 300 LINE",
"200 400 LINE",
"600 400 LINE",
"600 500 LINE",
"100 500 LINE"
);
},
{
closed = 1;
nodes = (
"100 100 LINE",
"100 200 LINE",
"0 200 LINE",
"0 0 LINE",
"500 0 LINE",
"500 100 LINE"
);
}
);
width = 700;
}
);
unicode = 00C9;
},
{
glyphname = Ecaron;
lastChange = "2021-04-30 16:08:47 +0000";
layers = (
{
associatedMasterId = "AA73B291-862F-432F-B5A8-6883F1AD5643";
layerId = "71803AA8-9C84-4B24-AAA0-4CE8AE5B2104";
name = img;
width = 700;
},
{
components = (
{
alignment = -1;
name = caron;
transform = "{1, 0, 0, 1, 100, 100}";
}
);
layerId = "AA73B291-862F-432F-B5A8-6883F1AD5643";
paths = (
{
closed = 1;
nodes = (
"100 200 LINE",
"400 200 LINE",
"400 300 LINE",
"200 300 LINE",
"200 400 LINE",
"600 400 LINE",
"600 500 LINE",
"100 500 LINE"
);
},
{
closed = 1;
nodes = (
"100 100 LINE",
"100 200 LINE",
"0 200 LINE",
"0 0 LINE",
"500 0 LINE",
"500 100 LINE"
);
}
);
width = 700;
}
);
unicode = 011A;
},
{
glyphname = Ecircumflex;
lastChange = "2021-04-30 16:08:47 +0000";
layers = (
{
associatedMasterId = "AA73B291-862F-432F-B5A8-6883F1AD5643";
layerId = "71803AA8-9C84-4B24-AAA0-4CE8AE5B2104";
name = img;
width = 700;
},
{
components = (
{
alignment = -1;
name = circumflex;
transform = "{1, 0, 0, 1, -2, 100}";
}
);
layerId = "AA73B291-862F-432F-B5A8-6883F1AD5643";
paths = (
{
closed = 1;
nodes = (
"100 200 LINE",
"400 200 LINE",
"400 300 LINE",
"200 300 LINE",
"200 400 LINE",
"600 400 LINE",
"600 500 LINE",
"100 500 LINE"
);
},
{
closed = 1;
nodes = (
"100 100 LINE",
"100 200 LINE",
"0 200 LINE",
"0 0 LINE",
"500 0 LINE",
"500 100 LINE"
);
}
);
width = 700;
}
);
unicode = 00CA;
},
{
glyphname = Edieresis;
lastChange = "2021-04-30 16:08:47 +0000";
layers = (
{
associatedMasterId = "AA73B291-862F-432F-B5A8-6883F1AD5643";
layerId = "71803AA8-9C84-4B24-AAA0-4CE8AE5B2104";
name = img;
width = 700;
},
{
components = (
{
alignment = -1;
name = dieresis;
}
);
layerId = "AA73B291-862F-432F-B5A8-6883F1AD5643";
paths = (
{
closed = 1;
nodes = (
"100 200 LINE",
"400 200 LINE",
"400 300 LINE",
"200 300 LINE",
"200 400 LINE",
"600 400 LINE",
"600 500 LINE",
"100 500 LINE"
);
},
{
closed = 1;
nodes = (
"100 100 LINE",
"100 200 LINE",
"0 200 LINE",
"0 0 LINE",
"500 0 LINE",
"500 100 LINE"
);
}
);
width = 700;
}
);
unicode = 00CB;
},
{
glyphname = Egrave;
lastChange = "2021-04-30 16:08:47 +0000";
layers = (
{
associatedMasterId = "AA73B291-862F-432F-B5A8-6883F1AD5643";
layerId = "71803AA8-9C84-4B24-AAA0-4CE8AE5B2104";
name = img;
width = 700;
},
{
components = (
{
alignment = -1;
name = grave;
transform = "{1, 0, 0, 1, 100, 100}";
}
);
layerId = "AA73B291-862F-432F-B5A8-6883F1AD5643";
paths = (
{
closed = 1;
nodes = (
"100 200 LINE",
"400 200 LINE",
"400 300 LINE",
"200 300 LINE",
"200 400 LINE",
"600 400 LINE",
"600 500 LINE",
"100 500 LINE"
);
},
{
closed = 1;
nodes = (
"100 100 LINE",
"100 200 LINE",
"0 200 LINE",
"0 0 LINE",
"500 0 LINE",
"500 100 LINE"
);
}
);
width = 700;
}
);
unicode = 00C8;
},
{
glyphname = F;
lastChange = "2021-04-30 16:08:47 +0000";
layers = (
{
associatedMasterId = "AA73B291-862F-432F-B5A8-6883F1AD5643";
layerId = "71803AA8-9C84-4B24-AAA0-4CE8AE5B2104";
name = img;
width = 700;
},
{
associatedMasterId = "AA73B291-862F-432F-B5A8-6883F1AD5643";
layerId = "6AD711BC-4DE6-43D5-8846-39C02C009028";
name = public.background;
paths = (
{
closed = 1;
nodes = (
"0 0 LINE",
"100 0 LINE",
"100 300 LINE",
"400 300 LINE",
"400 400 LINE",
"200 400 LINE",
"200 600 LINE",
"600 600 LINE",
"600 700 LINE",
"100 700 LINE",
"100 400 LINE",
"0 400 LINE"
);
}
);
width = 700;
},
{
guideLines = (
{
angle = 90;
position = "{800, 0}";
}
);
layerId = "AA73B291-862F-432F-B5A8-6883F1AD5643";
paths = (
{
closed = 1;
nodes = (
"300 600 LINE",
"700 600 LINE",
"700 700 LINE",
"200 700 LINE",
"200 500 LINE",
"300 500 LINE"
);
},
{
closed = 1;
nodes = (
"200 300 LINE",
"500 300 LINE",
"500 400 LINE",
"200 400 LINE",
"200 500 LINE",
"100 500 LINE",
"100 200 LINE",
"200 200 LINE"
);
},
{
closed = 1;
nodes = (
"0 0 LINE",
"100 0 LINE",
"100 200 LINE",
"0 200 LINE"
);
}
);
width = 700;
}
);
unicode = 0046;
},
{
glyphname = G;
lastChange = "2021-04-30 16:08:47 +0000";
layers = (
{
associatedMasterId = "AA73B291-862F-432F-B5A8-6883F1AD5643";
layerId = "71803AA8-9C84-4B24-AAA0-4CE8AE5B2104";
name = img;
width = 700;
},
{
associatedMasterId = "AA73B291-862F-432F-B5A8-6883F1AD5643";
layerId = "6AD711BC-4DE6-43D5-8846-39C02C009028";
name = public.background;
paths = (
{
closed = 1;
nodes = (
"400 0 LINE",
"400 100 LINE",
"100 100 LINE",
"100 300 LINE",
"0 300 LINE",
"0 100 LINE",
"100 100 LINE",
"100 0 LINE"
);
},
{
closed = 1;
nodes = (
"300 600 LINE",
"600 600 LINE",
"600 500 LINE",
"700 500 LINE",
"700 600 LINE",
"600 600 LINE",
"600 700 LINE",
"300 700 LINE"
);
},
{
closed = 1;
nodes = (
"300 200 LINE",
"400 200 LINE",
"400 100 LINE",
"500 100 LINE",
"500 300 LINE",
"300 300 LINE"
);
},
{
closed = 1;
nodes = (
"100 300 LINE",
"200 300 LINE",
"200 500 LINE",
"100 500 LINE"
);
},
{
closed = 1;
nodes = (
"200 500 LINE",
"300 500 LINE",
"300 600 LINE",
"200 600 LINE"
);
}
);
width = 700;
},
{
guideLines = (
{
angle = 90;
position = "{800, 0}";
}
);
layerId = "AA73B291-862F-432F-B5A8-6883F1AD5643";
paths = (
{
closed = 1;
nodes = (
"100 300 LINE",
"0 300 LINE",
"0 100 LINE",
"100 100 LINE",
"100 0 LINE",
"400 0 LINE",
"400 100 LINE",
"100 100 LINE"
);
},
{
closed = 1;
nodes = (
"300 600 LINE",
"600 600 LINE",
"600 500 LINE",
"700 500 LINE",
"700 600 LINE",
"600 600 LINE",
"600 700 LINE",
"300 700 LINE"
);
},
{
closed = 1;
nodes = (
"500 200 LINE",
"600 200 LINE",
"600 300 LINE",
"500 300 LINE",
"300 300 LINE",
"300 200 LINE",
"400 200 LINE",
"400 100 LINE",
"500 100 LINE"
);
},
{
closed = 1;
nodes = (
"100 300 LINE",
"200 300 LINE",
"200 500 LINE",
"100 500 LINE"
);
},
{
closed = 1;
nodes = (
"200 500 LINE",
"300 500 LINE",
"300 600 LINE",
"200 600 LINE"
);
}
);
width = 700;
}
);
unicode = 0047;
},
{
glyphname = H;
lastChange = "2021-04-30 16:08:47 +0000";
layers = (
{
associatedMasterId = "AA73B291-862F-432F-B5A8-6883F1AD5643";
layerId = "71803AA8-9C84-4B24-AAA0-4CE8AE5B2104";
name = img;
width = 700;
},
{
associatedMasterId = "AA73B291-862F-432F-B5A8-6883F1AD5643";
layerId = "6AD711BC-4DE6-43D5-8846-39C02C009028";
name = public.background;
paths = (
{
closed = 1;
nodes = (
"100 300 LINE",
"400 300 LINE",
"400 0 LINE",
"500 0 LINE",
"500 400 LINE",
"200 400 LINE",
"200 700 LINE",
"100 700 LINE"
);
},
{
closed = 1;
nodes = (
"600 700 LINE",
"500 700 LINE",
"500 400 LINE",
"600 400 LINE"
);
},
{
closed = 1;
nodes = (
"100 300 LINE",
"0 300 LINE",
"0 0 LINE",
"100 0 LINE"
);
}
);
width = 700;
},
{
guideLines = (
{
angle = 90;
position = "{800, 0}";
}
);
layerId = "AA73B291-862F-432F-B5A8-6883F1AD5643";
paths = (
{
closed = 1;
nodes = (
"500 300 LINE",
"500 200 LINE",
"600 200 LINE",
"600 500 LINE",
"500 500 LINE",
"500 400 LINE",
"200 400 LINE",
"200 500 LINE",
"100 500 LINE",
"100 200 LINE",
"200 200 LINE",
"200 300 LINE"
);
},
{
closed = 1;
nodes = (
"100 200 LINE",
"0 200 LINE",
"0 0 LINE",
"100 0 LINE"
);
},
{
closed = 1;
nodes = (
"600 500 LINE",
"700 500 LINE",
"700 700 LINE",
"600 700 LINE"
);
},
{
closed = 1;
nodes = (
"400 0 LINE",
"500 0 LINE",
"500 200 LINE",
"400 200 LINE"
);
},
{
closed = 1;
nodes = (
"300 500 LINE",
"300 700 LINE",
"200 700 LINE",
"200 500 LINE"
);
}
);
width = 700;
}
);
unicode = 0048;
},
{
glyphname = I;
lastChange = "2021-04-30 16:08:47 +0000";
layers = (
{
associatedMasterId = "AA73B291-862F-432F-B5A8-6883F1AD5643";
layerId = "71803AA8-9C84-4B24-AAA0-4CE8AE5B2104";
name = img;
width = 700;
},
{
associatedMasterId = "AA73B291-862F-432F-B5A8-6883F1AD5643";
layerId = "6AD711BC-4DE6-43D5-8846-39C02C009028";
name = public.background;
paths = (
{
closed = 1;
nodes = (
"100 0 LINE",
"400 0 LINE",
"400 100 LINE",
"300 100 LINE",
"300 400 LINE",
"200 400 LINE",
"200 100 LINE",
"100 100 LINE"
);
},
{
closed = 1;
nodes = (
"200 600 LINE",
"300 600 LINE",
"300 400 LINE",
"400 400 LINE",
"400 600 LINE",
"500 600 LINE",
"500 700 LINE",
"200 700 LINE"
);
}
);
width = 700;
},
{
guideLines = (
{
angle = 90;
position = "{800, 0}";
}
);
layerId = "AA73B291-862F-432F-B5A8-6883F1AD5643";
paths = (
{
closed = 1;
nodes = (
"300 300 LINE",
"200 300 LINE",
"200 100 LINE",
"100 100 LINE",
"100 0 LINE",
"400 0 LINE",
"400 100 LINE",
"300 100 LINE"
);
},
{
closed = 1;
nodes = (
"300 600 LINE",
"400 600 LINE",
"400 500 LINE",
"500 500 LINE",
"500 600 LINE",
"600 600 LINE",
"600 700 LINE",
"300 700 LINE"
);
},
{
closed = 1;
nodes = (
"300 300 LINE",
"400 300 LINE",
"400 500 LINE",
"300 500 LINE"
);
}
);
width = 700;
}
);
unicode = 0049;
},
{
glyphname = Iacute;
lastChange = "2021-04-30 16:08:47 +0000";
layers = (
{
associatedMasterId = "AA73B291-862F-432F-B5A8-6883F1AD5643";
layerId = "71803AA8-9C84-4B24-AAA0-4CE8AE5B2104";
name = img;
width = 700;
},
{
components = (
{
alignment = -1;
name = acute;
transform = "{1, 0, 0, 1, 100, 100}";
}
);
layerId = "AA73B291-862F-432F-B5A8-6883F1AD5643";
paths = (
{
closed = 1;
nodes = (
"300 300 LINE",
"200 300 LINE",
"200 100 LINE",
"100 100 LINE",
"100 0 LINE",
"400 0 LINE",
"400 100 LINE",
"300 100 LINE"
);
},
{
closed = 1;
nodes = (
"200 400 LINE",
"300 400 LINE",
"300 300 LINE",
"400 300 LINE",
"400 400 LINE",
"500 400 LINE",
"500 500 LINE",
"200 500 LINE"
);
}
);
width = 700;
}
);
unicode = 00CD;
},
{
glyphname = Icircumflex;
lastChange = "2021-04-30 16:08:47 +0000";
layers = (
{
associatedMasterId = "AA73B291-862F-432F-B5A8-6883F1AD5643";
layerId = "71803AA8-9C84-4B24-AAA0-4CE8AE5B2104";
name = img;
width = 700;
},
{
components = (
{
alignment = -1;
name = circumflex;
transform = "{1, 0, 0, 1, 98, 100}";
}
);
layerId = "AA73B291-862F-432F-B5A8-6883F1AD5643";
paths = (
{
closed = 1;
nodes = (
"300 300 LINE",
"200 300 LINE",
"200 100 LINE",
"100 100 LINE",
"100 0 LINE",
"400 0 LINE",
"400 100 LINE",
"300 100 LINE"
);
},
{
closed = 1;
nodes = (
"200 400 LINE",
"300 400 LINE",
"300 300 LINE",
"400 300 LINE",
"400 400 LINE",
"500 400 LINE",
"500 500 LINE",
"200 500 LINE"
);
}
);
width = 700;
}
);
unicode = 00CE;
},
{
glyphname = Idieresis;
lastChange = "2021-04-30 16:08:47 +0000";
layers = (
{
associatedMasterId = "AA73B291-862F-432F-B5A8-6883F1AD5643";
layerId = "71803AA8-9C84-4B24-AAA0-4CE8AE5B2104";
name = img;
width = 700;
},
{
components = (
{
alignment = -1;
name = dieresis;
transform = "{1, 0, 0, 1, 100, 0}";
}
);
layerId = "AA73B291-862F-432F-B5A8-6883F1AD5643";
paths = (
{
closed = 1;
nodes = (
"300 300 LINE",
"200 300 LINE",
"200 100 LINE",
"100 100 LINE",
"100 0 LINE",
"400 0 LINE",
"400 100 LINE",
"300 100 LINE"
);
},
{
closed = 1;
nodes = (
"200 400 LINE",
"300 400 LINE",
"300 300 LINE",
"400 300 LINE",
"400 400 LINE",
"500 400 LINE",
"500 500 LINE",
"200 500 LINE"
);
}
);
width = 700;
}
);
unicode = 00CF;
},
{
glyphname = Igrave;
lastChange = "2021-04-30 16:08:47 +0000";
layers = (
{
associatedMasterId = "AA73B291-862F-432F-B5A8-6883F1AD5643";
layerId = "71803AA8-9C84-4B24-AAA0-4CE8AE5B2104";
name = img;
width = 700;
},
{
components = (
{
alignment = -1;
name = grave;
transform = "{1, 0, 0, 1, 100, 100}";
}
);
layerId = "AA73B291-862F-432F-B5A8-6883F1AD5643";
paths = (
{
closed = 1;
nodes = (
"300 300 LINE",
"200 300 LINE",
"200 100 LINE",
"100 100 LINE",
"100 0 LINE",
"400 0 LINE",
"400 100 LINE",
"300 100 LINE"
);
},
{
closed = 1;
nodes = (
"200 400 LINE",
"300 400 LINE",
"300 300 LINE",
"400 300 LINE",
"400 400 LINE",
"500 400 LINE",
"500 500 LINE",
"200 500 LINE"
);
}
);
width = 700;
}
);
unicode = 00CC;
},
{
glyphname = J;
lastChange = "2021-04-30 16:08:47 +0000";
layers = (
{
associatedMasterId = "AA73B291-862F-432F-B5A8-6883F1AD5643";
layerId = "71803AA8-9C84-4B24-AAA0-4CE8AE5B2104";
name = img;
width = 700;
},
{
associatedMasterId = "AA73B291-862F-432F-B5A8-6883F1AD5643";
layerId = "6AD711BC-4DE6-43D5-8846-39C02C009028";
name = public.background;
paths = (
{
closed = 1;
nodes = (
"400 600 LINE",
"500 600 LINE",
"500 401 LINE",
"600 401 LINE",
"600 600 LINE",
"700 600 LINE",
"700 700 LINE",
"400 700 LINE"
);
},
{
closed = 1;
nodes = (
"500 100 LINE",
"500 400 LINE",
"400 400 LINE",
"400 100 LINE"
);
},
{
closed = 1;
nodes = (
"200 0 LINE",
"400 0 LINE",
"400 100 LINE",
"200 100 LINE",
"200 199 LINE",
"100 199 LINE",
"100 100 LINE",
"200 100 LINE"
);
}
);
width = 700;
},
{
guideLines = (
{
angle = 90;
position = "{800, 0}";
}
);
layerId = "AA73B291-862F-432F-B5A8-6883F1AD5643";
paths = (
{
closed = 1;
nodes = (
"400 600 LINE",
"500 600 LINE",
"500 500 LINE",
"600 500 LINE",
"600 600 LINE",
"700 600 LINE",
"700 700 LINE",
"400 700 LINE"
);
},
{
closed = 1;
nodes = (
"100 0 LINE",
"300 0 LINE",
"300 100 LINE",
"100 100 LINE",
"100 200 LINE",
"0 200 LINE",
"0 100 LINE",
"100 100 LINE"
);
},
{
closed = 1;
nodes = (
"400 300 LINE",
"500 300 LINE",
"500 500 LINE",
"400 500 LINE"
);
},
{
closed = 1;
nodes = (
"300 100 LINE",
"400 100 LINE",
"400 300 LINE",
"300 300 LINE"
);
}
);
width = 700;
}
);
unicode = 004A;
},
{
glyphname = K;
lastChange = "2021-04-30 16:08:47 +0000";
layers = (
{
associatedMasterId = "AA73B291-862F-432F-B5A8-6883F1AD5643";
layerId = "71803AA8-9C84-4B24-AAA0-4CE8AE5B2104";
name = img;
width = 700;
},
{
associatedMasterId = "AA73B291-862F-432F-B5A8-6883F1AD5643";
layerId = "6AD711BC-4DE6-43D5-8846-39C02C009028";
name = public.background;
paths = (
{
closed = 1;
nodes = (
"400 200 LINE",
"500 200 LINE",
"500 300 LINE",
"400 300 LINE",
"400 400 LINE",
"200 400 LINE",
"200 500 LINE",
"100 500 LINE",
"100 200 LINE",
"200 200 LINE",
"200 300 LINE",
"400 300 LINE"
);
},
{
closed = 1;
nodes = (
"300 0 LINE",
"400 0 LINE",
"400 200 LINE",
"300 200 LINE"
);
},
{
closed = 1;
nodes = (
"0 0 LINE",
"100 0 LINE",
"100 200 LINE",
"0 200 LINE"
);
},
{
closed = 1;
nodes = (
"200 500 LINE",
"300 500 LINE",
"300 700 LINE",
"200 700 LINE"
);
},
{
closed = 1;
nodes = (
"400 400 LINE",
"500 400 LINE",
"500 500 LINE",
"400 500 LINE"
);
},
{
closed = 1;
nodes = (
"500 500 LINE",
"600 500 LINE",
"600 600 LINE",
"500 600 LINE"
);
},
{
closed = 1;
nodes = (
"600 600 LINE",
"700 600 LINE",
"700 700 LINE",
"600 700 LINE"
);
}
);
width = 700;
},
{
guideLines = (
{
angle = 90;
position = "{800, 0}";
}
);
layerId = "AA73B291-862F-432F-B5A8-6883F1AD5643";
paths = (
{
closed = 1;
nodes = (
"300 100 LINE",
"400 100 LINE",
"400 0 LINE",
"500 0 LINE",
"500 100 LINE",
"400 100 LINE",
"400 400 LINE",
"200 400 LINE",
"200 500 LINE",
"100 500 LINE",
"100 200 LINE",
"200 200 LINE",
"200 300 LINE",
"300 300 LINE",
"300 200 LINE"
);
},
{
closed = 1;
nodes = (
"100 200 LINE",
"0 200 LINE",
"0 0 LINE",
"100 0 LINE"
);
},
{
closed = 1;
nodes = (
"300 500 LINE",
"300 700 LINE",
"200 700 LINE",
"200 500 LINE"
);
},
{
closed = 1;
nodes = (
"500 400 LINE",
"500 500 LINE",
"400 500 LINE",
"400 400 LINE"
);
},
{
closed = 1;
nodes = (
"500 500 LINE",
"600 500 LINE",
"600 600 LINE",
"500 600 LINE"
);
},
{
closed = 1;
nodes = (
"600 600 LINE",
"700 600 LINE",
"700 700 LINE",
"600 700 LINE"
);
}
);
width = 700;
}
);
unicode = 004B;
},
{
glyphname = L;
lastChange = "2021-04-30 16:08:47 +0000";
layers = (
{
associatedMasterId = "AA73B291-862F-432F-B5A8-6883F1AD5643";
layerId = "71803AA8-9C84-4B24-AAA0-4CE8AE5B2104";
name = img;
width = 700;
},
{
associatedMasterId = "AA73B291-862F-432F-B5A8-6883F1AD5643";
layerId = "6AD711BC-4DE6-43D5-8846-39C02C009028";
name = public.background;
paths = (
{
closed = 1;
nodes = (
"100 0 LINE",
"600 0 LINE",
"600 100 LINE",
"200 100 LINE",
"200 300 LINE",
"100 300 LINE"
);
},
{
closed = 1;
nodes = (
"200 301 LINE",
"300 301 LINE",
"300 700 LINE",
"200 700 LINE"
);
}
);
width = 700;
},
{
guideLines = (
{
angle = 90;
position = "{900, 0}";
}
);
layerId = "AA73B291-862F-432F-B5A8-6883F1AD5643";
paths = (
{
closed = 1;
nodes = (
"0 0 LINE",
"500 0 LINE",
"500 100 LINE",
"100 100 LINE",
"100 200 LINE",
"0 200 LINE"
);
},
{
closed = 1;
nodes = (
"200 500 LINE",
"100 500 LINE",
"100 200 LINE",
"200 200 LINE"
);
},
{
closed = 1;
nodes = (
"300 500 LINE",
"300 700 LINE",
"200 700 LINE",
"200 500 LINE"
);
}
);
width = 700;
}
);
unicode = 004C;
},
{
glyphname = M;
lastChange = "2021-04-30 16:08:47 +0000";
layers = (
{
associatedMasterId = "AA73B291-862F-432F-B5A8-6883F1AD5643";
layerId = "71803AA8-9C84-4B24-AAA0-4CE8AE5B2104";
name = img;
width = 700;
},
{
associatedMasterId = "AA73B291-862F-432F-B5A8-6883F1AD5643";
layerId = "6AD711BC-4DE6-43D5-8846-39C02C009028";
name = public.background;
paths = (
{
closed = 1;
nodes = (
"200 500 LINE",
"300 500 LINE",
"300 400 LINE",
"400 400 LINE",
"400 500 LINE",
"300 500 LINE",
"300 600 LINE",
"200 600 LINE",
"200 700 LINE",
"100 700 LINE",
"100 300 LINE",
"200 300 LINE"
);
},
{
closed = 1;
nodes = (
"600 700 LINE",
"500 700 LINE",
"500 600 LINE",
"400 600 LINE",
"400 500 LINE",
"500 500 LINE",
"500 300 LINE",
"600 300 LINE"
);
},
{
closed = 1;
nodes = (
"0 0 LINE",
"100 0 LINE",
"100 300 LINE",
"0 300 LINE"
);
},
{
closed = 1;
nodes = (
"400 0 LINE",
"500 0 LINE",
"500 300 LINE",
"400 300 LINE"
);
}
);
width = 700;
},
{
guideLines = (
{
angle = 90;
position = "{750, 0}";
}
);
layerId = "AA73B291-862F-432F-B5A8-6883F1AD5643";
paths = (
{
closed = 1;
nodes = (
"400 400 LINE",
"500 400 LINE",
"500 200 LINE",
"600 200 LINE",
"600 500 LINE",
"700 500 LINE",
"700 700 LINE",
"600 700 LINE",
"600 600 LINE",
"500 600 LINE",
"500 500 LINE",
"400 500 LINE",
"400 600 LINE",
"300 600 LINE",
"300 700 LINE",
"200 700 LINE",
"200 500 LINE",
"400 500 LINE"
);
},
{
closed = 1;
nodes = (
"200 500 LINE",
"100 500 LINE",
"100 200 LINE",
"200 200 LINE"
);
},
{
closed = 1;
nodes = (
"400 0 LINE",
"500 0 LINE",
"500 200 LINE",
"400 200 LINE"
);
},
{
closed = 1;
nodes = (
"100 200 LINE",
"0 200 LINE",
"0 0 LINE",
"100 0 LINE"
);
}
);
width = 700;
}
);
unicode = 004D;
},
{
glyphname = N;
lastChange = "2021-04-30 16:08:47 +0000";
layers = (
{
associatedMasterId = "AA73B291-862F-432F-B5A8-6883F1AD5643";
layerId = "71803AA8-9C84-4B24-AAA0-4CE8AE5B2104";
name = img;
width = 700;
},
{
associatedMasterId = "AA73B291-862F-432F-B5A8-6883F1AD5643";
layerId = "6AD711BC-4DE6-43D5-8846-39C02C009028";
name = public.background;
paths = (
{
closed = 1;
nodes = (
"400 0 LINE",
"500 0 LINE",
"500 300 LINE",
"400 300 LINE",
"400 400 LINE",
"300 400 LINE",
"300 500 LINE",
"200 500 LINE",
"200 700 LINE",
"100 700 LINE",
"100 300 LINE",
"200 300 LINE",
"200 400 LINE",
"300 400 LINE",
"300 300 LINE",
"400 300 LINE"
);
},
{
closed = 1;
nodes = (
"500 300 LINE",
"600 300 LINE",
"600 700 LINE",
"500 700 LINE"
);
},
{
closed = 1;
nodes = (
"100 0 LINE",
"100 300 LINE",
"0 300 LINE",
"0 0 LINE"
);
}
);
width = 700;
},
{
guideLines = (
{
angle = 90;
position = "{750, 0}";
}
);
layerId = "AA73B291-862F-432F-B5A8-6883F1AD5643";
paths = (
{
closed = 1;
nodes = (
"400 0 LINE",
"500 0 LINE",
"500 200 LINE",
"600 200 LINE",
"600 500 LINE",
"500 500 LINE",
"500 300 LINE",
"400 300 LINE",
"400 400 LINE",
"300 400 LINE",
"300 700 LINE",
"200 700 LINE",
"200 500 LINE",
"100 500 LINE",
"100 200 LINE",
"200 200 LINE",
"200 400 LINE",
"300 400 LINE",
"300 300 LINE",
"400 300 LINE"
);
},
{
closed = 1;
nodes = (
"600 500 LINE",
"700 500 LINE",
"700 700 LINE",
"600 700 LINE"
);
},
{
closed = 1;
nodes = (
"100 200 LINE",
"0 200 LINE",
"0 0 LINE",
"100 0 LINE"
);
}
);
width = 700;
}
);
unicode = 004E;
},
{
glyphname = Nacute;
lastChange = "2021-04-30 16:08:47 +0000";
layers = (
{
associatedMasterId = "AA73B291-862F-432F-B5A8-6883F1AD5643";
layerId = "71803AA8-9C84-4B24-AAA0-4CE8AE5B2104";
name = img;
width = 700;
},
{
components = (
{
alignment = -1;
name = acute;
transform = "{1, 0, 0, 1, 200, 100}";
}
);
layerId = "AA73B291-862F-432F-B5A8-6883F1AD5643";
paths = (
{
closed = 1;
nodes = (
"400 0 LINE",
"500 0 LINE",
"500 100 LINE",
"600 100 LINE",
"600 400 LINE",
"500 400 LINE",
"500 200 LINE",
"400 200 LINE",
"400 300 LINE",
"300 300 LINE",
"300 500 LINE",
"200 500 LINE",
"200 400 LINE",
"100 400 LINE",
"100 100 LINE",
"200 100 LINE",
"200 300 LINE",
"300 300 LINE",
"300 200 LINE",
"400 200 LINE"
);
},
{
closed = 1;
nodes = (
"600 400 LINE",
"700 400 LINE",
"700 500 LINE",
"600 500 LINE"
);
},
{
closed = 1;
nodes = (
"100 100 LINE",
"0 100 LINE",
"0 0 LINE",
"100 0 LINE"
);
}
);
width = 700;
}
);
unicode = 0143;
},
{
glyphname = Ncaron;
lastChange = "2021-04-30 16:08:47 +0000";
layers = (
{
associatedMasterId = "AA73B291-862F-432F-B5A8-6883F1AD5643";
layerId = "71803AA8-9C84-4B24-AAA0-4CE8AE5B2104";
name = img;
width = 700;
},
{
components = (
{
alignment = -1;
name = caron;
transform = "{1, 0, 0, 1, 100, 100}";
}
);
layerId = "AA73B291-862F-432F-B5A8-6883F1AD5643";
paths = (
{
closed = 1;
nodes = (
"400 0 LINE",
"500 0 LINE",
"500 100 LINE",
"600 100 LINE",
"600 400 LINE",
"500 400 LINE",
"500 200 LINE",
"400 200 LINE",
"400 300 LINE",
"300 300 LINE",
"300 500 LINE",
"200 500 LINE",
"200 400 LINE",
"100 400 LINE",
"100 100 LINE",
"200 100 LINE",
"200 300 LINE",
"300 300 LINE",
"300 200 LINE",
"400 200 LINE"
);
},
{
closed = 1;
nodes = (
"600 400 LINE",
"700 400 LINE",
"700 500 LINE",
"600 500 LINE"
);
},
{
closed = 1;
nodes = (
"100 100 LINE",
"0 100 LINE",
"0 0 LINE",
"100 0 LINE"
);
}
);
width = 700;
}
);
unicode = 0147;
},
{
glyphname = Ntilde;
lastChange = "2021-04-30 16:08:47 +0000";
layers = (
{
associatedMasterId = "AA73B291-862F-432F-B5A8-6883F1AD5643";
layerId = "71803AA8-9C84-4B24-AAA0-4CE8AE5B2104";
name = img;
width = 700;
},
{
layerId = "AA73B291-862F-432F-B5A8-6883F1AD5643";
paths = (
{
closed = 1;
nodes = (
"500 600 LINE",
"600 600 LINE",
"600 700 LINE",
"500 700 LINE",
"500 800 LINE",
"400 800 LINE",
"400 700 LINE",
"500 700 LINE"
);
},
{
closed = 1;
nodes = (
"600 700 LINE",
"700 700 LINE",
"700 800 LINE",
"600 800 LINE"
);
},
{
closed = 1;
nodes = (
"300 600 LINE",
"400 600 LINE",
"400 700 LINE",
"300 700 LINE"
);
},
{
closed = 1;
nodes = (
"400 0 LINE",
"500 0 LINE",
"500 100 LINE",
"600 100 LINE",
"600 400 LINE",
"500 400 LINE",
"500 200 LINE",
"400 200 LINE",
"400 300 LINE",
"300 300 LINE",
"300 500 LINE",
"200 500 LINE",
"200 400 LINE",
"100 400 LINE",
"100 100 LINE",
"200 100 LINE",
"200 300 LINE",
"300 300 LINE",
"300 200 LINE",
"400 200 LINE"
);
},
{
closed = 1;
nodes = (
"600 400 LINE",
"700 400 LINE",
"700 500 LINE",
"600 500 LINE"
);
},
{
closed = 1;
nodes = (
"100 100 LINE",
"0 100 LINE",
"0 0 LINE",
"100 0 LINE"
);
}
);
width = 700;
}
);
unicode = 00D1;
},
{
glyphname = O;
lastChange = "2021-04-30 16:08:47 +0000";
layers = (
{
associatedMasterId = "AA73B291-862F-432F-B5A8-6883F1AD5643";
layerId = "71803AA8-9C84-4B24-AAA0-4CE8AE5B2104";
name = img;
width = 700;
},
{
associatedMasterId = "AA73B291-862F-432F-B5A8-6883F1AD5643";
layerId = "6AD711BC-4DE6-43D5-8846-39C02C009028";
name = public.background;
paths = (
{
closed = 1;
nodes = (
"600 300 LINE",
"600 600 LINE",
"500 600 LINE",
"500 700 LINE",
"200 700 LINE",
"200 600 LINE",
"500 600 LINE",
"500 300 LINE"
);
},
{
closed = 1;
nodes = (
"0 100 LINE",
"100 100 LINE",
"100 0 LINE",
"400 0 LINE",
"400 100 LINE",
"100 100 LINE",
"100 400 LINE",
"0 400 LINE"
);
},
{
closed = 1;
nodes = (
"100 400 LINE",
"200 400 LINE",
"200 600 LINE",
"100 600 LINE"
);
},
{
closed = 1;
nodes = (
"400 300 LINE",
"400 100 LINE",
"500 100 LINE",
"500 300 LINE"
);
}
);
width = 700;
},
{
guideLines = (
{
angle = 90;
position = "{800, 0}";
}
);
layerId = "AA73B291-862F-432F-B5A8-6883F1AD5643";
paths = (
{
closed = 1;
nodes = (
"100 300 LINE",
"0 300 LINE",
"0 100 LINE",
"100 100 LINE",
"100 0 LINE",
"400 0 LINE",
"400 100 LINE",
"100 100 LINE"
);
},
{
closed = 1;
nodes = (
"600 400 LINE",
"700 400 LINE",
"700 600 LINE",
"600 600 LINE",
"600 700 LINE",
"300 700 LINE",
"300 600 LINE",
"600 600 LINE",
"600 500 LINE"
);
},
{
closed = 1;
nodes = (
"100 300 LINE",
"200 300 LINE",
"200 500 LINE",
"100 500 LINE"
);
},
{
closed = 1;
nodes = (
"500 200 LINE",
"600 200 LINE",
"600 400 LINE",
"500 400 LINE"
);
},
{
closed = 1;
nodes = (
"200 500 LINE",
"300 500 LINE",
"300 600 LINE",
"200 600 LINE"
);
},
{
closed = 1;
nodes = (
"400 100 LINE",
"500 100 LINE",
"500 200 LINE",
"400 200 LINE"
);
}
);
width = 700;
}
);
unicode = 004F;
},
{
glyphname = Oacute;
lastChange = "2021-04-30 16:08:47 +0000";
layers = (
{
associatedMasterId = "AA73B291-862F-432F-B5A8-6883F1AD5643";
layerId = "71803AA8-9C84-4B24-AAA0-4CE8AE5B2104";
name = img;
width = 700;
},
{
components = (
{
alignment = -1;
name = acute;
transform = "{1, 0, 0, 1, 200, 100}";
}
);
layerId = "AA73B291-862F-432F-B5A8-6883F1AD5643";
paths = (
{
closed = 1;
nodes = (
"100 300 LINE",
"0 300 LINE",
"0 100 LINE",
"100 100 LINE",
"100 0 LINE",
"400 0 LINE",
"400 100 LINE",
"100 100 LINE"
);
},
{
closed = 1;
nodes = (
"500 200 LINE",
"600 200 LINE",
"600 400 LINE",
"500 400 LINE",
"500 500 LINE",
"200 500 LINE",
"200 400 LINE",
"500 400 LINE"
);
},
{
closed = 1;
nodes = (
"400 100 LINE",
"500 100 LINE",
"500 200 LINE",
"400 200 LINE"
);
},
{
closed = 1;
nodes = (
"200 400 LINE",
"100 400 LINE",
"100 300 LINE",
"200 300 LINE"
);
}
);
width = 700;
}
);
unicode = 00D3;
},
{
glyphname = Ocircumflex;
lastChange = "2021-04-30 16:08:47 +0000";
layers = (
{
associatedMasterId = "AA73B291-862F-432F-B5A8-6883F1AD5643";
layerId = "71803AA8-9C84-4B24-AAA0-4CE8AE5B2104";
name = img;
width = 700;
},
{
components = (
{
alignment = -1;
name = circumflex;
transform = "{1, 0, 0, 1, 98, 100}";
}
);
layerId = "AA73B291-862F-432F-B5A8-6883F1AD5643";
paths = (
{
closed = 1;
nodes = (
"100 300 LINE",
"0 300 LINE",
"0 100 LINE",
"100 100 LINE",
"100 0 LINE",
"400 0 LINE",
"400 100 LINE",
"100 100 LINE"
);
},
{
closed = 1;
nodes = (
"500 200 LINE",
"600 200 LINE",
"600 400 LINE",
"500 400 LINE",
"500 500 LINE",
"200 500 LINE",
"200 400 LINE",
"500 400 LINE"
);
},
{
closed = 1;
nodes = (
"400 100 LINE",
"500 100 LINE",
"500 200 LINE",
"400 200 LINE"
);
},
{
closed = 1;
nodes = (
"200 400 LINE",
"100 400 LINE",
"100 300 LINE",
"200 300 LINE"
);
}
);
width = 700;
}
);
unicode = 00D4;
},
{
glyphname = Odieresis;
lastChange = "2021-04-30 16:08:47 +0000";
layers = (
{
associatedMasterId = "AA73B291-862F-432F-B5A8-6883F1AD5643";
layerId = "71803AA8-9C84-4B24-AAA0-4CE8AE5B2104";
name = img;
width = 700;
},
{
components = (
{
alignment = -1;
name = dieresis;
transform = "{1, 0, 0, 1, 100, 0}";
}
);
layerId = "AA73B291-862F-432F-B5A8-6883F1AD5643";
paths = (
{
closed = 1;
nodes = (
"100 300 LINE",
"0 300 LINE",
"0 100 LINE",
"100 100 LINE",
"100 0 LINE",
"400 0 LINE",
"400 100 LINE",
"100 100 LINE"
);
},
{
closed = 1;
nodes = (
"500 200 LINE",
"600 200 LINE",
"600 400 LINE",
"500 400 LINE",
"500 500 LINE",
"200 500 LINE",
"200 400 LINE",
"500 400 LINE"
);
},
{
closed = 1;
nodes = (
"400 100 LINE",
"500 100 LINE",
"500 200 LINE",
"400 200 LINE"
);
},
{
closed = 1;
nodes = (
"200 400 LINE",
"100 400 LINE",
"100 300 LINE",
"200 300 LINE"
);
}
);
width = 700;
}
);
unicode = 00D6;
},
{
glyphname = Ograve;
lastChange = "2021-04-30 16:08:47 +0000";
layers = (
{
associatedMasterId = "AA73B291-862F-432F-B5A8-6883F1AD5643";
layerId = "71803AA8-9C84-4B24-AAA0-4CE8AE5B2104";
name = img;
width = 700;
},
{
components = (
{
alignment = -1;
name = grave;
transform = "{1, 0, 0, 1, 100, 100}";
}
);
layerId = "AA73B291-862F-432F-B5A8-6883F1AD5643";
paths = (
{
closed = 1;
nodes = (
"100 300 LINE",
"0 300 LINE",
"0 100 LINE",
"100 100 LINE",
"100 0 LINE",
"400 0 LINE",
"400 100 LINE",
"100 100 LINE"
);
},
{
closed = 1;
nodes = (
"500 200 LINE",
"600 200 LINE",
"600 400 LINE",
"500 400 LINE",
"500 500 LINE",
"200 500 LINE",
"200 400 LINE",
"500 400 LINE"
);
},
{
closed = 1;
nodes = (
"400 100 LINE",
"500 100 LINE",
"500 200 LINE",
"400 200 LINE"
);
},
{
closed = 1;
nodes = (
"200 400 LINE",
"100 400 LINE",
"100 300 LINE",
"200 300 LINE"
);
}
);
width = 700;
}
);
unicode = 00D2;
},
{
glyphname = Oslash;
lastChange = "2021-04-30 16:08:47 +0000";
layers = (
{
associatedMasterId = "AA73B291-862F-432F-B5A8-6883F1AD5643";
layerId = "71803AA8-9C84-4B24-AAA0-4CE8AE5B2104";
name = img;
width = 700;
},
{
associatedMasterId = "AA73B291-862F-432F-B5A8-6883F1AD5643";
layerId = "6AD711BC-4DE6-43D5-8846-39C02C009028";
name = public.background;
paths = (
{
closed = 1;
nodes = (
"100 300 LINE",
"0 300 LINE",
"0 100 LINE",
"100 100 LINE",
"100 0 LINE",
"400 0 LINE",
"400 100 LINE",
"300 100 LINE",
"300 200 LINE",
"200 200 LINE",
"200 400 LINE",
"100 400 LINE"
);
},
{
closed = 1;
nodes = (
"400 400 LINE",
"500 400 LINE",
"500 200 LINE",
"600 200 LINE",
"600 300 LINE",
"500 300 LINE",
"500 500 LINE",
"600 500 LINE",
"600 300 LINE",
"700 300 LINE",
"700 500 LINE",
"600 500 LINE",
"600 600 LINE",
"300 600 LINE",
"300 500 LINE",
"400 500 LINE"
);
},
{
closed = 1;
nodes = (
"100 300 LINE",
"200 300 LINE",
"200 100 LINE",
"100 100 LINE"
);
},
{
closed = 1;
nodes = (
"600 600 LINE",
"700 600 LINE",
"700 700 LINE",
"600 700 LINE"
);
},
{
closed = 1;
nodes = (
"400 100 LINE",
"500 100 LINE",
"500 200 LINE",
"400 200 LINE"
);
},
{
closed = 1;
nodes = (
"0 -100 LINE",
"100 -100 LINE",
"100 0 LINE",
"0 0 LINE"
);
},
{
closed = 1;
nodes = (
"200 400 LINE",
"300 400 LINE",
"300 500 LINE",
"200 500 LINE"
);
},
{
closed = 1;
nodes = (
"300 200 LINE",
"400 200 LINE",
"400 400 LINE",
"300 400 LINE"
);
}
);
width = 700;
},
{
layerId = "AA73B291-862F-432F-B5A8-6883F1AD5643";
paths = (
{
closed = 1;
nodes = (
"300 298 LINE",
"400 298 LINE",
"400 500 LINE",
"500 500 LINE",
"500 200 LINE",
"600 200 LINE",
"600 500 LINE",
"500 500 LINE",
"500 600 LINE",
"200 600 LINE",
"200 500 LINE",
"300 500 LINE"
);
},
{
closed = 1;
nodes = (
"100 400 LINE",
"0 400 LINE",
"0 100 LINE",
"100 100 LINE",
"100 0 LINE",
"400 0 LINE",
"400 100 LINE",
"300 100 LINE",
"300 298 LINE",
"200 298 LINE",
"200 100 LINE",
"100 100 LINE"
);
},
{
closed = 1;
nodes = (
"0 -100 LINE",
"100 -100 LINE",
"100 0 LINE",
"0 0 LINE"
);
},
{
closed = 1;
nodes = (
"400 100 LINE",
"500 100 LINE",
"500 200 LINE",
"400 200 LINE"
);
},
{
closed = 1;
nodes = (
"200 500 LINE",
"100 500 LINE",
"100 400 LINE",
"200 400 LINE"
);
},
{
closed = 1;
nodes = (
"501 600 LINE",
"600 600 LINE",
"600 700 LINE",
"501 700 LINE"
);
}
);
width = 700;
}
);
unicode = 00D8;
},
{
glyphname = Otilde;
lastChange = "2021-04-30 16:08:47 +0000";
layers = (
{
associatedMasterId = "AA73B291-862F-432F-B5A8-6883F1AD5643";
layerId = "71803AA8-9C84-4B24-AAA0-4CE8AE5B2104";
name = img;
width = 700;
},
{
layerId = "AA73B291-862F-432F-B5A8-6883F1AD5643";
paths = (
{
closed = 1;
nodes = (
"100 300 LINE",
"0 300 LINE",
"0 100 LINE",
"100 100 LINE",
"100 0 LINE",
"400 0 LINE",
"400 100 LINE",
"100 100 LINE"
);
},
{
closed = 1;
nodes = (
"500 200 LINE",
"600 200 LINE",
"600 400 LINE",
"500 400 LINE",
"500 500 LINE",
"200 500 LINE",
"200 400 LINE",
"500 400 LINE"
);
},
{
closed = 1;
nodes = (
"500 600 LINE",
"600 600 LINE",
"600 700 LINE",
"500 700 LINE",
"500 800 LINE",
"400 800 LINE",
"400 700 LINE",
"500 700 LINE"
);
},
{
closed = 1;
nodes = (
"200 400 LINE",
"100 400 LINE",
"100 300 LINE",
"200 300 LINE"
);
},
{
closed = 1;
nodes = (
"400 100 LINE",
"500 100 LINE",
"500 200 LINE",
"400 200 LINE"
);
},
{
closed = 1;
nodes = (
"300 600 LINE",
"400 600 LINE",
"400 700 LINE",
"300 700 LINE"
);
},
{
closed = 1;
nodes = (
"600 700 LINE",
"700 700 LINE",
"700 800 LINE",
"600 800 LINE"
);
}
);
width = 700;
}
);
unicode = 00D5;
},
{
glyphname = OE;
lastChange = "2021-04-30 16:08:47 +0000";
layers = (
{
associatedMasterId = "AA73B291-862F-432F-B5A8-6883F1AD5643";
layerId = "71803AA8-9C84-4B24-AAA0-4CE8AE5B2104";
name = img;
width = 700;
},
{
layerId = "AA73B291-862F-432F-B5A8-6883F1AD5643";
paths = (
{
closed = 1;
nodes = (
"100 0 LINE",
"500 0 LINE",
"500 100 LINE",
"300 100 LINE",
"300 300 LINE",
"200 300 LINE",
"200 100 LINE",
"100 100 LINE",
"100 400 LINE",
"0 400 LINE",
"0 100 LINE",
"100 100 LINE"
);
},
{
closed = 1;
nodes = (
"200 700 LINE",
"200 600 LINE",
"300 600 LINE",
"300 300 LINE",
"500 300 LINE",
"500 400 LINE",
"400 400 LINE",
"400 600 LINE",
"600 600 LINE",
"600 700 LINE"
);
},
{
closed = 1;
nodes = (
"100 400 LINE",
"200 400 LINE",
"200 600 LINE",
"100 600 LINE"
);
}
);
width = 700;
}
);
unicode = 0152;
},
{
glyphname = P;
lastChange = "2021-04-30 16:08:47 +0000";
layers = (
{
associatedMasterId = "AA73B291-862F-432F-B5A8-6883F1AD5643";
layerId = "71803AA8-9C84-4B24-AAA0-4CE8AE5B2104";
name = img;
width = 700;
},
{
associatedMasterId = "AA73B291-862F-432F-B5A8-6883F1AD5643";
layerId = "6AD711BC-4DE6-43D5-8846-39C02C009028";
name = public.background;
paths = (
{
closed = 1;
nodes = (
"500 600 LINE",
"500 400 LINE",
"600 400 LINE",
"600 600 LINE",
"500 600 LINE",
"500 700 LINE",
"100 700 LINE",
"100 400 LINE",
"0 400 LINE",
"0 0 LINE",
"100 0 LINE",
"100 301 LINE",
"200 301 LINE",
"200 300 LINE",
"500 300 LINE",
"500 400 LINE",
"200 400 LINE",
"200 600 LINE"
);
}
);
width = 700;
},
{
guideLines = (
{
angle = 90;
position = "{800, 0}";
}
);
layerId = "AA73B291-862F-432F-B5A8-6883F1AD5643";
paths = (
{
closed = 1;
nodes = (
"500 300 LINE",
"500 400 LINE",
"200 400 LINE",
"200 500 LINE",
"100 500 LINE",
"100 200 LINE",
"200 200 LINE",
"200 300 LINE"
);
},
{
closed = 1;
nodes = (
"300 500 LINE",
"300 600 LINE",
"600 600 LINE",
"600 500 LINE",
"700 500 LINE",
"700 600 LINE",
"600 600 LINE",
"600 700 LINE",
"200 700 LINE",
"200 500 LINE"
);
},
{
closed = 1;
nodes = (
"100 200 LINE",
"0 200 LINE",
"0 0 LINE",
"100 0 LINE"
);
},
{
closed = 1;
nodes = (
"600 400 LINE",
"600 500 LINE",
"500 500 LINE",
"500 400 LINE"
);
}
);
width = 700;
}
);
unicode = 0050;
},
{
glyphname = Q;
lastChange = "2021-04-30 16:08:47 +0000";
layers = (
{
associatedMasterId = "AA73B291-862F-432F-B5A8-6883F1AD5643";
layerId = "71803AA8-9C84-4B24-AAA0-4CE8AE5B2104";
name = img;
width = 700;
},
{
associatedMasterId = "AA73B291-862F-432F-B5A8-6883F1AD5643";
layerId = "6AD711BC-4DE6-43D5-8846-39C02C009028";
name = public.background;
paths = (
{
closed = 1;
nodes = (
"600 300 LINE",
"600 600 LINE",
"500 600 LINE",
"500 700 LINE",
"200 700 LINE",
"200 600 LINE",
"500 600 LINE",
"500 300 LINE"
);
},
{
closed = 1;
nodes = (
"100 100 LINE",
"100 400 LINE",
"0 400 LINE",
"0 100 LINE"
);
},
{
closed = 1;
nodes = (
"300 100 LINE",
"400 100 LINE",
"400 0 LINE",
"500 0 LINE",
"500 100 LINE",
"400 100 LINE",
"400 200 LINE",
"300 200 LINE",
"300 300 LINE",
"200 300 LINE",
"200 200 LINE",
"300 200 LINE"
);
},
{
closed = 1;
nodes = (
"100 100 LINE",
"100 0 LINE",
"300 0 LINE",
"300 100 LINE"
);
},
{
closed = 1;
nodes = (
"100 400 LINE",
"200 400 LINE",
"200 600 LINE",
"100 600 LINE"
);
},
{
closed = 1;
nodes = (
"500 200 LINE",
"500 300 LINE",
"400 300 LINE",
"400 200 LINE"
);
}
);
width = 700;
},
{
guideLines = (
{
angle = 90;
position = "{800, 0}";
}
);
layerId = "AA73B291-862F-432F-B5A8-6883F1AD5643";
paths = (
{
closed = 1;
nodes = (
"100 300 LINE",
"0 300 LINE",
"0 100 LINE",
"100 100 LINE",
"100 0 LINE",
"400 0 LINE",
"400 100 LINE",
"100 100 LINE"
);
},
{
closed = 1;
nodes = (
"600 400 LINE",
"700 400 LINE",
"700 600 LINE",
"600 600 LINE",
"600 700 LINE",
"300 700 LINE",
"300 600 LINE",
"600 600 LINE"
);
},
{
closed = 1;
nodes = (
"500 0 LINE",
"600 0 LINE",
"600 100 LINE",
"500 100 LINE",
"500 200 LINE",
"400 200 LINE",
"400 300 LINE",
"300 300 LINE",
"300 200 LINE",
"400 200 LINE",
"400 100 LINE",
"500 100 LINE"
);
},
{
closed = 1;
nodes = (
"500 200 LINE",
"600 200 LINE",
"600 400 LINE",
"500 400 LINE"
);
},
{
closed = 1;
nodes = (
"100 300 LINE",
"200 300 LINE",
"200 500 LINE",
"100 500 LINE"
);
},
{
closed = 1;
nodes = (
"200 500 LINE",
"300 500 LINE",
"300 600 LINE",
"200 600 LINE"
);
}
);
width = 700;
}
);
unicode = 0051;
},
{
glyphname = R;
lastChange = "2021-04-30 16:08:47 +0000";
layers = (
{
associatedMasterId = "AA73B291-862F-432F-B5A8-6883F1AD5643";
layerId = "71803AA8-9C84-4B24-AAA0-4CE8AE5B2104";
name = img;
width = 700;
},
{
associatedMasterId = "AA73B291-862F-432F-B5A8-6883F1AD5643";
layerId = "6AD711BC-4DE6-43D5-8846-39C02C009028";
name = public.background;
paths = (
{
closed = 1;
nodes = (
"400 0 LINE",
"500 0 LINE",
"500 100 LINE",
"400 100 LINE",
"400 300 LINE",
"500 300 LINE",
"500 400 LINE",
"200 400 LINE",
"200 500 LINE",
"100 500 LINE",
"100 200 LINE",
"200 200 LINE",
"200 300 LINE",
"300 300 LINE",
"300 100 LINE",
"400 100 LINE"
);
},
{
closed = 1;
nodes = (
"300 500 LINE",
"300 600 LINE",
"600 600 LINE",
"600 500 LINE",
"700 500 LINE",
"700 600 LINE",
"600 600 LINE",
"600 700 LINE",
"200 700 LINE",
"200 500 LINE"
);
},
{
closed = 1;
nodes = (
"100 0 LINE",
"100 200 LINE",
"0 200 LINE",
"0 0 LINE"
);
},
{
closed = 1;
nodes = (
"600 400 LINE",
"600 500 LINE",
"500 500 LINE",
"500 400 LINE"
);
}
);
width = 700;
},
{
guideLines = (
{
angle = 90;
position = "{800, 0}";
}
);
layerId = "AA73B291-862F-432F-B5A8-6883F1AD5643";
paths = (
{
closed = 1;
nodes = (
"500 200 LINE",
"600 200 LINE",
"600 300 LINE",
"500 300 LINE",
"500 400 LINE",
"200 400 LINE",
"200 500 LINE",
"100 500 LINE",
"100 200 LINE",
"200 200 LINE",
"200 300 LINE",
"500 300 LINE"
);
},
{
closed = 1;
nodes = (
"300 500 LINE",
"300 600 LINE",
"600 600 LINE",
"600 500 LINE",
"700 500 LINE",
"700 600 LINE",
"600 600 LINE",
"600 700 LINE",
"200 700 LINE",
"200 500 LINE"
);
},
{
closed = 1;
nodes = (
"400 0 LINE",
"500 0 LINE",
"500 200 LINE",
"400 200 LINE"
);
},
{
closed = 1;
nodes = (
"100 0 LINE",
"100 200 LINE",
"0 200 LINE",
"0 0 LINE"
);
},
{
closed = 1;
nodes = (
"600 400 LINE",
"600 500 LINE",
"500 500 LINE",
"500 400 LINE"
);
}
);
width = 700;
}
);
unicode = 0052;
},
{
glyphname = S;
lastChange = "2021-04-30 16:08:47 +0000";
layers = (
{
associatedMasterId = "AA73B291-862F-432F-B5A8-6883F1AD5643";
layerId = "71803AA8-9C84-4B24-AAA0-4CE8AE5B2104";
name = img;
width = 700;
},
{
associatedMasterId = "AA73B291-862F-432F-B5A8-6883F1AD5643";
layerId = "6AD711BC-4DE6-43D5-8846-39C02C009028";
name = public.background;
paths = (
{
closed = 1;
nodes = (
"100 600 LINE",
"100 400 LINE",
"200 400 LINE",
"200 300 LINE",
"400 300 LINE",
"400 100 LINE",
"500 100 LINE",
"500 300 LINE",
"400 300 LINE",
"400 400 LINE",
"200 400 LINE",
"200 600 LINE"
);
},
{
closed = 1;
nodes = (
"600 500 LINE",
"600 600 LINE",
"500 600 LINE",
"500 700 LINE",
"200 700 LINE",
"200 600 LINE",
"500 600 LINE",
"500 500 LINE"
);
},
{
closed = 1;
nodes = (
"400 100 LINE",
"100 100 LINE",
"100 200 LINE",
"0 200 LINE",
"0 100 LINE",
"100 100 LINE",
"100 0 LINE",
"400 0 LINE"
);
}
);
width = 700;
},
{
guideLines = (
{
angle = 90;
position = "{800, 0}";
}
);
layerId = "AA73B291-862F-432F-B5A8-6883F1AD5643";
paths = (
{
closed = 1;
nodes = (
"200 500 LINE",
"100 500 LINE",
"100 400 LINE",
"200 400 LINE",
"200 300 LINE",
"500 300 LINE",
"500 200 LINE",
"600 200 LINE",
"600 300 LINE",
"500 300 LINE",
"500 400 LINE",
"200 400 LINE"
);
},
{
closed = 1;
nodes = (
"700 600 LINE",
"600 600 LINE",
"600 700 LINE",
"300 700 LINE",
"300 600 LINE",
"600 600 LINE",
"600 500 LINE",
"700 500 LINE"
);
},
{
closed = 1;
nodes = (
"0 200 LINE",
"0 100 LINE",
"100 100 LINE",
"100 0 LINE",
"400 0 LINE",
"400 100 LINE",
"100 100 LINE",
"100 200 LINE"
);
},
{
closed = 1;
nodes = (
"400 100 LINE",
"500 100 LINE",
"500 200 LINE",
"400 200 LINE"
);
},
{
closed = 1;
nodes = (
"200 500 LINE",
"300 500 LINE",
"300 600 LINE",
"200 600 LINE"
);
}
);
width = 700;
}
);
unicode = 0053;
},
{
glyphname = T;
lastChange = "2021-04-30 16:08:47 +0000";
layers = (
{
associatedMasterId = "AA73B291-862F-432F-B5A8-6883F1AD5643";
layerId = "71803AA8-9C84-4B24-AAA0-4CE8AE5B2104";
name = img;
width = 700;
},
{
associatedMasterId = "AA73B291-862F-432F-B5A8-6883F1AD5643";
layerId = "6AD711BC-4DE6-43D5-8846-39C02C009028";
name = public.background;
paths = (
{
closed = 1;
nodes = (
"600 700 LINE",
"100 700 LINE",
"100 600 LINE",
"300 600 LINE",
"300 300 LINE",
"400 300 LINE",
"400 600 LINE",
"600 600 LINE"
);
},
{
closed = 1;
nodes = (
"200 0 LINE",
"300 0 LINE",
"300 300 LINE",
"200 300 LINE"
);
}
);
width = 700;
},
{
guideLines = (
{
angle = 90;
position = "{800, 0}";
}
);
layerId = "AA73B291-862F-432F-B5A8-6883F1AD5643";
paths = (
{
closed = 1;
nodes = (
"100 600 LINE",
"300 600 LINE",
"300 500 LINE",
"400 500 LINE",
"400 600 LINE",
"600 600 LINE",
"600 700 LINE",
"100 700 LINE"
);
},
{
closed = 1;
nodes = (
"300 500 LINE",
"200 500 LINE",
"200 200 LINE",
"300 200 LINE"
);
},
{
closed = 1;
nodes = (
"100 200 LINE",
"100 0 LINE",
"200 0 LINE",
"200 200 LINE"
);
}
);
width = 700;
}
);
unicode = 0054;
},
{
glyphname = U;
lastChange = "2021-04-30 16:08:47 +0000";
layers = (
{
associatedMasterId = "AA73B291-862F-432F-B5A8-6883F1AD5643";
layerId = "71803AA8-9C84-4B24-AAA0-4CE8AE5B2104";
name = img;
width = 700;
},
{
associatedMasterId = "AA73B291-862F-432F-B5A8-6883F1AD5643";
layerId = "6AD711BC-4DE6-43D5-8846-39C02C009028";
name = public.background;
paths = (
{
closed = 1;
nodes = (
"400 100 LINE",
"100 100 LINE",
"100 400 LINE",
"0 400 LINE",
"0 100 LINE",
"100 100 LINE",
"100 0 LINE",
"400 0 LINE"
);
},
{
closed = 1;
nodes = (
"500 400 LINE",
"600 400 LINE",
"600 700 LINE",
"500 700 LINE"
);
},
{
closed = 1;
nodes = (
"500 100 LINE",
"500 400 LINE",
"400 400 LINE",
"400 100 LINE"
);
},
{
closed = 1;
nodes = (
"100 400 LINE",
"200 400 LINE",
"200 700 LINE",
"100 700 LINE"
);
}
);
width = 700;
},
{
guideLines = (
{
angle = 90;
position = "{700, 0}";
}
);
layerId = "AA73B291-862F-432F-B5A8-6883F1AD5643";
paths = (
{
closed = 1;
nodes = (
"0 300 LINE",
"0 100 LINE",
"100 100 LINE",
"100 0 LINE",
"400 0 LINE",
"400 100 LINE",
"100 100 LINE",
"100 300 LINE"
);
},
{
closed = 1;
nodes = (
"500 200 LINE",
"500 300 LINE",
"400 300 LINE",
"400 100 LINE",
"500 100 LINE"
);
},
{
closed = 1;
nodes = (
"600 500 LINE",
"700 500 LINE",
"700 700 LINE",
"600 700 LINE"
);
},
{
closed = 1;
nodes = (
"200 500 LINE",
"100 500 LINE",
"100 300 LINE",
"200 300 LINE"
);
},
{
closed = 1;
nodes = (
"300 500 LINE",
"300 700 LINE",
"200 700 LINE",
"200 500 LINE"
);
},
{
closed = 1;
nodes = (
"600 500 LINE",
"500 500 LINE",
"500 300 LINE",
"600 300 LINE"
);
}
);
width = 700;
}
);
unicode = 0055;
},
{
glyphname = Uacute;
lastChange = "2021-04-30 16:08:47 +0000";
layers = (
{
associatedMasterId = "AA73B291-862F-432F-B5A8-6883F1AD5643";
layerId = "71803AA8-9C84-4B24-AAA0-4CE8AE5B2104";
name = img;
width = 700;
},
{
components = (
{
alignment = -1;
name = acute;
transform = "{1, 0, 0, 1, 100, 200}";
}
);
layerId = "AA73B291-862F-432F-B5A8-6883F1AD5643";
paths = (
{
closed = 1;
nodes = (
"400 100 LINE",
"100 100 LINE",
"100 400 LINE",
"0 400 LINE",
"0 100 LINE",
"100 100 LINE",
"100 0 LINE",
"400 0 LINE"
);
},
{
closed = 1;
nodes = (
"500 100 LINE",
"500 400 LINE",
"400 400 LINE",
"400 100 LINE"
);
},
{
closed = 1;
nodes = (
"100 400 LINE",
"200 400 LINE",
"200 600 LINE",
"100 600 LINE"
);
},
{
closed = 1;
nodes = (
"500 400 LINE",
"600 400 LINE",
"600 600 LINE",
"500 600 LINE"
);
}
);
width = 700;
}
);
unicode = 00DA;
},
{
glyphname = Ucircumflex;
lastChange = "2021-04-30 16:08:47 +0000";
layers = (
{
associatedMasterId = "AA73B291-862F-432F-B5A8-6883F1AD5643";
layerId = "71803AA8-9C84-4B24-AAA0-4CE8AE5B2104";
name = img;
width = 700;
},
{
components = (
{
alignment = -1;
name = circumflex;
transform = "{1, 0, 0, 1, -2, 100}";
}
);
layerId = "AA73B291-862F-432F-B5A8-6883F1AD5643";
paths = (
{
closed = 1;
nodes = (
"400 100 LINE",
"100 100 LINE",
"100 300 LINE",
"0 300 LINE",
"0 100 LINE",
"100 100 LINE",
"100 0 LINE",
"400 0 LINE"
);
},
{
closed = 1;
nodes = (
"500 100 LINE",
"500 300 LINE",
"400 300 LINE",
"400 100 LINE"
);
},
{
closed = 1;
nodes = (
"100 300 LINE",
"200 300 LINE",
"200 500 LINE",
"100 500 LINE"
);
},
{
closed = 1;
nodes = (
"500 300 LINE",
"600 300 LINE",
"600 500 LINE",
"500 500 LINE"
);
}
);
width = 700;
}
);
unicode = 00DB;
},
{
glyphname = Udieresis;
lastChange = "2021-04-30 16:08:47 +0000";
layers = (
{
associatedMasterId = "AA73B291-862F-432F-B5A8-6883F1AD5643";
layerId = "71803AA8-9C84-4B24-AAA0-4CE8AE5B2104";
name = img;
width = 700;
},
{
components = (
{
alignment = -1;
name = dieresis;
transform = "{1, 0, 0, 1, 0, 100}";
}
);
layerId = "AA73B291-862F-432F-B5A8-6883F1AD5643";
paths = (
{
closed = 1;
nodes = (
"400 100 LINE",
"100 100 LINE",
"100 400 LINE",
"0 400 LINE",
"0 100 LINE",
"100 100 LINE",
"100 0 LINE",
"400 0 LINE"
);
},
{
closed = 1;
nodes = (
"500 100 LINE",
"500 400 LINE",
"400 400 LINE",
"400 100 LINE"
);
},
{
closed = 1;
nodes = (
"100 400 LINE",
"200 400 LINE",
"200 600 LINE",
"100 600 LINE"
);
},
{
closed = 1;
nodes = (
"500 400 LINE",
"600 400 LINE",
"600 600 LINE",
"500 600 LINE"
);
}
);
width = 700;
}
);
unicode = 00DC;
},
{
glyphname = Ugrave;
lastChange = "2021-04-30 16:08:47 +0000";
layers = (
{
associatedMasterId = "AA73B291-862F-432F-B5A8-6883F1AD5643";
layerId = "71803AA8-9C84-4B24-AAA0-4CE8AE5B2104";
name = img;
width = 700;
},
{
layerId = "AA73B291-862F-432F-B5A8-6883F1AD5643";
paths = (
{
closed = 1;
nodes = (
"400 100 LINE",
"100 100 LINE",
"100 400 LINE",
"0 400 LINE",
"0 100 LINE",
"100 100 LINE",
"100 0 LINE",
"400 0 LINE"
);
},
{
closed = 1;
nodes = (
"500 100 LINE",
"500 400 LINE",
"400 400 LINE",
"400 100 LINE"
);
},
{
closed = 1;
nodes = (
"300 600 LINE",
"400 600 LINE",
"400 700 LINE",
"300 700 LINE",
"300 800 LINE",
"200 800 LINE",
"200 700 LINE",
"300 700 LINE"
);
},
{
closed = 1;
nodes = (
"100 400 LINE",
"200 400 LINE",
"200 600 LINE",
"100 600 LINE"
);
},
{
closed = 1;
nodes = (
"500 400 LINE",
"600 400 LINE",
"600 600 LINE",
"500 600 LINE"
);
}
);
width = 700;
}
);
unicode = 00D9;
},
{
glyphname = Utilde;
lastChange = "2021-04-30 16:08:47 +0000";
layers = (
{
associatedMasterId = "AA73B291-862F-432F-B5A8-6883F1AD5643";
layerId = "71803AA8-9C84-4B24-AAA0-4CE8AE5B2104";
name = img;
width = 700;
},
{
components = (
{
alignment = -1;
name = tilde;
transform = "{1, 0, 0, 1, 0, 100}";
}
);
layerId = "AA73B291-862F-432F-B5A8-6883F1AD5643";
paths = (
{
closed = 1;
nodes = (
"400 100 LINE",
"100 100 LINE",
"100 400 LINE",
"0 400 LINE",
"0 100 LINE",
"100 100 LINE",
"100 0 LINE",
"400 0 LINE"
);
},
{
closed = 1;
nodes = (
"500 100 LINE",
"500 400 LINE",
"400 400 LINE",
"400 100 LINE"
);
},
{
closed = 1;
nodes = (
"100 400 LINE",
"200 400 LINE",
"200 600 LINE",
"100 600 LINE"
);
},
{
closed = 1;
nodes = (
"500 400 LINE",
"600 400 LINE",
"600 600 LINE",
"500 600 LINE"
);
}
);
width = 700;
}
);
unicode = 0168;
},
{
glyphname = V;
lastChange = "2021-04-30 16:08:47 +0000";
layers = (
{
associatedMasterId = "AA73B291-862F-432F-B5A8-6883F1AD5643";
layerId = "71803AA8-9C84-4B24-AAA0-4CE8AE5B2104";
name = img;
width = 700;
},
{
associatedMasterId = "AA73B291-862F-432F-B5A8-6883F1AD5643";
layerId = "6AD711BC-4DE6-43D5-8846-39C02C009028";
name = public.background;
paths = (
{
closed = 1;
nodes = (
"200 200 LINE",
"200 0 LINE",
"300 0 LINE",
"300 200 LINE",
"200 200 LINE",
"200 700 LINE",
"100 700 LINE",
"100 200 LINE"
);
},
{
closed = 1;
nodes = (
"500 400 LINE",
"600 400 LINE",
"600 699 LINE",
"500 699 LINE"
);
},
{
closed = 1;
nodes = (
"400 300 LINE",
"500 300 LINE",
"500 400 LINE",
"400 400 LINE"
);
},
{
closed = 1;
nodes = (
"400 300 LINE",
"300 300 LINE",
"300 200 LINE",
"400 200 LINE"
);
}
);
width = 700;
},
{
guideLines = (
{
angle = 90;
position = "{800, 0}";
}
);
layerId = "AA73B291-862F-432F-B5A8-6883F1AD5643";
paths = (
{
closed = 1;
nodes = (
"100 200 LINE",
"200 200 LINE",
"200 700 LINE",
"100 700 LINE"
);
},
{
closed = 1;
nodes = (
"500 400 LINE",
"600 400 LINE",
"600 699 LINE",
"500 699 LINE"
);
},
{
closed = 1;
nodes = (
"300 0 LINE",
"300 200 LINE",
"200 200 LINE",
"200 0 LINE"
);
},
{
closed = 1;
nodes = (
"300 200 LINE",
"400 200 LINE",
"400 300 LINE",
"300 300 LINE"
);
},
{
closed = 1;
nodes = (
"400 300 LINE",
"500 300 LINE",
"500 400 LINE",
"400 400 LINE"
);
}
);
width = 700;
}
);
unicode = 0056;
},
{
glyphname = W;
lastChange = "2021-04-30 16:08:47 +0000";
layers = (
{
associatedMasterId = "AA73B291-862F-432F-B5A8-6883F1AD5643";
layerId = "71803AA8-9C84-4B24-AAA0-4CE8AE5B2104";
name = img;
width = 700;
},
{
associatedMasterId = "AA73B291-862F-432F-B5A8-6883F1AD5643";
layerId = "6AD711BC-4DE6-43D5-8846-39C02C009028";
name = public.background;
paths = (
{
closed = 1;
nodes = (
"300 0 LINE",
"400 0 LINE",
"400 100 LINE",
"300 100 LINE",
"300 400 LINE",
"200 400 LINE",
"200 700 LINE",
"100 700 LINE",
"100 400 LINE",
"200 400 LINE",
"200 100 LINE",
"300 100 LINE"
);
},
{
closed = 1;
nodes = (
"100 0 LINE",
"200 0 LINE",
"200 100 LINE",
"100 100 LINE",
"100 400 LINE",
"0 400 LINE",
"0 100 LINE",
"100 100 LINE"
);
},
{
closed = 1;
nodes = (
"500 100 LINE",
"500 400 LINE",
"400 400 LINE",
"400 100 LINE"
);
},
{
closed = 1;
nodes = (
"500 400 LINE",
"600 400 LINE",
"600 700 LINE",
"500 700 LINE"
);
}
);
width = 700;
},
{
guideLines = (
{
angle = 90;
position = "{800, 0}";
}
);
layerId = "AA73B291-862F-432F-B5A8-6883F1AD5643";
paths = (
{
closed = 1;
nodes = (
"200 100 LINE",
"300 100 LINE",
"300 0 LINE",
"400 0 LINE",
"400 100 LINE",
"300 100 LINE",
"300 300 LINE",
"200 300 LINE",
"200 500 LINE",
"100 500 LINE",
"100 300 LINE",
"200 300 LINE"
);
},
{
closed = 1;
nodes = (
"100 0 LINE",
"200 0 LINE",
"200 100 LINE",
"100 100 LINE",
"100 300 LINE",
"0 300 LINE",
"0 100 LINE",
"100 100 LINE"
);
},
{
closed = 1;
nodes = (
"300 300 LINE",
"400 300 LINE",
"400 100 LINE",
"500 100 LINE",
"500 300 LINE",
"400 300 LINE",
"400 400 LINE",
"300 400 LINE"
);
},
{
closed = 1;
nodes = (
"600 500 LINE",
"500 500 LINE",
"500 300 LINE",
"600 300 LINE"
);
},
{
closed = 1;
nodes = (
"600 500 LINE",
"700 500 LINE",
"700 700 LINE",
"600 700 LINE"
);
},
{
closed = 1;
nodes = (
"300 700 LINE",
"200 700 LINE",
"200 500 LINE",
"300 500 LINE"
);
}
);
width = 700;
}
);
unicode = 0057;
},
{
glyphname = X;
lastChange = "2021-04-30 16:08:47 +0000";
layers = (
{
associatedMasterId = "AA73B291-862F-432F-B5A8-6883F1AD5643";
layerId = "71803AA8-9C84-4B24-AAA0-4CE8AE5B2104";
name = img;
width = 700;
},
{
associatedMasterId = "AA73B291-862F-432F-B5A8-6883F1AD5643";
layerId = "6AD711BC-4DE6-43D5-8846-39C02C009028";
name = public.background;
paths = (
{
closed = 1;
nodes = (
"200 500 LINE",
"200 300 LINE",
"300 300 LINE",
"300 200 LINE",
"400 200 LINE",
"400 0 LINE",
"500 0 LINE",
"500 200 LINE",
"400 200 LINE",
"400 400 LINE",
"500 400 LINE",
"500 500 LINE",
"400 500 LINE",
"400 400 LINE",
"300 400 LINE",
"300 500 LINE",
"200 500 LINE",
"200 700 LINE",
"100 700 LINE",
"100 500 LINE"
);
},
{
closed = 1;
nodes = (
"0 200 LINE",
"0 0 LINE",
"100 0 LINE",
"100 200 LINE"
);
},
{
closed = 1;
nodes = (
"500 700 LINE",
"500 500 LINE",
"600 500 LINE",
"600 700 LINE"
);
},
{
closed = 1;
nodes = (
"100 200 LINE",
"200 200 LINE",
"200 300 LINE",
"100 300 LINE"
);
}
);
width = 700;
},
{
guideLines = (
{
angle = 90;
position = "{800, 0}";
}
);
layerId = "AA73B291-862F-432F-B5A8-6883F1AD5643";
paths = (
{
closed = 1;
nodes = (
"400 300 LINE",
"400 400 LINE",
"300 400 LINE",
"300 700 LINE",
"200 700 LINE",
"200 400 LINE",
"300 400 LINE",
"300 300 LINE"
);
},
{
closed = 1;
nodes = (
"400 300 LINE",
"400 0 LINE",
"500 0 LINE",
"500 300 LINE"
);
},
{
closed = 1;
nodes = (
"400 400 LINE",
"500 400 LINE",
"500 500 LINE",
"400 500 LINE"
);
},
{
closed = 1;
nodes = (
"300 200 LINE",
"300 300 LINE",
"200 300 LINE",
"200 200 LINE"
);
},
{
closed = 1;
nodes = (
"600 600 LINE",
"700 600 LINE",
"700 700 LINE",
"600 700 LINE"
);
},
{
closed = 1;
nodes = (
"100 100 LINE",
"0 100 LINE",
"0 0 LINE",
"100 0 LINE"
);
},
{
closed = 1;
nodes = (
"600 600 LINE",
"500 600 LINE",
"500 500 LINE",
"600 500 LINE"
);
},
{
closed = 1;
nodes = (
"100 100 LINE",
"200 100 LINE",
"200 200 LINE",
"100 200 LINE"
);
}
);
width = 700;
}
);
unicode = 0058;
},
{
glyphname = Y;
lastChange = "2021-04-30 16:08:47 +0000";
layers = (
{
associatedMasterId = "AA73B291-862F-432F-B5A8-6883F1AD5643";
layerId = "71803AA8-9C84-4B24-AAA0-4CE8AE5B2104";
name = img;
width = 700;
},
{
associatedMasterId = "AA73B291-862F-432F-B5A8-6883F1AD5643";
layerId = "6AD711BC-4DE6-43D5-8846-39C02C009028";
name = public.background;
paths = (
{
closed = 1;
nodes = (
"200 500 LINE",
"200 700 LINE",
"100 700 LINE",
"100 500 LINE",
"200 500 LINE",
"200 400 LINE",
"300 400 LINE",
"300 300 LINE",
"400 300 LINE",
"400 400 LINE",
"300 400 LINE",
"300 500 LINE"
);
},
{
closed = 1;
nodes = (
"200 0 LINE",
"300 0 LINE",
"300 300 LINE",
"200 300 LINE"
);
},
{
closed = 1;
nodes = (
"500 700 LINE",
"500 500 LINE",
"600 500 LINE",
"600 700 LINE"
);
},
{
closed = 1;
nodes = (
"400 400 LINE",
"500 400 LINE",
"500 500 LINE",
"400 500 LINE"
);
}
);
width = 700;
},
{
guideLines = (
{
angle = 90;
position = "{750, 0}";
}
);
layerId = "AA73B291-862F-432F-B5A8-6883F1AD5643";
paths = (
{
closed = 1;
nodes = (
"300 400 LINE",
"300 700 LINE",
"200 700 LINE",
"200 400 LINE"
);
},
{
closed = 1;
nodes = (
"300 400 LINE",
"300 200 LINE",
"400 200 LINE",
"400 400 LINE"
);
},
{
closed = 1;
nodes = (
"200 0 LINE",
"300 0 LINE",
"300 200 LINE",
"200 200 LINE"
);
},
{
closed = 1;
nodes = (
"600 600 LINE",
"500 600 LINE",
"500 500 LINE",
"600 500 LINE"
);
},
{
closed = 1;
nodes = (
"400 400 LINE",
"500 400 LINE",
"500 500 LINE",
"400 500 LINE"
);
},
{
closed = 1;
nodes = (
"600 600 LINE",
"700 600 LINE",
"700 700 LINE",
"600 700 LINE"
);
}
);
width = 700;
}
);
unicode = 0059;
},
{
glyphname = Yacute;
lastChange = "2021-04-30 16:08:47 +0000";
layers = (
{
associatedMasterId = "AA73B291-862F-432F-B5A8-6883F1AD5643";
layerId = "71803AA8-9C84-4B24-AAA0-4CE8AE5B2104";
name = img;
width = 700;
},
{
associatedMasterId = "AA73B291-862F-432F-B5A8-6883F1AD5643";
layerId = "6AD711BC-4DE6-43D5-8846-39C02C009028";
name = public.background;
paths = (
{
closed = 1;
nodes = (
"300 300 LINE",
"300 600 LINE",
"200 600 LINE",
"200 300 LINE"
);
},
{
closed = 1;
nodes = (
"300 300 LINE",
"300 100 LINE",
"400 100 LINE",
"400 300 LINE"
);
},
{
closed = 1;
nodes = (
"200 0 LINE",
"300 0 LINE",
"300 100 LINE",
"200 100 LINE"
);
},
{
closed = 1;
nodes = (
"600 500 LINE",
"500 500 LINE",
"500 400 LINE",
"600 400 LINE"
);
},
{
closed = 1;
nodes = (
"400 300 LINE",
"500 300 LINE",
"500 400 LINE",
"400 400 LINE"
);
},
{
closed = 1;
nodes = (
"600 500 LINE",
"700 500 LINE",
"700 600 LINE",
"600 600 LINE"
);
},
{
closed = 1;
nodes = (
"400 600 LINE",
"500 600 LINE",
"500 700 LINE",
"400 700 LINE"
);
},
{
closed = 1;
nodes = (
"500 700 LINE",
"600 700 LINE",
"600 800 LINE",
"500 800 LINE"
);
}
);
width = 700;
},
{
layerId = "AA73B291-862F-432F-B5A8-6883F1AD5643";
paths = (
{
closed = 1;
nodes = (
"300 400 LINE",
"300 200 LINE",
"400 200 LINE",
"400 400 LINE"
);
},
{
closed = 1;
nodes = (
"300 400 LINE",
"300 600 LINE",
"200 600 LINE",
"200 400 LINE"
);
},
{
closed = 1;
nodes = (
"200 0 LINE",
"300 0 LINE",
"300 200 LINE",
"200 200 LINE"
);
},
{
closed = 1;
nodes = (
"400 600 LINE",
"500 600 LINE",
"500 500 LINE",
"600 500 LINE",
"600 600 LINE",
"500 600 LINE",
"500 700 LINE",
"400 700 LINE"
);
},
{
closed = 1;
nodes = (
"500 700 LINE",
"600 700 LINE",
"600 800 LINE",
"500 800 LINE"
);
},
{
closed = 1;
nodes = (
"400 400 LINE",
"500 400 LINE",
"500 500 LINE",
"400 500 LINE"
);
}
);
width = 700;
}
);
unicode = 00DD;
},
{
glyphname = Ydieresis;
lastChange = "2021-04-30 16:08:47 +0000";
layers = (
{
associatedMasterId = "AA73B291-862F-432F-B5A8-6883F1AD5643";
layerId = "71803AA8-9C84-4B24-AAA0-4CE8AE5B2104";
name = img;
width = 700;
},
{
associatedMasterId = "AA73B291-862F-432F-B5A8-6883F1AD5643";
layerId = "6AD711BC-4DE6-43D5-8846-39C02C009028";
name = public.background;
paths = (
{
closed = 1;
nodes = (
"300 300 LINE",
"300 600 LINE",
"200 600 LINE",
"200 300 LINE"
);
},
{
closed = 1;
nodes = (
"300 300 LINE",
"300 200 LINE",
"400 200 LINE",
"400 300 LINE"
);
},
{
closed = 1;
nodes = (
"300 700 LINE",
"400 700 LINE",
"400 800 LINE",
"300 800 LINE"
);
},
{
closed = 1;
nodes = (
"600 500 LINE",
"700 500 LINE",
"700 600 LINE",
"600 600 LINE"
);
},
{
closed = 1;
nodes = (
"200 0 LINE",
"300 0 LINE",
"300 200 LINE",
"200 200 LINE"
);
},
{
closed = 1;
nodes = (
"600 500 LINE",
"500 500 LINE",
"500 400 LINE",
"600 400 LINE"
);
},
{
closed = 1;
nodes = (
"400 300 LINE",
"500 300 LINE",
"500 400 LINE",
"400 400 LINE"
);
},
{
closed = 1;
nodes = (
"500 700 LINE",
"600 700 LINE",
"600 800 LINE",
"500 800 LINE"
);
}
);
width = 700;
},
{
layerId = "AA73B291-862F-432F-B5A8-6883F1AD5643";
paths = (
{
closed = 1;
nodes = (
"300 400 LINE",
"300 200 LINE",
"400 200 LINE",
"400 400 LINE",
"300 400 LINE",
"300 600 LINE",
"200 600 LINE",
"200 400 LINE"
);
},
{
closed = 1;
nodes = (
"200 0 LINE",
"300 0 LINE",
"300 200 LINE",
"200 200 LINE"
);
},
{
closed = 1;
nodes = (
"600 600 LINE",
"500 600 LINE",
"500 500 LINE",
"600 500 LINE"
);
},
{
closed = 1;
nodes = (
"400 400 LINE",
"500 400 LINE",
"500 500 LINE",
"400 500 LINE"
);
},
{
closed = 1;
nodes = (
"300 700 LINE",
"400 700 LINE",
"400 800 LINE",
"300 800 LINE"
);
},
{
closed = 1;
nodes = (
"500 700 LINE",
"600 700 LINE",
"600 800 LINE",
"500 800 LINE"
);
}
);
width = 700;
}
);
unicode = 0178;
},
{
glyphname = Ygrave;
lastChange = "2021-04-30 16:08:47 +0000";
layers = (
{
associatedMasterId = "AA73B291-862F-432F-B5A8-6883F1AD5643";
layerId = "71803AA8-9C84-4B24-AAA0-4CE8AE5B2104";
name = img;
width = 700;
},
{
components = (
{
alignment = -1;
name = grave;
transform = "{1, 0, 0, 1, 100, 100}";
}
);
layerId = "AA73B291-862F-432F-B5A8-6883F1AD5643";
paths = (
{
closed = 1;
nodes = (
"300 400 LINE",
"300 200 LINE",
"400 200 LINE",
"400 400 LINE"
);
},
{
closed = 1;
nodes = (
"300 400 LINE",
"300 600 LINE",
"200 600 LINE",
"200 400 LINE"
);
},
{
closed = 1;
nodes = (
"200 0 LINE",
"300 0 LINE",
"300 200 LINE",
"200 200 LINE"
);
},
{
closed = 1;
nodes = (
"400 400 LINE",
"500 400 LINE",
"500 500 LINE",
"400 500 LINE"
);
},
{
closed = 1;
nodes = (
"600 600 LINE",
"500 600 LINE",
"500 500 LINE",
"600 500 LINE"
);
}
);
width = 700;
}
);
unicode = 1EF2;
},
{
glyphname = Z;
lastChange = "2021-04-30 16:08:47 +0000";
layers = (
{
associatedMasterId = "AA73B291-862F-432F-B5A8-6883F1AD5643";
layerId = "71803AA8-9C84-4B24-AAA0-4CE8AE5B2104";
name = img;
width = 700;
},
{
associatedMasterId = "AA73B291-862F-432F-B5A8-6883F1AD5643";
layerId = "6AD711BC-4DE6-43D5-8846-39C02C009028";
name = public.background;
paths = (
{
closed = 1;
nodes = (
"0 200 LINE",
"0 0 LINE",
"500 0 LINE",
"500 100 LINE",
"100 100 LINE",
"100 200 LINE"
);
},
{
closed = 1;
nodes = (
"700 700 LINE",
"200 700 LINE",
"200 600 LINE",
"600 600 LINE",
"600 500 LINE",
"700 500 LINE"
);
},
{
closed = 1;
nodes = (
"200 300 LINE",
"500 300 LINE",
"500 400 LINE",
"200 400 LINE"
);
},
{
closed = 1;
nodes = (
"500 400 LINE",
"600 400 LINE",
"600 500 LINE",
"500 500 LINE"
);
},
{
closed = 1;
nodes = (
"100 200 LINE",
"200 200 LINE",
"200 300 LINE",
"100 300 LINE"
);
}
);
width = 700;
},
{
guideLines = (
{
angle = 90;
position = "{800, 0}";
}
);
layerId = "AA73B291-862F-432F-B5A8-6883F1AD5643";
paths = (
{
closed = 1;
nodes = (
"200 200 LINE",
"100 200 LINE",
"100 100 LINE",
"0 100 LINE",
"0 0 LINE",
"500 0 LINE",
"500 100 LINE",
"200 100 LINE",
"200 200 LINE",
"300 200 LINE",
"300 300 LINE",
"400 300 LINE",
"400 400 LINE",
"500 400 LINE",
"500 500 LINE",
"600 500 LINE",
"600 600 LINE",
"700 600 LINE",
"700 700 LINE",
"200 700 LINE",
"200 600 LINE",
"500 600 LINE",
"500 500 LINE",
"400 500 LINE",
"400 400 LINE",
"300 400 LINE",
"300 300 LINE",
"200 300 LINE"
);
}
);
width = 700;
}
);
unicode = 005A;
},
{
glyphname = Zcaron;
lastChange = "2021-04-30 16:08:47 +0000";
layers = (
{
associatedMasterId = "AA73B291-862F-432F-B5A8-6883F1AD5643";
layerId = "71803AA8-9C84-4B24-AAA0-4CE8AE5B2104";
name = img;
width = 700;
},
{
components = (
{
alignment = -1;
name = caron;
transform = "{1, 0, 0, 1, 0, 100}";
}
);
layerId = "AA73B291-862F-432F-B5A8-6883F1AD5643";
paths = (
{
closed = 1;
nodes = (
"200 100 LINE",
"200 200 LINE",
"100 200 LINE",
"100 100 LINE",
"0 100 LINE",
"0 0 LINE",
"500 0 LINE",
"500 100 LINE"
);
},
{
closed = 1;
nodes = (
"500 400 LINE",
"500 500 LINE",
"600 500 LINE",
"600 600 LINE",
"100 600 LINE",
"100 500 LINE",
"400 500 LINE",
"400 400 LINE"
);
},
{
closed = 1;
nodes = (
"200 200 LINE",
"300 200 LINE",
"300 300 LINE",
"200 300 LINE"
);
},
{
closed = 1;
nodes = (
"400 300 LINE",
"400 400 LINE",
"300 400 LINE",
"300 300 LINE"
);
}
);
width = 700;
}
);
unicode = 017D;
},
{
glyphname = Aacute.ss01;
lastChange = "2021-04-30 16:08:47 +0000";
layers = (
{
layerId = "AA73B291-862F-432F-B5A8-6883F1AD5643";
paths = (
{
closed = 1;
nodes = (
"500 0 LINE",
"500 200 LINE",
"600 200 LINE",
"600 400 LINE",
"500 400 LINE",
"500 300 LINE",
"200 300 LINE",
"200 400 LINE",
"100 400 LINE",
"100 200 LINE",
"400 200 LINE",
"400 0 LINE"
);
},
{
closed = 1;
nodes = (
"600 600 LINE",
"600 700 LINE",
"300 700 LINE",
"300 600 LINE"
);
},
{
closed = 1;
nodes = (
"0 200 LINE",
"0 0 LINE",
"100 0 LINE",
"100 200 LINE"
);
},
{
closed = 1;
nodes = (
"600 400 LINE",
"700 400 LINE",
"700 600 LINE",
"600 600 LINE"
);
},
{
closed = 1;
nodes = (
"200 400 LINE",
"300 400 LINE",
"300 600 LINE",
"200 600 LINE"
);
},
{
closed = 1;
nodes = (
"500 800 LINE",
"600 800 LINE",
"600 900 LINE",
"500 900 LINE"
);
},
{
closed = 1;
nodes = (
"600 900 LINE",
"700 900 LINE",
"700 1000 LINE",
"600 1000 LINE"
);
}
);
width = 700;
}
);
},
{
glyphname = Acircumflex.ss01;
lastChange = "2021-04-30 16:08:47 +0000";
layers = (
{
layerId = "AA73B291-862F-432F-B5A8-6883F1AD5643";
paths = (
{
closed = 1;
nodes = (
"500 0 LINE",
"500 200 LINE",
"600 200 LINE",
"600 400 LINE",
"500 400 LINE",
"500 300 LINE",
"200 300 LINE",
"200 400 LINE",
"100 400 LINE",
"100 200 LINE",
"400 200 LINE",
"400 0 LINE"
);
},
{
closed = 1;
nodes = (
"600 600 LINE",
"600 700 LINE",
"300 700 LINE",
"300 600 LINE"
);
},
{
closed = 1;
nodes = (
"0 200 LINE",
"0 0 LINE",
"100 0 LINE",
"100 200 LINE"
);
},
{
closed = 1;
nodes = (
"600 400 LINE",
"700 400 LINE",
"700 600 LINE",
"600 600 LINE"
);
},
{
closed = 1;
nodes = (
"200 400 LINE",
"300 400 LINE",
"300 600 LINE",
"200 600 LINE"
);
},
{
closed = 1;
nodes = (
"700 900 LINE",
"600 900 LINE",
"600 1000 LINE",
"500 1000 LINE",
"500 900 LINE",
"600 900 LINE",
"600 800 LINE",
"700 800 LINE"
);
},
{
closed = 1;
nodes = (
"400 800 LINE",
"500 800 LINE",
"500 900 LINE",
"400 900 LINE"
);
}
);
width = 700;
}
);
},
{
glyphname = Adieresis.ss01;
lastChange = "2021-04-30 16:08:47 +0000";
layers = (
{
layerId = "AA73B291-862F-432F-B5A8-6883F1AD5643";
paths = (
{
closed = 1;
nodes = (
"500 0 LINE",
"500 200 LINE",
"600 200 LINE",
"600 400 LINE",
"500 400 LINE",
"500 300 LINE",
"200 300 LINE",
"200 400 LINE",
"100 400 LINE",
"100 200 LINE",
"400 200 LINE",
"400 0 LINE"
);
},
{
closed = 1;
nodes = (
"600 600 LINE",
"600 700 LINE",
"300 700 LINE",
"300 600 LINE"
);
},
{
closed = 1;
nodes = (
"0 200 LINE",
"0 0 LINE",
"100 0 LINE",
"100 200 LINE"
);
},
{
closed = 1;
nodes = (
"600 400 LINE",
"700 400 LINE",
"700 600 LINE",
"600 600 LINE"
);
},
{
closed = 1;
nodes = (
"200 400 LINE",
"300 400 LINE",
"300 600 LINE",
"200 600 LINE"
);
},
{
closed = 1;
nodes = (
"400 800 LINE",
"500 800 LINE",
"500 900 LINE",
"400 900 LINE"
);
},
{
closed = 1;
nodes = (
"600 800 LINE",
"700 800 LINE",
"700 900 LINE",
"600 900 LINE"
);
}
);
width = 700;
}
);
},
{
glyphname = Agrave.ss01;
lastChange = "2021-04-30 16:08:47 +0000";
layers = (
{
layerId = "AA73B291-862F-432F-B5A8-6883F1AD5643";
paths = (
{
closed = 1;
nodes = (
"500 0 LINE",
"500 200 LINE",
"600 200 LINE",
"600 400 LINE",
"500 400 LINE",
"500 300 LINE",
"200 300 LINE",
"200 400 LINE",
"100 400 LINE",
"100 200 LINE",
"400 200 LINE",
"400 0 LINE"
);
},
{
closed = 1;
nodes = (
"600 600 LINE",
"600 700 LINE",
"300 700 LINE",
"300 600 LINE"
);
},
{
closed = 1;
nodes = (
"0 200 LINE",
"0 0 LINE",
"100 0 LINE",
"100 200 LINE"
);
},
{
closed = 1;
nodes = (
"600 400 LINE",
"700 400 LINE",
"700 600 LINE",
"600 600 LINE"
);
},
{
closed = 1;
nodes = (
"200 400 LINE",
"300 400 LINE",
"300 600 LINE",
"200 600 LINE"
);
},
{
closed = 1;
nodes = (
"500 800 LINE",
"600 800 LINE",
"600 900 LINE",
"500 900 LINE",
"500 1000 LINE",
"400 1000 LINE",
"400 900 LINE",
"500 900 LINE"
);
}
);
width = 700;
}
);
},
{
glyphname = Aring.ss01;
lastChange = "2021-04-30 16:08:47 +0000";
layers = (
{
layerId = "AA73B291-862F-432F-B5A8-6883F1AD5643";
paths = (
{
closed = 1;
nodes = (
"500 0 LINE",
"500 200 LINE",
"600 200 LINE",
"600 400 LINE",
"500 400 LINE",
"500 300 LINE",
"200 300 LINE",
"200 400 LINE",
"100 400 LINE",
"100 200 LINE",
"400 200 LINE",
"400 0 LINE"
);
},
{
closed = 1;
nodes = (
"600 600 LINE",
"600 700 LINE",
"300 700 LINE",
"300 600 LINE"
);
},
{
closed = 1;
nodes = (
"0 200 LINE",
"0 0 LINE",
"100 0 LINE",
"100 200 LINE"
);
},
{
closed = 1;
nodes = (
"600 400 LINE",
"700 400 LINE",
"700 600 LINE",
"600 600 LINE"
);
},
{
closed = 1;
nodes = (
"200 400 LINE",
"300 400 LINE",
"300 600 LINE",
"200 600 LINE"
);
},
{
closed = 1;
nodes = (
"500 800 LINE",
"600 800 LINE",
"600 900 LINE",
"500 900 LINE",
"500 1000 LINE",
"400 1000 LINE",
"400 900 LINE",
"500 900 LINE"
);
},
{
closed = 1;
nodes = (
"600 900 LINE",
"700 900 LINE",
"700 1000 LINE",
"600 1000 LINE",
"600 1100 LINE",
"500 1100 LINE",
"500 1000 LINE",
"600 1000 LINE"
);
}
);
width = 700;
}
);
},
{
glyphname = Atilde.ss01;
lastChange = "2021-04-30 16:08:47 +0000";
layers = (
{
layerId = "AA73B291-862F-432F-B5A8-6883F1AD5643";
paths = (
{
closed = 1;
nodes = (
"500 0 LINE",
"500 200 LINE",
"600 200 LINE",
"600 400 LINE",
"500 400 LINE",
"500 300 LINE",
"200 300 LINE",
"200 400 LINE",
"100 400 LINE",
"100 200 LINE",
"400 200 LINE",
"400 0 LINE"
);
},
{
closed = 1;
nodes = (
"600 600 LINE",
"600 700 LINE",
"300 700 LINE",
"300 600 LINE"
);
},
{
closed = 1;
nodes = (
"0 200 LINE",
"0 0 LINE",
"100 0 LINE",
"100 200 LINE"
);
},
{
closed = 1;
nodes = (
"600 400 LINE",
"700 400 LINE",
"700 600 LINE",
"600 600 LINE"
);
},
{
closed = 1;
nodes = (
"200 400 LINE",
"300 400 LINE",
"300 600 LINE",
"200 600 LINE"
);
},
{
closed = 1;
nodes = (
"500 800 LINE",
"600 800 LINE",
"600 900 LINE",
"500 900 LINE",
"500 1000 LINE",
"400 1000 LINE",
"400 900 LINE",
"500 900 LINE"
);
},
{
closed = 1;
nodes = (
"600 900 LINE",
"700 900 LINE",
"700 1000 LINE",
"600 1000 LINE"
);
},
{
closed = 1;
nodes = (
"300 800 LINE",
"400 800 LINE",
"400 900 LINE",
"300 900 LINE"
);
}
);
width = 700;
}
);
},
{
glyphname = Eacute.ss01;
lastChange = "2021-04-30 16:08:47 +0000";
layers = (
{
layerId = "AA73B291-862F-432F-B5A8-6883F1AD5643";
paths = (
{
closed = 1;
nodes = (
"700 600 LINE",
"700 700 LINE",
"200 700 LINE",
"200 500 LINE",
"300 500 LINE",
"300 600 LINE"
);
},
{
closed = 1;
nodes = (
"100 100 LINE",
"100 200 LINE",
"0 200 LINE",
"0 0 LINE",
"500 0 LINE",
"500 100 LINE"
);
},
{
closed = 1;
nodes = (
"200 300 LINE",
"500 300 LINE",
"500 400 LINE",
"200 400 LINE",
"200 500 LINE",
"100 500 LINE",
"100 200 LINE",
"200 200 LINE"
);
},
{
closed = 1;
nodes = (
"400 800 LINE",
"500 800 LINE",
"500 900 LINE",
"400 900 LINE"
);
},
{
closed = 1;
nodes = (
"500 900 LINE",
"600 900 LINE",
"600 1000 LINE",
"500 1000 LINE"
);
}
);
width = 700;
}
);
},
{
glyphname = Ecaron.ss01;
lastChange = "2021-04-30 16:08:47 +0000";
layers = (
{
layerId = "AA73B291-862F-432F-B5A8-6883F1AD5643";
paths = (
{
closed = 1;
nodes = (
"700 600 LINE",
"700 700 LINE",
"200 700 LINE",
"200 500 LINE",
"300 500 LINE",
"300 600 LINE"
);
},
{
closed = 1;
nodes = (
"100 100 LINE",
"100 200 LINE",
"0 200 LINE",
"0 0 LINE",
"500 0 LINE",
"500 100 LINE"
);
},
{
closed = 1;
nodes = (
"200 300 LINE",
"500 300 LINE",
"500 400 LINE",
"200 400 LINE",
"200 500 LINE",
"100 500 LINE",
"100 200 LINE",
"200 200 LINE"
);
},
{
closed = 1;
nodes = (
"600 900 LINE",
"500 900 LINE",
"500 1000 LINE",
"400 1000 LINE",
"400 900 LINE",
"500 900 LINE",
"500 800 LINE",
"600 800 LINE"
);
},
{
closed = 1;
nodes = (
"600 900 LINE",
"700 900 LINE",
"700 1000 LINE",
"600 1000 LINE"
);
}
);
width = 700;
}
);
},
{
glyphname = Ecircumflex.ss01;
lastChange = "2021-04-30 16:08:47 +0000";
layers = (
{
layerId = "AA73B291-862F-432F-B5A8-6883F1AD5643";
paths = (
{
closed = 1;
nodes = (
"700 600 LINE",
"700 700 LINE",
"200 700 LINE",
"200 500 LINE",
"300 500 LINE",
"300 600 LINE"
);
},
{
closed = 1;
nodes = (
"100 100 LINE",
"100 200 LINE",
"0 200 LINE",
"0 0 LINE",
"500 0 LINE",
"500 100 LINE"
);
},
{
closed = 1;
nodes = (
"200 300 LINE",
"500 300 LINE",
"500 400 LINE",
"200 400 LINE",
"200 500 LINE",
"100 500 LINE",
"100 200 LINE",
"200 200 LINE"
);
},
{
closed = 1;
nodes = (
"700 900 LINE",
"600 900 LINE",
"600 1000 LINE",
"500 1000 LINE",
"500 900 LINE",
"600 900 LINE",
"600 800 LINE",
"700 800 LINE"
);
},
{
closed = 1;
nodes = (
"400 800 LINE",
"500 800 LINE",
"500 900 LINE",
"400 900 LINE"
);
}
);
width = 700;
}
);
},
{
glyphname = Edieresis.ss01;
lastChange = "2021-04-30 16:08:47 +0000";
layers = (
{
layerId = "AA73B291-862F-432F-B5A8-6883F1AD5643";
paths = (
{
closed = 1;
nodes = (
"700 600 LINE",
"700 700 LINE",
"200 700 LINE",
"200 500 LINE",
"300 500 LINE",
"300 600 LINE"
);
},
{
closed = 1;
nodes = (
"100 100 LINE",
"100 200 LINE",
"0 200 LINE",
"0 0 LINE",
"500 0 LINE",
"500 100 LINE"
);
},
{
closed = 1;
nodes = (
"200 300 LINE",
"500 300 LINE",
"500 400 LINE",
"200 400 LINE",
"200 500 LINE",
"100 500 LINE",
"100 200 LINE",
"200 200 LINE"
);
},
{
closed = 1;
nodes = (
"400 800 LINE",
"500 800 LINE",
"500 900 LINE",
"400 900 LINE"
);
},
{
closed = 1;
nodes = (
"600 800 LINE",
"700 800 LINE",
"700 900 LINE",
"600 900 LINE"
);
}
);
width = 700;
}
);
},
{
glyphname = Egrave.ss01;
lastChange = "2021-04-30 16:08:47 +0000";
layers = (
{
layerId = "AA73B291-862F-432F-B5A8-6883F1AD5643";
paths = (
{
closed = 1;
nodes = (
"700 600 LINE",
"700 700 LINE",
"200 700 LINE",
"200 500 LINE",
"300 500 LINE",
"300 600 LINE"
);
},
{
closed = 1;
nodes = (
"100 100 LINE",
"100 200 LINE",
"0 200 LINE",
"0 0 LINE",
"500 0 LINE",
"500 100 LINE"
);
},
{
closed = 1;
nodes = (
"200 300 LINE",
"500 300 LINE",
"500 400 LINE",
"200 400 LINE",
"200 500 LINE",
"100 500 LINE",
"100 200 LINE",
"200 200 LINE"
);
},
{
closed = 1;
nodes = (
"500 800 LINE",
"600 800 LINE",
"600 900 LINE",
"500 900 LINE",
"500 1000 LINE",
"400 1000 LINE",
"400 900 LINE",
"500 900 LINE"
);
}
);
width = 700;
}
);
},
{
glyphname = Iacute.ss01;
lastChange = "2021-04-30 16:08:47 +0000";
layers = (
{
layerId = "AA73B291-862F-432F-B5A8-6883F1AD5643";
paths = (
{
closed = 1;
nodes = (
"300 300 LINE",
"200 300 LINE",
"200 100 LINE",
"100 100 LINE",
"100 0 LINE",
"400 0 LINE",
"400 100 LINE",
"300 100 LINE"
);
},
{
closed = 1;
nodes = (
"300 600 LINE",
"400 600 LINE",
"400 500 LINE",
"500 500 LINE",
"500 600 LINE",
"600 600 LINE",
"600 700 LINE",
"300 700 LINE"
);
},
{
closed = 1;
nodes = (
"300 300 LINE",
"400 300 LINE",
"400 500 LINE",
"300 500 LINE"
);
},
{
closed = 1;
nodes = (
"400 800 LINE",
"500 800 LINE",
"500 900 LINE",
"400 900 LINE"
);
},
{
closed = 1;
nodes = (
"500 900 LINE",
"600 900 LINE",
"600 1000 LINE",
"500 1000 LINE"
);
}
);
width = 700;
}
);
},
{
glyphname = Icircumflex.ss01;
lastChange = "2021-04-30 16:08:47 +0000";
layers = (
{
layerId = "AA73B291-862F-432F-B5A8-6883F1AD5643";
paths = (
{
closed = 1;
nodes = (
"300 300 LINE",
"200 300 LINE",
"200 100 LINE",
"100 100 LINE",
"100 0 LINE",
"400 0 LINE",
"400 100 LINE",
"300 100 LINE"
);
},
{
closed = 1;
nodes = (
"300 600 LINE",
"400 600 LINE",
"400 500 LINE",
"500 500 LINE",
"500 600 LINE",
"600 600 LINE",
"600 700 LINE",
"300 700 LINE"
);
},
{
closed = 1;
nodes = (
"300 300 LINE",
"400 300 LINE",
"400 500 LINE",
"300 500 LINE"
);
},
{
closed = 1;
nodes = (
"700 900 LINE",
"600 900 LINE",
"600 1000 LINE",
"500 1000 LINE",
"500 900 LINE",
"600 900 LINE",
"600 800 LINE",
"700 800 LINE"
);
},
{
closed = 1;
nodes = (
"400 800 LINE",
"500 800 LINE",
"500 900 LINE",
"400 900 LINE"
);
}
);
width = 700;
}
);
},
{
glyphname = Idieresis.ss01;
lastChange = "2021-04-30 16:08:47 +0000";
layers = (
{
layerId = "AA73B291-862F-432F-B5A8-6883F1AD5643";
paths = (
{
closed = 1;
nodes = (
"300 300 LINE",
"200 300 LINE",
"200 100 LINE",
"100 100 LINE",
"100 0 LINE",
"400 0 LINE",
"400 100 LINE",
"300 100 LINE"
);
},
{
closed = 1;
nodes = (
"300 600 LINE",
"400 600 LINE",
"400 500 LINE",
"500 500 LINE",
"500 600 LINE",
"600 600 LINE",
"600 700 LINE",
"300 700 LINE"
);
},
{
closed = 1;
nodes = (
"300 300 LINE",
"400 300 LINE",
"400 500 LINE",
"300 500 LINE"
);
},
{
closed = 1;
nodes = (
"400 800 LINE",
"500 800 LINE",
"500 900 LINE",
"400 900 LINE"
);
},
{
closed = 1;
nodes = (
"600 800 LINE",
"700 800 LINE",
"700 900 LINE",
"600 900 LINE"
);
}
);
width = 700;
}
);
},
{
glyphname = Igrave.ss01;
lastChange = "2021-04-30 16:08:47 +0000";
layers = (
{
layerId = "AA73B291-862F-432F-B5A8-6883F1AD5643";
paths = (
{
closed = 1;
nodes = (
"300 300 LINE",
"200 300 LINE",
"200 100 LINE",
"100 100 LINE",
"100 0 LINE",
"400 0 LINE",
"400 100 LINE",
"300 100 LINE"
);
},
{
closed = 1;
nodes = (
"300 600 LINE",
"400 600 LINE",
"400 500 LINE",
"500 500 LINE",
"500 600 LINE",
"600 600 LINE",
"600 700 LINE",
"300 700 LINE"
);
},
{
closed = 1;
nodes = (
"300 300 LINE",
"400 300 LINE",
"400 500 LINE",
"300 500 LINE"
);
},
{
closed = 1;
nodes = (
"500 800 LINE",
"600 800 LINE",
"600 900 LINE",
"500 900 LINE",
"500 1000 LINE",
"400 1000 LINE",
"400 900 LINE",
"500 900 LINE"
);
}
);
width = 700;
}
);
},
{
glyphname = Nacute.ss01;
lastChange = "2021-04-30 16:08:47 +0000";
layers = (
{
layerId = "AA73B291-862F-432F-B5A8-6883F1AD5643";
paths = (
{
closed = 1;
nodes = (
"400 0 LINE",
"500 0 LINE",
"500 200 LINE",
"600 200 LINE",
"600 500 LINE",
"500 500 LINE",
"500 300 LINE",
"400 300 LINE",
"400 400 LINE",
"300 400 LINE",
"300 700 LINE",
"200 700 LINE",
"200 500 LINE",
"100 500 LINE",
"100 200 LINE",
"200 200 LINE",
"200 400 LINE",
"300 400 LINE",
"300 300 LINE",
"400 300 LINE"
);
},
{
closed = 1;
nodes = (
"600 500 LINE",
"700 500 LINE",
"700 700 LINE",
"600 700 LINE"
);
},
{
closed = 1;
nodes = (
"100 200 LINE",
"0 200 LINE",
"0 0 LINE",
"100 0 LINE"
);
},
{
closed = 1;
nodes = (
"400 700 LINE",
"500 700 LINE",
"500 800 LINE",
"400 800 LINE"
);
},
{
closed = 1;
nodes = (
"500 800 LINE",
"600 800 LINE",
"600 900 LINE",
"500 900 LINE"
);
}
);
width = 700;
}
);
},
{
glyphname = Ncaron.ss01;
lastChange = "2021-04-30 16:08:47 +0000";
layers = (
{
layerId = "AA73B291-862F-432F-B5A8-6883F1AD5643";
paths = (
{
closed = 1;
nodes = (
"400 0 LINE",
"500 0 LINE",
"500 200 LINE",
"600 200 LINE",
"600 500 LINE",
"500 500 LINE",
"500 300 LINE",
"400 300 LINE",
"400 400 LINE",
"300 400 LINE",
"300 700 LINE",
"200 700 LINE",
"200 500 LINE",
"100 500 LINE",
"100 200 LINE",
"200 200 LINE",
"200 400 LINE",
"300 400 LINE",
"300 300 LINE",
"400 300 LINE"
);
},
{
closed = 1;
nodes = (
"600 500 LINE",
"700 500 LINE",
"700 700 LINE",
"600 700 LINE"
);
},
{
closed = 1;
nodes = (
"500 700 LINE",
"500 800 LINE",
"400 800 LINE",
"400 900 LINE",
"300 900 LINE",
"300 800 LINE",
"400 800 LINE",
"400 700 LINE"
);
},
{
closed = 1;
nodes = (
"100 200 LINE",
"0 200 LINE",
"0 0 LINE",
"100 0 LINE"
);
},
{
closed = 1;
nodes = (
"500 800 LINE",
"600 800 LINE",
"600 900 LINE",
"500 900 LINE"
);
}
);
width = 700;
}
);
},
{
glyphname = Ntilde.ss01;
lastChange = "2021-04-30 16:08:47 +0000";
layers = (
{
layerId = "AA73B291-862F-432F-B5A8-6883F1AD5643";
paths = (
{
closed = 1;
nodes = (
"400 0 LINE",
"500 0 LINE",
"500 200 LINE",
"600 200 LINE",
"600 500 LINE",
"500 500 LINE",
"500 300 LINE",
"400 300 LINE",
"400 400 LINE",
"300 400 LINE",
"300 700 LINE",
"200 700 LINE",
"200 500 LINE",
"100 500 LINE",
"100 200 LINE",
"200 200 LINE",
"200 400 LINE",
"300 400 LINE",
"300 300 LINE",
"400 300 LINE"
);
},
{
closed = 1;
nodes = (
"600 500 LINE",
"700 500 LINE",
"700 700 LINE",
"600 700 LINE"
);
},
{
closed = 1;
nodes = (
"100 200 LINE",
"0 200 LINE",
"0 0 LINE",
"100 0 LINE"
);
},
{
closed = 1;
nodes = (
"500 800 LINE",
"600 800 LINE",
"600 900 LINE",
"500 900 LINE",
"500 1000 LINE",
"400 1000 LINE",
"400 900 LINE",
"500 900 LINE"
);
},
{
closed = 1;
nodes = (
"600 900 LINE",
"700 900 LINE",
"700 1000 LINE",
"600 1000 LINE"
);
},
{
closed = 1;
nodes = (
"300 800 LINE",
"400 800 LINE",
"400 900 LINE",
"300 900 LINE"
);
}
);
width = 700;
}
);
},
{
glyphname = Oacute.ss01;
lastChange = "2021-04-30 16:08:47 +0000";
layers = (
{
layerId = "AA73B291-862F-432F-B5A8-6883F1AD5643";
paths = (
{
closed = 1;
nodes = (
"100 300 LINE",
"0 300 LINE",
"0 100 LINE",
"100 100 LINE",
"100 0 LINE",
"400 0 LINE",
"400 100 LINE",
"100 100 LINE"
);
},
{
closed = 1;
nodes = (
"600 400 LINE",
"700 400 LINE",
"700 600 LINE",
"600 600 LINE",
"600 700 LINE",
"300 700 LINE",
"300 600 LINE",
"600 600 LINE",
"600 500 LINE"
);
},
{
closed = 1;
nodes = (
"100 300 LINE",
"200 300 LINE",
"200 500 LINE",
"100 500 LINE"
);
},
{
closed = 1;
nodes = (
"500 200 LINE",
"600 200 LINE",
"600 400 LINE",
"500 400 LINE"
);
},
{
closed = 1;
nodes = (
"200 500 LINE",
"300 500 LINE",
"300 600 LINE",
"200 600 LINE"
);
},
{
closed = 1;
nodes = (
"400 100 LINE",
"500 100 LINE",
"500 200 LINE",
"400 200 LINE"
);
},
{
closed = 1;
nodes = (
"500 800 LINE",
"600 800 LINE",
"600 900 LINE",
"500 900 LINE"
);
},
{
closed = 1;
nodes = (
"600 900 LINE",
"700 900 LINE",
"700 1000 LINE",
"600 1000 LINE"
);
}
);
width = 700;
}
);
},
{
glyphname = Ocircumflex.ss01;
lastChange = "2021-04-30 16:08:47 +0000";
layers = (
{
layerId = "AA73B291-862F-432F-B5A8-6883F1AD5643";
paths = (
{
closed = 1;
nodes = (
"100 300 LINE",
"0 300 LINE",
"0 100 LINE",
"100 100 LINE",
"100 0 LINE",
"400 0 LINE",
"400 100 LINE",
"100 100 LINE"
);
},
{
closed = 1;
nodes = (
"600 400 LINE",
"700 400 LINE",
"700 600 LINE",
"600 600 LINE",
"600 700 LINE",
"300 700 LINE",
"300 600 LINE",
"600 600 LINE",
"600 500 LINE"
);
},
{
closed = 1;
nodes = (
"100 300 LINE",
"200 300 LINE",
"200 500 LINE",
"100 500 LINE"
);
},
{
closed = 1;
nodes = (
"500 200 LINE",
"600 200 LINE",
"600 400 LINE",
"500 400 LINE"
);
},
{
closed = 1;
nodes = (
"200 500 LINE",
"300 500 LINE",
"300 600 LINE",
"200 600 LINE"
);
},
{
closed = 1;
nodes = (
"400 100 LINE",
"500 100 LINE",
"500 200 LINE",
"400 200 LINE"
);
},
{
closed = 1;
nodes = (
"700 900 LINE",
"600 900 LINE",
"600 1000 LINE",
"500 1000 LINE",
"500 900 LINE",
"600 900 LINE",
"600 800 LINE",
"700 800 LINE"
);
},
{
closed = 1;
nodes = (
"400 800 LINE",
"500 800 LINE",
"500 900 LINE",
"400 900 LINE"
);
}
);
width = 700;
}
);
},
{
glyphname = Odieresis.ss01;
lastChange = "2021-04-30 16:08:47 +0000";
layers = (
{
layerId = "AA73B291-862F-432F-B5A8-6883F1AD5643";
paths = (
{
closed = 1;
nodes = (
"100 300 LINE",
"0 300 LINE",
"0 100 LINE",
"100 100 LINE",
"100 0 LINE",
"400 0 LINE",
"400 100 LINE",
"100 100 LINE"
);
},
{
closed = 1;
nodes = (
"600 400 LINE",
"700 400 LINE",
"700 600 LINE",
"600 600 LINE",
"600 700 LINE",
"300 700 LINE",
"300 600 LINE",
"600 600 LINE",
"600 500 LINE"
);
},
{
closed = 1;
nodes = (
"100 300 LINE",
"200 300 LINE",
"200 500 LINE",
"100 500 LINE"
);
},
{
closed = 1;
nodes = (
"500 200 LINE",
"600 200 LINE",
"600 400 LINE",
"500 400 LINE"
);
},
{
closed = 1;
nodes = (
"200 500 LINE",
"300 500 LINE",
"300 600 LINE",
"200 600 LINE"
);
},
{
closed = 1;
nodes = (
"400 100 LINE",
"500 100 LINE",
"500 200 LINE",
"400 200 LINE"
);
},
{
closed = 1;
nodes = (
"400 800 LINE",
"500 800 LINE",
"500 900 LINE",
"400 900 LINE"
);
},
{
closed = 1;
nodes = (
"600 800 LINE",
"700 800 LINE",
"700 900 LINE",
"600 900 LINE"
);
}
);
width = 700;
}
);
},
{
glyphname = Ograve.ss01;
lastChange = "2021-04-30 16:08:47 +0000";
layers = (
{
layerId = "AA73B291-862F-432F-B5A8-6883F1AD5643";
paths = (
{
closed = 1;
nodes = (
"100 300 LINE",
"0 300 LINE",
"0 100 LINE",
"100 100 LINE",
"100 0 LINE",
"400 0 LINE",
"400 100 LINE",
"100 100 LINE"
);
},
{
closed = 1;
nodes = (
"600 400 LINE",
"700 400 LINE",
"700 600 LINE",
"600 600 LINE",
"600 700 LINE",
"300 700 LINE",
"300 600 LINE",
"600 600 LINE",
"600 500 LINE"
);
},
{
closed = 1;
nodes = (
"100 300 LINE",
"200 300 LINE",
"200 500 LINE",
"100 500 LINE"
);
},
{
closed = 1;
nodes = (
"500 200 LINE",
"600 200 LINE",
"600 400 LINE",
"500 400 LINE"
);
},
{
closed = 1;
nodes = (
"200 500 LINE",
"300 500 LINE",
"300 600 LINE",
"200 600 LINE"
);
},
{
closed = 1;
nodes = (
"400 100 LINE",
"500 100 LINE",
"500 200 LINE",
"400 200 LINE"
);
},
{
closed = 1;
nodes = (
"500 800 LINE",
"600 800 LINE",
"600 900 LINE",
"500 900 LINE",
"500 1000 LINE",
"400 1000 LINE",
"400 900 LINE",
"500 900 LINE"
);
}
);
width = 700;
}
);
},
{
glyphname = Oslash.ss01;
lastChange = "2021-04-30 16:08:47 +0000";
layers = (
{
layerId = "AA73B291-862F-432F-B5A8-6883F1AD5643";
paths = (
{
closed = 1;
nodes = (
"100 -100 LINE",
"200 -100 LINE",
"200 0 LINE",
"400 0 LINE",
"400 100 LINE",
"300 100 LINE",
"300 300 LINE",
"200 300 LINE",
"200 500 LINE",
"100 500 LINE",
"100 300 LINE",
"0 300 LINE",
"0 100 LINE",
"100 100 LINE"
);
},
{
closed = 1;
nodes = (
"400 400 LINE",
"500 400 LINE",
"500 200 LINE",
"600 200 LINE",
"600 400 LINE",
"700 400 LINE",
"700 600 LINE",
"600 600 LINE",
"600 800 LINE",
"500 800 LINE",
"500 700 LINE",
"300 700 LINE",
"300 600 LINE",
"400 600 LINE"
);
},
{
closed = 1;
nodes = (
"100 300 LINE",
"200 300 LINE",
"200 100 LINE",
"100 100 LINE"
);
},
{
closed = 1;
nodes = (
"600 400 LINE",
"500 400 LINE",
"500 600 LINE",
"600 600 LINE"
);
},
{
closed = 1;
nodes = (
"200 500 LINE",
"300 500 LINE",
"300 600 LINE",
"200 600 LINE"
);
},
{
closed = 1;
nodes = (
"300 300 LINE",
"400 300 LINE",
"400 400 LINE",
"300 400 LINE"
);
},
{
closed = 1;
nodes = (
"400 100 LINE",
"500 100 LINE",
"500 200 LINE",
"400 200 LINE"
);
}
);
width = 700;
}
);
},
{
glyphname = Otilde.ss01;
lastChange = "2021-04-30 16:08:47 +0000";
layers = (
{
layerId = "AA73B291-862F-432F-B5A8-6883F1AD5643";
paths = (
{
closed = 1;
nodes = (
"500 800 LINE",
"600 800 LINE",
"600 900 LINE",
"500 900 LINE",
"500 1000 LINE",
"400 1000 LINE",
"400 900 LINE",
"500 900 LINE"
);
},
{
closed = 1;
nodes = (
"300 800 LINE",
"400 800 LINE",
"400 900 LINE",
"300 900 LINE"
);
},
{
closed = 1;
nodes = (
"600 900 LINE",
"700 900 LINE",
"700 1000 LINE",
"600 1000 LINE"
);
},
{
closed = 1;
nodes = (
"100 300 LINE",
"0 300 LINE",
"0 100 LINE",
"100 100 LINE",
"100 0 LINE",
"400 0 LINE",
"400 100 LINE",
"100 100 LINE"
);
},
{
closed = 1;
nodes = (
"600 400 LINE",
"700 400 LINE",
"700 600 LINE",
"600 600 LINE",
"600 700 LINE",
"300 700 LINE",
"300 600 LINE",
"600 600 LINE",
"600 500 LINE"
);
},
{
closed = 1;
nodes = (
"100 300 LINE",
"200 300 LINE",
"200 500 LINE",
"100 500 LINE"
);
},
{
closed = 1;
nodes = (
"500 200 LINE",
"600 200 LINE",
"600 400 LINE",
"500 400 LINE"
);
},
{
closed = 1;
nodes = (
"200 500 LINE",
"300 500 LINE",
"300 600 LINE",
"200 600 LINE"
);
},
{
closed = 1;
nodes = (
"400 100 LINE",
"500 100 LINE",
"500 200 LINE",
"400 200 LINE"
);
}
);
width = 700;
}
);
},
{
glyphname = Uacute.ss01;
lastChange = "2021-04-30 16:08:47 +0000";
layers = (
{
layerId = "AA73B291-862F-432F-B5A8-6883F1AD5643";
paths = (
{
closed = 1;
nodes = (
"0 300 LINE",
"0 100 LINE",
"100 100 LINE",
"100 0 LINE",
"400 0 LINE",
"400 100 LINE",
"100 100 LINE",
"100 300 LINE"
);
},
{
closed = 1;
nodes = (
"500 200 LINE",
"500 300 LINE",
"400 300 LINE",
"400 100 LINE",
"500 100 LINE"
);
},
{
closed = 1;
nodes = (
"600 500 LINE",
"700 500 LINE",
"700 700 LINE",
"600 700 LINE"
);
},
{
closed = 1;
nodes = (
"200 500 LINE",
"100 500 LINE",
"100 300 LINE",
"200 300 LINE"
);
},
{
closed = 1;
nodes = (
"300 500 LINE",
"300 700 LINE",
"200 700 LINE",
"200 500 LINE"
);
},
{
closed = 1;
nodes = (
"600 500 LINE",
"500 500 LINE",
"500 300 LINE",
"600 300 LINE"
);
},
{
closed = 1;
nodes = (
"400 700 LINE",
"500 700 LINE",
"500 800 LINE",
"400 800 LINE"
);
},
{
closed = 1;
nodes = (
"500 800 LINE",
"600 800 LINE",
"600 900 LINE",
"500 900 LINE"
);
}
);
width = 700;
}
);
},
{
glyphname = Ucircumflex.ss01;
lastChange = "2021-04-30 16:08:47 +0000";
layers = (
{
layerId = "AA73B291-862F-432F-B5A8-6883F1AD5643";
paths = (
{
closed = 1;
nodes = (
"0 300 LINE",
"0 100 LINE",
"100 100 LINE",
"100 0 LINE",
"400 0 LINE",
"400 100 LINE",
"100 100 LINE",
"100 300 LINE"
);
},
{
closed = 1;
nodes = (
"500 200 LINE",
"500 300 LINE",
"400 300 LINE",
"400 100 LINE",
"500 100 LINE"
);
},
{
closed = 1;
nodes = (
"600 500 LINE",
"700 500 LINE",
"700 700 LINE",
"600 700 LINE"
);
},
{
closed = 1;
nodes = (
"200 500 LINE",
"100 500 LINE",
"100 300 LINE",
"200 300 LINE"
);
},
{
closed = 1;
nodes = (
"300 500 LINE",
"300 700 LINE",
"200 700 LINE",
"200 500 LINE"
);
},
{
closed = 1;
nodes = (
"600 500 LINE",
"500 500 LINE",
"500 300 LINE",
"600 300 LINE"
);
},
{
closed = 1;
nodes = (
"700 900 LINE",
"600 900 LINE",
"600 1000 LINE",
"500 1000 LINE",
"500 900 LINE",
"600 900 LINE",
"600 800 LINE",
"700 800 LINE"
);
},
{
closed = 1;
nodes = (
"400 800 LINE",
"500 800 LINE",
"500 900 LINE",
"400 900 LINE"
);
}
);
width = 700;
}
);
},
{
glyphname = Udieresis.ss01;
lastChange = "2021-04-30 16:08:47 +0000";
layers = (
{
layerId = "AA73B291-862F-432F-B5A8-6883F1AD5643";
paths = (
{
closed = 1;
nodes = (
"0 300 LINE",
"0 100 LINE",
"100 100 LINE",
"100 0 LINE",
"400 0 LINE",
"400 100 LINE",
"100 100 LINE",
"100 300 LINE"
);
},
{
closed = 1;
nodes = (
"500 200 LINE",
"500 300 LINE",
"400 300 LINE",
"400 100 LINE",
"500 100 LINE"
);
},
{
closed = 1;
nodes = (
"600 500 LINE",
"700 500 LINE",
"700 700 LINE",
"600 700 LINE"
);
},
{
closed = 1;
nodes = (
"200 500 LINE",
"100 500 LINE",
"100 300 LINE",
"200 300 LINE"
);
},
{
closed = 1;
nodes = (
"300 500 LINE",
"300 700 LINE",
"200 700 LINE",
"200 500 LINE"
);
},
{
closed = 1;
nodes = (
"600 500 LINE",
"500 500 LINE",
"500 300 LINE",
"600 300 LINE"
);
},
{
closed = 1;
nodes = (
"400 800 LINE",
"500 800 LINE",
"500 900 LINE",
"400 900 LINE"
);
},
{
closed = 1;
nodes = (
"600 800 LINE",
"700 800 LINE",
"700 900 LINE",
"600 900 LINE"
);
}
);
width = 700;
}
);
},
{
glyphname = Ugrave.ss01;
lastChange = "2021-04-30 16:08:47 +0000";
layers = (
{
layerId = "AA73B291-862F-432F-B5A8-6883F1AD5643";
paths = (
{
closed = 1;
nodes = (
"0 300 LINE",
"0 100 LINE",
"100 100 LINE",
"100 0 LINE",
"400 0 LINE",
"400 100 LINE",
"100 100 LINE",
"100 300 LINE"
);
},
{
closed = 1;
nodes = (
"500 200 LINE",
"500 300 LINE",
"400 300 LINE",
"400 100 LINE",
"500 100 LINE"
);
},
{
closed = 1;
nodes = (
"600 500 LINE",
"700 500 LINE",
"700 700 LINE",
"600 700 LINE"
);
},
{
closed = 1;
nodes = (
"200 500 LINE",
"100 500 LINE",
"100 300 LINE",
"200 300 LINE"
);
},
{
closed = 1;
nodes = (
"300 500 LINE",
"300 700 LINE",
"200 700 LINE",
"200 500 LINE"
);
},
{
closed = 1;
nodes = (
"600 500 LINE",
"500 500 LINE",
"500 300 LINE",
"600 300 LINE"
);
},
{
closed = 1;
nodes = (
"500 800 LINE",
"600 800 LINE",
"600 900 LINE",
"500 900 LINE",
"500 1000 LINE",
"400 1000 LINE",
"400 900 LINE",
"500 900 LINE"
);
}
);
width = 700;
}
);
},
{
glyphname = Yacute.ss01;
lastChange = "2021-04-30 16:08:47 +0000";
layers = (
{
layerId = "AA73B291-862F-432F-B5A8-6883F1AD5643";
paths = (
{
closed = 1;
nodes = (
"400 200 LINE",
"400 400 LINE",
"300 400 LINE",
"300 700 LINE",
"200 700 LINE",
"200 400 LINE",
"300 400 LINE",
"300 200 LINE"
);
},
{
closed = 1;
nodes = (
"200 0 LINE",
"300 0 LINE",
"300 200 LINE",
"200 200 LINE"
);
},
{
closed = 1;
nodes = (
"400 400 LINE",
"500 400 LINE",
"500 500 LINE",
"400 500 LINE"
);
},
{
closed = 1;
nodes = (
"600 600 LINE",
"700 600 LINE",
"700 700 LINE",
"600 700 LINE"
);
},
{
closed = 1;
nodes = (
"600 600 LINE",
"500 600 LINE",
"500 500 LINE",
"600 500 LINE"
);
},
{
closed = 1;
nodes = (
"400 700 LINE",
"500 700 LINE",
"500 800 LINE",
"400 800 LINE"
);
},
{
closed = 1;
nodes = (
"500 800 LINE",
"600 800 LINE",
"600 900 LINE",
"500 900 LINE"
);
}
);
width = 700;
}
);
},
{
glyphname = Ydieresis.ss01;
lastChange = "2021-04-30 16:08:47 +0000";
layers = (
{
layerId = "AA73B291-862F-432F-B5A8-6883F1AD5643";
paths = (
{
closed = 1;
nodes = (
"300 400 LINE",
"300 700 LINE",
"200 700 LINE",
"200 400 LINE"
);
},
{
closed = 1;
nodes = (
"300 400 LINE",
"300 200 LINE",
"400 200 LINE",
"400 400 LINE"
);
},
{
closed = 1;
nodes = (
"200 0 LINE",
"300 0 LINE",
"300 200 LINE",
"200 200 LINE"
);
},
{
closed = 1;
nodes = (
"600 600 LINE",
"700 600 LINE",
"700 700 LINE",
"600 700 LINE"
);
},
{
closed = 1;
nodes = (
"600 600 LINE",
"500 600 LINE",
"500 500 LINE",
"600 500 LINE"
);
},
{
closed = 1;
nodes = (
"400 400 LINE",
"500 400 LINE",
"500 500 LINE",
"400 500 LINE"
);
},
{
closed = 1;
nodes = (
"400 800 LINE",
"500 800 LINE",
"500 900 LINE",
"400 900 LINE"
);
},
{
closed = 1;
nodes = (
"600 800 LINE",
"700 800 LINE",
"700 900 LINE",
"600 900 LINE"
);
}
);
width = 700;
}
);
},
{
glyphname = Ygrave.ss01;
lastChange = "2021-04-30 16:08:47 +0000";
layers = (
{
layerId = "AA73B291-862F-432F-B5A8-6883F1AD5643";
paths = (
{
closed = 1;
nodes = (
"300 400 LINE",
"300 700 LINE",
"200 700 LINE",
"200 400 LINE"
);
},
{
closed = 1;
nodes = (
"300 400 LINE",
"300 200 LINE",
"400 200 LINE",
"400 400 LINE"
);
},
{
closed = 1;
nodes = (
"200 0 LINE",
"300 0 LINE",
"300 200 LINE",
"200 200 LINE"
);
},
{
closed = 1;
nodes = (
"400 400 LINE",
"500 400 LINE",
"500 500 LINE",
"400 500 LINE"
);
},
{
closed = 1;
nodes = (
"600 600 LINE",
"700 600 LINE",
"700 700 LINE",
"600 700 LINE"
);
},
{
closed = 1;
nodes = (
"600 600 LINE",
"500 600 LINE",
"500 500 LINE",
"600 500 LINE"
);
},
{
closed = 1;
nodes = (
"400 700 LINE",
"500 700 LINE",
"500 800 LINE",
"400 800 LINE",
"400 900 LINE",
"300 900 LINE",
"300 800 LINE",
"400 800 LINE"
);
}
);
width = 700;
}
);
},
{
glyphname = Zcaron.ss01;
lastChange = "2021-04-30 16:08:47 +0000";
layers = (
{
layerId = "AA73B291-862F-432F-B5A8-6883F1AD5643";
paths = (
{
closed = 1;
nodes = (
"200 100 LINE",
"200 200 LINE",
"100 200 LINE",
"100 100 LINE",
"0 100 LINE",
"0 0 LINE",
"500 0 LINE",
"500 100 LINE"
);
},
{
closed = 1;
nodes = (
"600 500 LINE",
"600 600 LINE",
"700 600 LINE",
"700 700 LINE",
"200 700 LINE",
"200 600 LINE",
"500 600 LINE",
"500 500 LINE"
);
},
{
closed = 1;
nodes = (
"400 300 LINE",
"400 400 LINE",
"300 400 LINE",
"300 300 LINE"
);
},
{
closed = 1;
nodes = (
"200 200 LINE",
"300 200 LINE",
"300 300 LINE",
"200 300 LINE"
);
},
{
closed = 1;
nodes = (
"500 400 LINE",
"500 500 LINE",
"400 500 LINE",
"400 400 LINE"
);
},
{
closed = 1;
nodes = (
"600 800 LINE",
"600 900 LINE",
"500 900 LINE",
"500 1000 LINE",
"400 1000 LINE",
"400 900 LINE",
"500 900 LINE",
"500 800 LINE"
);
},
{
closed = 1;
nodes = (
"600 900 LINE",
"700 900 LINE",
"700 1000 LINE",
"600 1000 LINE"
);
}
);
width = 700;
}
);
},
{
glyphname = a;
lastChange = "2021-04-30 16:08:47 +0000";
layers = (
{
associatedMasterId = "AA73B291-862F-432F-B5A8-6883F1AD5643";
layerId = "71803AA8-9C84-4B24-AAA0-4CE8AE5B2104";
name = img;
width = 700;
},
{
associatedMasterId = "AA73B291-862F-432F-B5A8-6883F1AD5643";
layerId = "6AD711BC-4DE6-43D5-8846-39C02C009028";
name = public.background;
paths = (
{
closed = 1;
nodes = (
"200 0 LINE",
"200 100 LINE",
"200 300 LINE",
"100 300 LINE",
"100 100 LINE",
"200 100 LINE"
);
},
{
closed = 1;
nodes = (
"300 500 LINE",
"300 400 LINE"
);
},
{
closed = 1;
nodes = (
"300 300 LINE",
"300 400 LINE",
"200 400 LINE",
"200 300 LINE"
);
},
{
closed = 1;
nodes = (
"300 400 LINE",
"500 400 LINE",
"500 500 LINE",
"300 500 LINE"
);
},
{
closed = 1;
nodes = (
"200 0 LINE",
"400 0 LINE",
"400 100 LINE",
"200 100 LINE"
);
},
{
closed = 1;
nodes = (
"400 100 LINE",
"500 100 LINE",
"500 200 LINE",
"400 200 LINE"
);
},
{
closed = 1;
nodes = (
"500 200 LINE",
"600 200 LINE",
"600 400 LINE",
"500 400 LINE"
);
},
{
closed = 1;
nodes = (
"600 400 LINE",
"700 400 LINE",
"700 500 LINE",
"600 500 LINE"
);
},
{
closed = 1;
nodes = (
"500 0 LINE",
"600 0 LINE",
"600 100 LINE",
"500 100 LINE"
);
}
);
width = 700;
},
{
guideLines = (
{
angle = 90;
position = "{650, 0}";
},
{
angle = 90;
position = "{750, 0}";
}
);
layerId = "AA73B291-862F-432F-B5A8-6883F1AD5643";
paths = (
{
closed = 1;
nodes = (
"200 0 LINE",
"200 100 LINE",
"200 300 LINE",
"100 300 LINE",
"100 100 LINE",
"200 100 LINE"
);
},
{
closed = 1;
nodes = (
"300 500 LINE",
"300 400 LINE"
);
},
{
closed = 1;
nodes = (
"300 300 LINE",
"300 400 LINE",
"200 400 LINE",
"200 300 LINE"
);
},
{
closed = 1;
nodes = (
"300 400 LINE",
"500 400 LINE",
"500 500 LINE",
"300 500 LINE"
);
},
{
closed = 1;
nodes = (
"200 0 LINE",
"400 0 LINE",
"400 100 LINE",
"200 100 LINE"
);
},
{
closed = 1;
nodes = (
"400 100 LINE",
"500 100 LINE",
"500 200 LINE",
"400 200 LINE"
);
},
{
closed = 1;
nodes = (
"500 200 LINE",
"600 200 LINE",
"600 400 LINE",
"500 400 LINE"
);
},
{
closed = 1;
nodes = (
"600 400 LINE",
"700 400 LINE",
"700 500 LINE",
"600 500 LINE"
);
},
{
closed = 1;
nodes = (
"500 0 LINE",
"600 0 LINE",
"600 100 LINE",
"500 100 LINE"
);
}
);
width = 700;
}
);
unicode = 0061;
},
{
glyphname = aacute;
lastChange = "2021-04-30 16:08:47 +0000";
layers = (
{
associatedMasterId = "AA73B291-862F-432F-B5A8-6883F1AD5643";
layerId = "71803AA8-9C84-4B24-AAA0-4CE8AE5B2104";
name = img;
width = 700;
},
{
components = (
{
alignment = -1;
name = a;
transform = "{1, 0, 0, 1, -50, 0}";
}
);
layerId = "AA73B291-862F-432F-B5A8-6883F1AD5643";
paths = (
{
closed = 1;
nodes = (
"300 600 LINE",
"400 600 LINE",
"400 700 LINE",
"300 700 LINE"
);
},
{
closed = 1;
nodes = (
"400 700 LINE",
"500 700 LINE",
"500 800 LINE",
"400 800 LINE"
);
}
);
width = 700;
}
);
unicode = 00E1;
},
{
glyphname = acircumflex;
lastChange = "2021-04-30 16:08:47 +0000";
layers = (
{
associatedMasterId = "AA73B291-862F-432F-B5A8-6883F1AD5643";
layerId = "71803AA8-9C84-4B24-AAA0-4CE8AE5B2104";
name = img;
width = 700;
},
{
components = (
{
alignment = -1;
name = a;
transform = "{1, 0, 0, 1, -50, 0}";
}
);
layerId = "AA73B291-862F-432F-B5A8-6883F1AD5643";
paths = (
{
closed = 1;
nodes = (
"400 600 LINE",
"500 600 LINE",
"500 700 LINE",
"400 700 LINE",
"400 800 LINE",
"300 800 LINE",
"300 700 LINE",
"400 700 LINE"
);
},
{
closed = 1;
nodes = (
"200 600 LINE",
"300 600 LINE",
"300 700 LINE",
"200 700 LINE"
);
}
);
width = 700;
}
);
unicode = 00E2;
},
{
glyphname = adieresis;
lastChange = "2021-04-30 16:08:47 +0000";
layers = (
{
associatedMasterId = "AA73B291-862F-432F-B5A8-6883F1AD5643";
layerId = "71803AA8-9C84-4B24-AAA0-4CE8AE5B2104";
name = img;
width = 700;
},
{
components = (
{
alignment = -1;
name = a;
transform = "{1, 0, 0, 1, -50, 0}";
}
);
layerId = "AA73B291-862F-432F-B5A8-6883F1AD5643";
paths = (
{
closed = 1;
nodes = (
"300 600 LINE",
"400 600 LINE",
"400 700 LINE",
"300 700 LINE"
);
},
{
closed = 1;
nodes = (
"500 600 LINE",
"600 600 LINE",
"600 700 LINE",
"500 700 LINE"
);
}
);
width = 700;
}
);
unicode = 00E4;
},
{
glyphname = agrave;
lastChange = "2021-04-30 16:08:47 +0000";
layers = (
{
associatedMasterId = "AA73B291-862F-432F-B5A8-6883F1AD5643";
layerId = "71803AA8-9C84-4B24-AAA0-4CE8AE5B2104";
name = img;
width = 700;
},
{
components = (
{
alignment = -1;
name = a;
transform = "{1, 0, 0, 1, -50, 0}";
}
);
layerId = "AA73B291-862F-432F-B5A8-6883F1AD5643";
paths = (
{
closed = 1;
nodes = (
"400 600 LINE",
"500 600 LINE",
"500 700 LINE",
"400 700 LINE",
"400 800 LINE",
"300 800 LINE",
"300 700 LINE",
"400 700 LINE"
);
}
);
width = 700;
}
);
unicode = 00E0;
},
{
glyphname = aring;
lastChange = "2021-04-30 16:08:47 +0000";
layers = (
{
associatedMasterId = "AA73B291-862F-432F-B5A8-6883F1AD5643";
layerId = "71803AA8-9C84-4B24-AAA0-4CE8AE5B2104";
name = img;
width = 700;
},
{
components = (
{
alignment = -1;
name = a;
}
);
layerId = "AA73B291-862F-432F-B5A8-6883F1AD5643";
paths = (
{
closed = 1;
nodes = (
"500 500 LINE",
"600 500 LINE",
"600 600 LINE",
"500 600 LINE",
"500 700 LINE",
"400 700 LINE",
"400 600 LINE",
"500 600 LINE"
);
},
{
closed = 1;
nodes = (
"600 600 LINE",
"700 600 LINE",
"700 700 LINE",
"600 700 LINE",
"600 800 LINE",
"500 800 LINE",
"500 700 LINE",
"600 700 LINE"
);
}
);
width = 700;
}
);
unicode = 00E5;
},
{
glyphname = atilde;
lastChange = "2021-04-30 16:08:47 +0000";
layers = (
{
associatedMasterId = "AA73B291-862F-432F-B5A8-6883F1AD5643";
layerId = "71803AA8-9C84-4B24-AAA0-4CE8AE5B2104";
name = img;
width = 700;
},
{
components = (
{
alignment = -1;
name = a;
transform = "{1, 0, 0, 1, -50, 0}";
}
);
layerId = "AA73B291-862F-432F-B5A8-6883F1AD5643";
paths = (
{
closed = 1;
nodes = (
"400 600 LINE",
"500 600 LINE",
"500 700 LINE",
"400 700 LINE",
"400 800 LINE",
"300 800 LINE",
"300 700 LINE",
"400 700 LINE"
);
},
{
closed = 1;
nodes = (
"500 700 LINE",
"600 700 LINE",
"600 800 LINE",
"500 800 LINE"
);
},
{
closed = 1;
nodes = (
"200 600 LINE",
"300 600 LINE",
"300 700 LINE",
"200 700 LINE"
);
}
);
width = 700;
}
);
unicode = 00E3;
},
{
glyphname = ae;
lastChange = "2021-04-30 16:08:47 +0000";
layers = (
{
associatedMasterId = "AA73B291-862F-432F-B5A8-6883F1AD5643";
layerId = "71803AA8-9C84-4B24-AAA0-4CE8AE5B2104";
name = img;
width = 700;
},
{
layerId = "AA73B291-862F-432F-B5A8-6883F1AD5643";
paths = (
{
closed = 1;
nodes = (
"300 400 LINE",
"300 300 LINE",
"100 300 LINE",
"100 200 LINE",
"200 200 LINE",
"200 100 LINE",
"300 100 LINE",
"300 0 LINE",
"500 0 LINE",
"500 100 LINE",
"300 100 LINE",
"300 200 LINE",
"500 200 LINE",
"500 300 LINE",
"400 300 LINE",
"400 400 LINE"
);
},
{
closed = 1;
nodes = (
"500 300 LINE",
"600 300 LINE",
"600 400 LINE",
"500 400 LINE",
"500 500 LINE",
"400 500 LINE",
"400 400 LINE",
"500 400 LINE"
);
},
{
closed = 1;
nodes = (
"0 200 LINE",
"0 100 LINE",
"100 100 LINE",
"100 0 LINE",
"200 0 LINE",
"200 100 LINE",
"100 100 LINE",
"100 200 LINE"
);
},
{
closed = 1;
nodes = (
"300 400 LINE",
"300 500 LINE",
"100 500 LINE",
"100 400 LINE"
);
}
);
width = 700;
}
);
unicode = 00E6;
},
{
glyphname = b;
lastChange = "2021-04-30 16:08:47 +0000";
layers = (
{
associatedMasterId = "AA73B291-862F-432F-B5A8-6883F1AD5643";
layerId = "71803AA8-9C84-4B24-AAA0-4CE8AE5B2104";
name = img;
width = 700;
},
{
associatedMasterId = "AA73B291-862F-432F-B5A8-6883F1AD5643";
layerId = "6AD711BC-4DE6-43D5-8846-39C02C009028";
name = public.background;
paths = (
{
closed = 1;
nodes = (
"500 200 LINE",
"600 200 LINE",
"600 400 LINE",
"500 400 LINE",
"500 500 LINE",
"300 500 LINE",
"300 600 LINE",
"200 600 LINE",
"200 300 LINE",
"300 300 LINE",
"300 400 LINE",
"500 400 LINE"
);
},
{
closed = 1;
nodes = (
"200 0 LINE",
"400 0 LINE",
"400 100 LINE",
"200 100 LINE",
"200 300 LINE",
"100 300 LINE",
"100 100 LINE",
"200 100 LINE"
);
},
{
closed = 1;
nodes = (
"400 100 LINE",
"500 100 LINE",
"500 200 LINE",
"400 200 LINE"
);
},
{
closed = 1;
nodes = (
"300 600 LINE",
"400 600 LINE",
"400 700 LINE",
"300 700 LINE"
);
}
);
width = 700;
},
{
guideLines = (
{
angle = 90;
position = "{800, 0}";
}
);
layerId = "AA73B291-862F-432F-B5A8-6883F1AD5643";
paths = (
{
closed = 1;
nodes = (
"500 200 LINE",
"600 200 LINE",
"600 400 LINE",
"500 400 LINE",
"500 500 LINE",
"300 500 LINE",
"300 600 LINE",
"200 600 LINE",
"200 300 LINE",
"300 300 LINE",
"300 400 LINE",
"500 400 LINE"
);
},
{
closed = 1;
nodes = (
"200 0 LINE",
"400 0 LINE",
"400 100 LINE",
"200 100 LINE",
"200 300 LINE",
"100 300 LINE",
"100 100 LINE",
"200 100 LINE"
);
},
{
closed = 1;
nodes = (
"400 100 LINE",
"500 100 LINE",
"500 200 LINE",
"400 200 LINE"
);
},
{
closed = 1;
nodes = (
"300 600 LINE",
"400 600 LINE",
"400 700 LINE",
"300 700 LINE"
);
}
);
width = 700;
}
);
unicode = 0062;
},
{
glyphname = c;
lastChange = "2021-04-30 16:08:47 +0000";
layers = (
{
associatedMasterId = "AA73B291-862F-432F-B5A8-6883F1AD5643";
layerId = "71803AA8-9C84-4B24-AAA0-4CE8AE5B2104";
name = img;
width = 700;
},
{
associatedMasterId = "AA73B291-862F-432F-B5A8-6883F1AD5643";
layerId = "6AD711BC-4DE6-43D5-8846-39C02C009028";
name = public.background;
paths = (
{
closed = 1;
nodes = (
"500 400 LINE",
"500 500 LINE",
"300 500 LINE",
"300 400 LINE",
"500 400 LINE",
"500 300 LINE",
"600 300 LINE",
"600 400 LINE"
);
},
{
closed = 1;
nodes = (
"200 100 LINE",
"200 300 LINE",
"100 300 LINE",
"100 100 LINE"
);
},
{
closed = 1;
nodes = (
"200 0 LINE",
"400 0 LINE",
"400 100 LINE",
"200 100 LINE"
);
},
{
closed = 1;
nodes = (
"300 300 LINE",
"300 400 LINE",
"200 400 LINE",
"200 300 LINE"
);
},
{
closed = 1;
nodes = (
"400 100 LINE",
"500 100 LINE",
"500 200 LINE",
"400 200 LINE"
);
}
);
width = 700;
},
{
guideLines = (
{
angle = 90;
position = "{800, 0}";
}
);
layerId = "AA73B291-862F-432F-B5A8-6883F1AD5643";
paths = (
{
closed = 1;
nodes = (
"500 400 LINE",
"500 500 LINE",
"300 500 LINE",
"300 400 LINE",
"500 400 LINE",
"500 300 LINE",
"600 300 LINE",
"600 400 LINE"
);
},
{
closed = 1;
nodes = (
"200 100 LINE",
"200 300 LINE",
"100 300 LINE",
"100 100 LINE"
);
},
{
closed = 1;
nodes = (
"200 0 LINE",
"400 0 LINE",
"400 100 LINE",
"200 100 LINE"
);
},
{
closed = 1;
nodes = (
"300 300 LINE",
"300 400 LINE",
"200 400 LINE",
"200 300 LINE"
);
},
{
closed = 1;
nodes = (
"400 100 LINE",
"500 100 LINE",
"500 200 LINE",
"400 200 LINE"
);
}
);
width = 700;
}
);
unicode = 0063;
},
{
glyphname = ccedilla;
lastChange = "2021-04-30 16:08:47 +0000";
layers = (
{
associatedMasterId = "AA73B291-862F-432F-B5A8-6883F1AD5643";
layerId = "71803AA8-9C84-4B24-AAA0-4CE8AE5B2104";
name = img;
width = 700;
},
{
components = (
{
alignment = -1;
name = c;
}
);
layerId = "AA73B291-862F-432F-B5A8-6883F1AD5643";
paths = (
{
closed = 1;
nodes = (
"200 -100 LINE",
"300 -100 LINE",
"300 0 LINE",
"200 0 LINE"
);
},
{
closed = 1;
nodes = (
"100 -200 LINE",
"200 -200 LINE",
"200 -100 LINE",
"100 -100 LINE"
);
}
);
width = 700;
}
);
unicode = 00E7;
},
{
glyphname = d;
lastChange = "2021-04-30 16:08:47 +0000";
layers = (
{
associatedMasterId = "AA73B291-862F-432F-B5A8-6883F1AD5643";
layerId = "71803AA8-9C84-4B24-AAA0-4CE8AE5B2104";
name = img;
width = 700;
},
{
guideLines = (
{
angle = 90;
position = "{800, 0}";
}
);
layerId = "AA73B291-862F-432F-B5A8-6883F1AD5643";
paths = (
{
closed = 1;
nodes = (
"400 0 LINE",
"400 100 LINE",
"200 100 LINE",
"200 300 LINE",
"100 300 LINE",
"100 100 LINE",
"200 100 LINE",
"200 0 LINE"
);
},
{
closed = 1;
nodes = (
"700 400 LINE",
"700 700 LINE",
"600 700 LINE",
"600 400 LINE"
);
},
{
closed = 1;
nodes = (
"500 400 LINE",
"500 200 LINE",
"600 200 LINE",
"600 400 LINE"
);
},
{
closed = 1;
nodes = (
"500 400 LINE",
"500 500 LINE",
"300 500 LINE",
"300 400 LINE"
);
},
{
closed = 1;
nodes = (
"500 100 LINE",
"500 0 LINE",
"600 0 LINE",
"600 100 LINE"
);
},
{
closed = 1;
nodes = (
"500 100 LINE",
"500 200 LINE",
"400 200 LINE",
"400 100 LINE"
);
},
{
closed = 1;
nodes = (
"200 300 LINE",
"300 300 LINE",
"300 400 LINE",
"200 400 LINE"
);
}
);
width = 700;
}
);
unicode = 0064;
},
{
glyphname = e;
lastChange = "2021-04-30 16:08:47 +0000";
layers = (
{
associatedMasterId = "AA73B291-862F-432F-B5A8-6883F1AD5643";
layerId = "71803AA8-9C84-4B24-AAA0-4CE8AE5B2104";
name = img;
width = 700;
},
{
associatedMasterId = "AA73B291-862F-432F-B5A8-6883F1AD5643";
layerId = "6AD711BC-4DE6-43D5-8846-39C02C009028";
name = public.background;
paths = (
{
closed = 1;
nodes = (
"400 0 LINE",
"400 100 LINE",
"200 100 LINE",
"200 200 LINE",
"500 200 LINE",
"500 300 LINE",
"300 300 LINE",
"300 400 LINE",
"200 400 LINE",
"200 300 LINE",
"100 300 LINE",
"100 100 LINE",
"200 100 LINE",
"200 0 LINE"
);
},
{
closed = 1;
nodes = (
"500 300 LINE",
"600 300 LINE",
"600 400 LINE",
"500 400 LINE",
"500 500 LINE",
"300 500 LINE",
"300 400 LINE",
"500 400 LINE"
);
}
);
width = 700;
},
{
guideLines = (
{
angle = 90;
position = "{800, 0}";
}
);
layerId = "AA73B291-862F-432F-B5A8-6883F1AD5643";
paths = (
{
closed = 1;
nodes = (
"400 0 LINE",
"400 100 LINE",
"200 100 LINE",
"200 200 LINE",
"500 200 LINE",
"500 300 LINE",
"300 300 LINE",
"300 400 LINE",
"200 400 LINE",
"200 300 LINE",
"100 300 LINE",
"100 100 LINE",
"200 100 LINE",
"200 0 LINE"
);
},
{
closed = 1;
nodes = (
"500 300 LINE",
"600 300 LINE",
"600 400 LINE",
"500 400 LINE",
"500 500 LINE",
"300 500 LINE",
"300 400 LINE",
"500 400 LINE"
);
}
);
width = 700;
}
);
unicode = 0065;
},
{
glyphname = eacute;
lastChange = "2021-04-30 16:08:47 +0000";
layers = (
{
associatedMasterId = "AA73B291-862F-432F-B5A8-6883F1AD5643";
layerId = "71803AA8-9C84-4B24-AAA0-4CE8AE5B2104";
name = img;
width = 800;
},
{
components = (
{
alignment = -1;
name = e;
}
);
layerId = "AA73B291-862F-432F-B5A8-6883F1AD5643";
paths = (
{
closed = 1;
nodes = (
"400 600 LINE",
"500 600 LINE",
"500 700 LINE",
"400 700 LINE"
);
},
{
closed = 1;
nodes = (
"500 700 LINE",
"600 700 LINE",
"600 800 LINE",
"500 800 LINE"
);
}
);
width = 800;
}
);
unicode = 00E9;
},
{
glyphname = ecircumflex;
lastChange = "2021-04-30 16:08:47 +0000";
layers = (
{
associatedMasterId = "AA73B291-862F-432F-B5A8-6883F1AD5643";
layerId = "71803AA8-9C84-4B24-AAA0-4CE8AE5B2104";
name = img;
width = 800;
},
{
components = (
{
alignment = -1;
name = e;
}
);
layerId = "AA73B291-862F-432F-B5A8-6883F1AD5643";
paths = (
{
closed = 1;
nodes = (
"500 600 LINE",
"600 600 LINE",
"600 700 LINE",
"500 700 LINE",
"500 800 LINE",
"400 800 LINE",
"400 700 LINE",
"500 700 LINE"
);
},
{
closed = 1;
nodes = (
"300 600 LINE",
"400 600 LINE",
"400 700 LINE",
"300 700 LINE"
);
}
);
width = 800;
}
);
unicode = 00EA;
},
{
glyphname = edieresis;
lastChange = "2021-04-30 16:08:47 +0000";
layers = (
{
associatedMasterId = "AA73B291-862F-432F-B5A8-6883F1AD5643";
layerId = "71803AA8-9C84-4B24-AAA0-4CE8AE5B2104";
name = img;
width = 800;
},
{
components = (
{
alignment = -1;
name = e;
}
);
layerId = "AA73B291-862F-432F-B5A8-6883F1AD5643";
paths = (
{
closed = 1;
nodes = (
"300 600 LINE",
"400 600 LINE",
"400 700 LINE",
"300 700 LINE"
);
},
{
closed = 1;
nodes = (
"500 600 LINE",
"600 600 LINE",
"600 700 LINE",
"500 700 LINE"
);
}
);
width = 800;
}
);
unicode = 00EB;
},
{
glyphname = egrave;
lastChange = "2021-04-30 16:08:47 +0000";
layers = (
{
associatedMasterId = "AA73B291-862F-432F-B5A8-6883F1AD5643";
layerId = "71803AA8-9C84-4B24-AAA0-4CE8AE5B2104";
name = img;
width = 800;
},
{
components = (
{
alignment = -1;
name = e;
}
);
layerId = "AA73B291-862F-432F-B5A8-6883F1AD5643";
paths = (
{
closed = 1;
nodes = (
"400 600 LINE",
"500 600 LINE",
"500 700 LINE",
"400 700 LINE",
"400 800 LINE",
"300 800 LINE",
"300 700 LINE",
"400 700 LINE"
);
}
);
width = 800;
}
);
unicode = 00E8;
},
{
glyphname = f;
lastChange = "2021-04-30 16:08:47 +0000";
layers = (
{
associatedMasterId = "AA73B291-862F-432F-B5A8-6883F1AD5643";
layerId = "71803AA8-9C84-4B24-AAA0-4CE8AE5B2104";
name = img;
width = 700;
},
{
associatedMasterId = "AA73B291-862F-432F-B5A8-6883F1AD5643";
layerId = "6AD711BC-4DE6-43D5-8846-39C02C009028";
name = public.background;
paths = (
{
closed = 1;
nodes = (
"400 400 LINE",
"400 600 LINE",
"300 600 LINE",
"300 400 LINE",
"200 400 LINE",
"200 200 LINE",
"300 200 LINE",
"300 300 LINE",
"500 300 LINE",
"500 400 LINE"
);
},
{
closed = 1;
nodes = (
"600 500 LINE",
"700 500 LINE",
"700 600 LINE",
"600 600 LINE",
"600 700 LINE",
"400 700 LINE",
"400 600 LINE",
"600 600 LINE"
);
},
{
closed = 1;
nodes = (
"200 0 LINE",
"200 200 LINE",
"100 200 LINE",
"100 0 LINE"
);
}
);
width = 700;
},
{
guideLines = (
{
angle = 90;
position = "{800, 0}";
}
);
layerId = "AA73B291-862F-432F-B5A8-6883F1AD5643";
paths = (
{
closed = 1;
nodes = (
"400 300 LINE",
"600 300 LINE",
"600 400 LINE",
"500 400 LINE",
"500 600 LINE",
"400 600 LINE",
"400 400 LINE",
"200 400 LINE",
"200 300 LINE",
"300 300 LINE",
"300 100 LINE",
"400 100 LINE"
);
},
{
closed = 1;
nodes = (
"500 600 LINE",
"700 600 LINE",
"700 700 LINE",
"500 700 LINE"
);
},
{
closed = 1;
nodes = (
"0 -200 LINE",
"200 -200 LINE",
"200 -100 LINE",
"0 -100 LINE"
);
},
{
closed = 1;
nodes = (
"200 -100 LINE",
"300 -100 LINE",
"300 100 LINE",
"200 100 LINE"
);
}
);
width = 700;
}
);
unicode = 0066;
},
{
glyphname = g;
lastChange = "2021-04-30 16:08:47 +0000";
layers = (
{
associatedMasterId = "AA73B291-862F-432F-B5A8-6883F1AD5643";
layerId = "71803AA8-9C84-4B24-AAA0-4CE8AE5B2104";
name = img;
width = 700;
},
{
associatedMasterId = "AA73B291-862F-432F-B5A8-6883F1AD5643";
layerId = "6AD711BC-4DE6-43D5-8846-39C02C009028";
name = public.background;
paths = (
{
closed = 1;
nodes = (
"400 0 LINE",
"400 100 LINE",
"200 100 LINE",
"200 300 LINE",
"100 300 LINE",
"100 100 LINE",
"200 100 LINE",
"200 0 LINE"
);
},
{
closed = 1;
nodes = (
"100 -200 LINE",
"300 -200 LINE",
"300 -100 LINE",
"100 -100 LINE",
"100 0 LINE",
"0 0 LINE",
"0 -100 LINE",
"100 -100 LINE"
);
},
{
closed = 1;
nodes = (
"500 0 LINE",
"500 200 LINE",
"400 200 LINE",
"400 100 LINE",
"400 0 LINE"
);
},
{
closed = 1;
nodes = (
"500 400 LINE",
"500 500 LINE",
"300 500 LINE",
"300 400 LINE"
);
},
{
closed = 1;
nodes = (
"500 400 LINE",
"500 200 LINE",
"600 200 LINE",
"600 400 LINE"
);
},
{
closed = 1;
nodes = (
"200 300 LINE",
"300 300 LINE",
"300 400 LINE",
"200 400 LINE"
);
},
{
closed = 1;
nodes = (
"300 -100 LINE",
"400 -100 LINE",
"400 0 LINE",
"300 0 LINE"
);
},
{
closed = 1;
nodes = (
"600 400 LINE",
"700 400 LINE",
"700 500 LINE",
"600 500 LINE"
);
}
);
width = 700;
},
{
guideLines = (
{
angle = 90;
position = "{800, 0}";
}
);
layerId = "AA73B291-862F-432F-B5A8-6883F1AD5643";
paths = (
{
closed = 1;
nodes = (
"300 -100 LINE",
"400 -100 LINE",
"400 0 LINE",
"500 0 LINE",
"500 200 LINE",
"400 200 LINE",
"400 100 LINE",
"200 100 LINE",
"200 300 LINE",
"100 300 LINE",
"100 100 LINE",
"200 100 LINE",
"200 0 LINE",
"300 0 LINE"
);
},
{
closed = 1;
nodes = (
"100 -200 LINE",
"300 -200 LINE",
"300 -100 LINE",
"100 -100 LINE",
"100 0 LINE",
"0 0 LINE",
"0 -100 LINE",
"100 -100 LINE"
);
},
{
closed = 1;
nodes = (
"500 400 LINE",
"500 200 LINE",
"600 200 LINE",
"600 400 LINE"
);
},
{
closed = 1;
nodes = (
"500 400 LINE",
"500 500 LINE",
"300 500 LINE",
"300 400 LINE"
);
},
{
closed = 1;
nodes = (
"600 400 LINE",
"700 400 LINE",
"700 500 LINE",
"600 500 LINE"
);
},
{
closed = 1;
nodes = (
"200 300 LINE",
"300 300 LINE",
"300 400 LINE",
"200 400 LINE"
);
}
);
width = 700;
}
);
unicode = 0067;
},
{
glyphname = h;
lastChange = "2021-04-30 16:08:47 +0000";
layers = (
{
associatedMasterId = "AA73B291-862F-432F-B5A8-6883F1AD5643";
layerId = "71803AA8-9C84-4B24-AAA0-4CE8AE5B2104";
name = img;
width = 700;
},
{
associatedMasterId = "AA73B291-862F-432F-B5A8-6883F1AD5643";
layerId = "6AD711BC-4DE6-43D5-8846-39C02C009028";
name = public.background;
paths = (
{
closed = 1;
nodes = (
"200 200 LINE",
"300 200 LINE",
"300 300 LINE",
"400 300 LINE",
"400 400 LINE",
"300 400 LINE",
"300 600 LINE",
"200 600 LINE"
);
},
{
closed = 1;
nodes = (
"500 200 LINE",
"600 200 LINE",
"600 400 LINE",
"500 400 LINE",
"500 500 LINE",
"400 500 LINE",
"400 400 LINE",
"500 400 LINE"
);
},
{
closed = 1;
nodes = (
"400 0 LINE",
"500 0 LINE",
"500 200 LINE",
"400 200 LINE"
);
},
{
closed = 1;
nodes = (
"100 0 LINE",
"200 0 LINE",
"200 200 LINE",
"100 200 LINE"
);
},
{
closed = 1;
nodes = (
"300 600 LINE",
"400 600 LINE",
"400 700 LINE",
"300 700 LINE"
);
}
);
width = 700;
},
{
guideLines = (
{
angle = 90;
position = "{749, 0}";
}
);
layerId = "AA73B291-862F-432F-B5A8-6883F1AD5643";
paths = (
{
closed = 1;
nodes = (
"200 200 LINE",
"300 200 LINE",
"300 300 LINE",
"400 300 LINE",
"400 400 LINE",
"300 400 LINE",
"300 600 LINE",
"200 600 LINE"
);
},
{
closed = 1;
nodes = (
"500 200 LINE",
"600 200 LINE",
"600 400 LINE",
"500 400 LINE",
"500 500 LINE",
"400 500 LINE",
"400 400 LINE",
"500 400 LINE"
);
},
{
closed = 1;
nodes = (
"400 0 LINE",
"500 0 LINE",
"500 200 LINE",
"400 200 LINE"
);
},
{
closed = 1;
nodes = (
"100 0 LINE",
"200 0 LINE",
"200 200 LINE",
"100 200 LINE"
);
},
{
closed = 1;
nodes = (
"300 600 LINE",
"400 600 LINE",
"400 700 LINE",
"300 700 LINE"
);
}
);
width = 700;
}
);
unicode = 0068;
},
{
glyphname = i;
lastChange = "2021-04-30 16:08:47 +0000";
layers = (
{
associatedMasterId = "AA73B291-862F-432F-B5A8-6883F1AD5643";
layerId = "71803AA8-9C84-4B24-AAA0-4CE8AE5B2104";
name = img;
width = 700;
},
{
associatedMasterId = "AA73B291-862F-432F-B5A8-6883F1AD5643";
layerId = "6AD711BC-4DE6-43D5-8846-39C02C009028";
name = public.background;
paths = (
{
closed = 1;
nodes = (
"400 0 LINE",
"400 100 LINE",
"300 100 LINE",
"300 200 LINE",
"200 200 LINE",
"200 0 LINE"
);
},
{
closed = 1;
nodes = (
"300 400 LINE",
"400 400 LINE",
"400 300 LINE",
"500 300 LINE",
"500 500 LINE",
"300 500 LINE"
);
},
{
closed = 1;
nodes = (
"400 300 LINE",
"300 300 LINE",
"300 200 LINE",
"400 200 LINE",
"400 100 LINE",
"500 100 LINE",
"500 200 LINE",
"400 200 LINE"
);
},
{
closed = 1;
nodes = (
"500 600 LINE",
"600 600 LINE",
"600 700 LINE",
"500 700 LINE"
);
},
{
closed = 1;
nodes = (
"200 0 LINE",
"400 0 LINE",
"400 100 LINE",
"300 100 LINE",
"300 200 LINE",
"200 200 LINE"
);
},
{
closed = 1;
nodes = (
"400 400 LINE",
"400 300 LINE",
"500 300 LINE",
"500 500 LINE",
"300 500 LINE",
"300 400 LINE"
);
},
{
closed = 1;
nodes = (
"400 100 LINE",
"500 100 LINE",
"500 200 LINE",
"400 200 LINE",
"400 300 LINE",
"300 300 LINE",
"300 200 LINE",
"400 200 LINE"
);
},
{
closed = 1;
nodes = (
"500 600 LINE",
"600 600 LINE",
"600 700 LINE",
"500 700 LINE"
);
}
);
width = 700;
},
{
guideLines = (
{
angle = 90;
position = "{800, 0}";
}
);
layerId = "AA73B291-862F-432F-B5A8-6883F1AD5643";
paths = (
{
closed = 1;
nodes = (
"200 0 LINE",
"400 0 LINE",
"400 100 LINE",
"300 100 LINE",
"300 200 LINE",
"200 200 LINE"
);
},
{
closed = 1;
nodes = (
"400 400 LINE",
"400 300 LINE",
"500 300 LINE",
"500 500 LINE",
"300 500 LINE",
"300 400 LINE"
);
},
{
closed = 1;
nodes = (
"400 100 LINE",
"500 100 LINE",
"500 200 LINE",
"400 200 LINE",
"400 300 LINE",
"300 300 LINE",
"300 200 LINE",
"400 200 LINE"
);
},
{
closed = 1;
nodes = (
"500 600 LINE",
"600 600 LINE",
"600 700 LINE",
"500 700 LINE"
);
}
);
width = 700;
}
);
unicode = 0069;
},
{
glyphname = dotlessi;
lastChange = "2021-04-30 16:08:47 +0000";
layers = (
{
associatedMasterId = "AA73B291-862F-432F-B5A8-6883F1AD5643";
layerId = "71803AA8-9C84-4B24-AAA0-4CE8AE5B2104";
name = img;
width = 700;
},
{
layerId = "AA73B291-862F-432F-B5A8-6883F1AD5643";
paths = (
{
closed = 1;
nodes = (
"200 0 LINE",
"400 0 LINE",
"400 100 LINE",
"300 100 LINE",
"300 200 LINE",
"200 200 LINE"
);
},
{
closed = 1;
nodes = (
"400 400 LINE",
"400 300 LINE",
"500 300 LINE",
"500 500 LINE",
"300 500 LINE",
"300 400 LINE"
);
},
{
closed = 1;
nodes = (
"400 100 LINE",
"500 100 LINE",
"500 200 LINE",
"400 200 LINE",
"400 300 LINE",
"300 300 LINE",
"300 200 LINE",
"400 200 LINE"
);
}
);
width = 700;
}
);
unicode = 0131;
},
{
glyphname = iacute;
lastChange = "2021-04-30 16:08:47 +0000";
layers = (
{
associatedMasterId = "AA73B291-862F-432F-B5A8-6883F1AD5643";
layerId = "71803AA8-9C84-4B24-AAA0-4CE8AE5B2104";
name = img;
width = 800;
},
{
layerId = "AA73B291-862F-432F-B5A8-6883F1AD5643";
paths = (
{
closed = 1;
nodes = (
"500 600 LINE",
"600 600 LINE",
"600 700 LINE",
"500 700 LINE"
);
},
{
closed = 1;
nodes = (
"600 700 LINE",
"700 700 LINE",
"700 800 LINE",
"600 800 LINE"
);
},
{
closed = 1;
nodes = (
"200 0 LINE",
"400 0 LINE",
"400 100 LINE",
"300 100 LINE",
"300 200 LINE",
"200 200 LINE"
);
},
{
closed = 1;
nodes = (
"400 400 LINE",
"400 300 LINE",
"500 300 LINE",
"500 500 LINE",
"300 500 LINE",
"300 400 LINE"
);
},
{
closed = 1;
nodes = (
"400 100 LINE",
"500 100 LINE",
"500 200 LINE",
"400 200 LINE",
"400 300 LINE",
"300 300 LINE",
"300 200 LINE",
"400 200 LINE"
);
}
);
width = 800;
}
);
unicode = 00ED;
},
{
glyphname = icircumflex;
lastChange = "2021-04-30 16:08:47 +0000";
layers = (
{
associatedMasterId = "AA73B291-862F-432F-B5A8-6883F1AD5643";
layerId = "71803AA8-9C84-4B24-AAA0-4CE8AE5B2104";
name = img;
width = 800;
},
{
layerId = "AA73B291-862F-432F-B5A8-6883F1AD5643";
paths = (
{
closed = 1;
nodes = (
"400 700 LINE",
"500 700 LINE",
"500 600 LINE",
"600 600 LINE",
"600 700 LINE",
"500 700 LINE",
"500 800 LINE",
"400 800 LINE"
);
},
{
closed = 1;
nodes = (
"300 600 LINE",
"400 600 LINE",
"400 700 LINE",
"300 700 LINE"
);
},
{
closed = 1;
nodes = (
"200 0 LINE",
"400 0 LINE",
"400 100 LINE",
"300 100 LINE",
"300 200 LINE",
"200 200 LINE"
);
},
{
closed = 1;
nodes = (
"400 400 LINE",
"400 300 LINE",
"500 300 LINE",
"500 500 LINE",
"300 500 LINE",
"300 400 LINE"
);
},
{
closed = 1;
nodes = (
"400 100 LINE",
"500 100 LINE",
"500 200 LINE",
"400 200 LINE",
"400 300 LINE",
"300 300 LINE",
"300 200 LINE",
"400 200 LINE"
);
}
);
width = 800;
}
);
unicode = 00EE;
},
{
glyphname = idieresis;
lastChange = "2021-04-30 16:08:47 +0000";
layers = (
{
associatedMasterId = "AA73B291-862F-432F-B5A8-6883F1AD5643";
layerId = "71803AA8-9C84-4B24-AAA0-4CE8AE5B2104";
name = img;
width = 800;
},
{
layerId = "AA73B291-862F-432F-B5A8-6883F1AD5643";
paths = (
{
closed = 1;
nodes = (
"500 600 LINE",
"600 600 LINE",
"600 700 LINE",
"500 700 LINE"
);
},
{
closed = 1;
nodes = (
"300 600 LINE",
"400 600 LINE",
"400 700 LINE",
"300 700 LINE"
);
},
{
closed = 1;
nodes = (
"200 0 LINE",
"400 0 LINE",
"400 100 LINE",
"300 100 LINE",
"300 200 LINE",
"200 200 LINE"
);
},
{
closed = 1;
nodes = (
"400 400 LINE",
"400 300 LINE",
"500 300 LINE",
"500 500 LINE",
"300 500 LINE",
"300 400 LINE"
);
},
{
closed = 1;
nodes = (
"400 100 LINE",
"500 100 LINE",
"500 200 LINE",
"400 200 LINE",
"400 300 LINE",
"300 300 LINE",
"300 200 LINE",
"400 200 LINE"
);
}
);
width = 800;
}
);
unicode = 00EF;
},
{
glyphname = igrave;
lastChange = "2021-04-30 16:08:47 +0000";
layers = (
{
associatedMasterId = "AA73B291-862F-432F-B5A8-6883F1AD5643";
layerId = "71803AA8-9C84-4B24-AAA0-4CE8AE5B2104";
name = img;
width = 800;
},
{
layerId = "AA73B291-862F-432F-B5A8-6883F1AD5643";
paths = (
{
closed = 1;
nodes = (
"400 700 LINE",
"500 700 LINE",
"500 600 LINE",
"600 600 LINE",
"600 700 LINE",
"500 700 LINE",
"500 800 LINE",
"400 800 LINE"
);
},
{
closed = 1;
nodes = (
"200 0 LINE",
"400 0 LINE",
"400 100 LINE",
"300 100 LINE",
"300 200 LINE",
"200 200 LINE"
);
},
{
closed = 1;
nodes = (
"400 400 LINE",
"400 300 LINE",
"500 300 LINE",
"500 500 LINE",
"300 500 LINE",
"300 400 LINE"
);
},
{
closed = 1;
nodes = (
"400 100 LINE",
"500 100 LINE",
"500 200 LINE",
"400 200 LINE",
"400 300 LINE",
"300 300 LINE",
"300 200 LINE",
"400 200 LINE"
);
}
);
width = 800;
}
);
unicode = 00EC;
},
{
glyphname = j;
lastChange = "2021-04-30 16:08:47 +0000";
layers = (
{
associatedMasterId = "AA73B291-862F-432F-B5A8-6883F1AD5643";
layerId = "71803AA8-9C84-4B24-AAA0-4CE8AE5B2104";
name = img;
width = 700;
},
{
associatedMasterId = "AA73B291-862F-432F-B5A8-6883F1AD5643";
layerId = "6AD711BC-4DE6-43D5-8846-39C02C009028";
name = public.background;
paths = (
{
closed = 1;
nodes = (
"300 400 LINE",
"400 400 LINE",
"400 300 LINE",
"500 300 LINE",
"500 500 LINE",
"300 500 LINE"
);
},
{
closed = 1;
nodes = (
"0 -200 LINE",
"200 -200 LINE",
"200 -100 LINE",
"0 -100 LINE"
);
},
{
closed = 1;
nodes = (
"200 -100 LINE",
"300 -100 LINE",
"300 100 LINE",
"200 100 LINE"
);
},
{
closed = 1;
nodes = (
"300 100 LINE",
"400 100 LINE",
"400 300 LINE",
"300 300 LINE"
);
},
{
closed = 1;
nodes = (
"500 600 LINE",
"600 600 LINE",
"600 700 LINE",
"500 700 LINE"
);
}
);
width = 700;
},
{
guideLines = (
{
angle = 90;
position = "{800, 0}";
}
);
layerId = "AA73B291-862F-432F-B5A8-6883F1AD5643";
paths = (
{
closed = 1;
nodes = (
"300 400 LINE",
"400 400 LINE",
"400 300 LINE",
"500 300 LINE",
"500 500 LINE",
"300 500 LINE"
);
},
{
closed = 1;
nodes = (
"0 -200 LINE",
"200 -200 LINE",
"200 -100 LINE",
"0 -100 LINE"
);
},
{
closed = 1;
nodes = (
"200 -100 LINE",
"300 -100 LINE",
"300 100 LINE",
"200 100 LINE"
);
},
{
closed = 1;
nodes = (
"300 100 LINE",
"400 100 LINE",
"400 300 LINE",
"300 300 LINE"
);
},
{
closed = 1;
nodes = (
"500 600 LINE",
"600 600 LINE",
"600 700 LINE",
"500 700 LINE"
);
}
);
width = 700;
}
);
unicode = 006A;
},
{
glyphname = k;
lastChange = "2021-04-30 16:08:47 +0000";
layers = (
{
associatedMasterId = "AA73B291-862F-432F-B5A8-6883F1AD5643";
layerId = "71803AA8-9C84-4B24-AAA0-4CE8AE5B2104";
name = img;
width = 700;
},
{
associatedMasterId = "AA73B291-862F-432F-B5A8-6883F1AD5643";
layerId = "6AD711BC-4DE6-43D5-8846-39C02C009028";
name = public.background;
paths = (
{
closed = 1;
nodes = (
"400 400 LINE",
"300 400 LINE",
"300 600 LINE",
"200 600 LINE",
"200 200 LINE",
"300 200 LINE",
"300 300 LINE",
"400 300 LINE"
);
},
{
closed = 1;
nodes = (
"100 0 LINE",
"200 0 LINE",
"200 200 LINE",
"100 200 LINE"
);
},
{
closed = 1;
nodes = (
"400 99 LINE",
"400 200 LINE",
"300 200 LINE",
"300 99 LINE"
);
},
{
closed = 1;
nodes = (
"500 400 LINE",
"500 500 LINE",
"400 500 LINE",
"400 400 LINE"
);
},
{
closed = 1;
nodes = (
"300 600 LINE",
"400 600 LINE",
"400 700 LINE",
"300 700 LINE"
);
},
{
closed = 1;
nodes = (
"600 400 LINE",
"500 400 LINE",
"500 300 LINE",
"600 300 LINE"
);
},
{
closed = 1;
nodes = (
"500 200 LINE",
"500 300 LINE",
"400 300 LINE",
"400 200 LINE"
);
},
{
closed = 1;
nodes = (
"400 99 LINE",
"400 0 LINE",
"500 0 LINE",
"500 99 LINE"
);
},
{
closed = 1;
nodes = (
"300 600 LINE",
"200 600 LINE",
"200 300 LINE",
"300 300 LINE"
);
},
{
closed = 1;
nodes = (
"500 400 LINE",
"500 200 LINE",
"600 200 LINE",
"600 400 LINE",
"500 400 LINE",
"500 500 LINE"
);
},
{
closed = 1;
nodes = (
"400 100 LINE",
"400 200 LINE",
"300 200 LINE",
"300 300 LINE",
"400 300 LINE",
"400 200 LINE",
"500 200 LINE",
"500 300 LINE",
"400 300 LINE",
"400 400 LINE",
"300 400 LINE",
"300 600 LINE",
"200 600 LINE",
"200 200 LINE",
"300 200 LINE",
"300 100 LINE"
);
},
{
closed = 1;
nodes = (
"600 400 LINE",
"500 400 LINE",
"500 500 LINE",
"400 500 LINE",
"400 400 LINE",
"500 400 LINE",
"500 300 LINE",
"600 300 LINE"
);
},
{
closed = 1;
nodes = (
"100 0 LINE",
"200 0 LINE",
"200 200 LINE",
"100 200 LINE"
);
},
{
closed = 1;
nodes = (
"400 100 LINE",
"400 0 LINE",
"500 0 LINE",
"500 100 LINE"
);
},
{
closed = 1;
nodes = (
"300 600 LINE",
"400 600 LINE",
"400 700 LINE",
"300 700 LINE"
);
}
);
width = 700;
},
{
guideLines = (
{
angle = 90;
position = "{750, 0}";
}
);
layerId = "AA73B291-862F-432F-B5A8-6883F1AD5643";
paths = (
{
closed = 1;
nodes = (
"400 100 LINE",
"400 200 LINE",
"300 200 LINE",
"300 300 LINE",
"400 300 LINE",
"400 200 LINE",
"500 200 LINE",
"500 300 LINE",
"400 300 LINE",
"400 400 LINE",
"300 400 LINE",
"300 600 LINE",
"200 600 LINE",
"200 200 LINE",
"300 200 LINE",
"300 100 LINE"
);
},
{
closed = 1;
nodes = (
"600 400 LINE",
"500 400 LINE",
"500 500 LINE",
"400 500 LINE",
"400 400 LINE",
"500 400 LINE",
"500 300 LINE",
"600 300 LINE"
);
},
{
closed = 1;
nodes = (
"100 0 LINE",
"200 0 LINE",
"200 200 LINE",
"100 200 LINE"
);
},
{
closed = 1;
nodes = (
"400 100 LINE",
"400 0 LINE",
"500 0 LINE",
"500 100 LINE"
);
},
{
closed = 1;
nodes = (
"300 600 LINE",
"400 600 LINE",
"400 700 LINE",
"300 700 LINE"
);
}
);
width = 700;
}
);
unicode = 006B;
},
{
glyphname = l;
lastChange = "2021-04-30 16:08:47 +0000";
layers = (
{
associatedMasterId = "AA73B291-862F-432F-B5A8-6883F1AD5643";
layerId = "71803AA8-9C84-4B24-AAA0-4CE8AE5B2104";
name = img;
width = 700;
},
{
associatedMasterId = "AA73B291-862F-432F-B5A8-6883F1AD5643";
layerId = "6AD711BC-4DE6-43D5-8846-39C02C009028";
name = public.background;
paths = (
{
closed = 1;
nodes = (
"200 0 LINE",
"400 0 LINE",
"400 100 LINE",
"300 100 LINE",
"300 300 LINE",
"400 300 LINE",
"400 500 LINE",
"300 500 LINE",
"300 300 LINE",
"200 300 LINE"
);
},
{
closed = 1;
nodes = (
"300 600 LINE",
"400 600 LINE",
"400 500 LINE",
"500 500 LINE",
"500 700 LINE",
"300 700 LINE"
);
},
{
closed = 1;
nodes = (
"400 100 LINE",
"500 100 LINE",
"500 200 LINE",
"400 200 LINE"
);
}
);
width = 700;
},
{
guideLines = (
{
angle = 90;
position = "{750, 0}";
}
);
layerId = "AA73B291-862F-432F-B5A8-6883F1AD5643";
paths = (
{
closed = 1;
nodes = (
"200 0 LINE",
"400 0 LINE",
"400 100 LINE",
"300 100 LINE",
"300 300 LINE",
"400 300 LINE",
"400 500 LINE",
"300 500 LINE",
"300 300 LINE",
"200 300 LINE"
);
},
{
closed = 1;
nodes = (
"300 600 LINE",
"400 600 LINE",
"400 500 LINE",
"500 500 LINE",
"500 700 LINE",
"300 700 LINE"
);
},
{
closed = 1;
nodes = (
"400 100 LINE",
"500 100 LINE",
"500 200 LINE",
"400 200 LINE"
);
}
);
width = 700;
}
);
unicode = 006C;
},
{
glyphname = m;
lastChange = "2021-04-30 16:08:47 +0000";
layers = (
{
associatedMasterId = "AA73B291-862F-432F-B5A8-6883F1AD5643";
layerId = "71803AA8-9C84-4B24-AAA0-4CE8AE5B2104";
name = img;
width = 700;
},
{
associatedMasterId = "AA73B291-862F-432F-B5A8-6883F1AD5643";
layerId = "6AD711BC-4DE6-43D5-8846-39C02C009028";
name = public.background;
paths = (
{
closed = 1;
nodes = (
"300 0 LINE",
"400 0 LINE",
"400 200 LINE",
"300 200 LINE",
"300 400 LINE",
"200 400 LINE",
"200 500 LINE",
"100 500 LINE",
"100 400 LINE",
"200 400 LINE",
"200 200 LINE",
"300 200 LINE"
);
},
{
closed = 1;
nodes = (
"500 0 LINE",
"600 0 LINE",
"600 200 LINE",
"500 200 LINE",
"500 400 LINE",
"400 400 LINE",
"400 500 LINE",
"300 500 LINE",
"300 400 LINE",
"400 400 LINE",
"400 200 LINE",
"500 200 LINE"
);
},
{
closed = 1;
nodes = (
"600 400 LINE",
"600 500 LINE",
"500 500 LINE",
"500 400 LINE",
"600 400 LINE",
"600 200 LINE",
"700 200 LINE",
"700 400 LINE"
);
},
{
closed = 1;
nodes = (
"100 0 LINE",
"200 0 LINE",
"200 200 LINE",
"100 200 LINE"
);
}
);
width = 700;
},
{
guideLines = (
{
angle = 90;
position = "{750, 0}";
}
);
layerId = "AA73B291-862F-432F-B5A8-6883F1AD5643";
paths = (
{
closed = 1;
nodes = (
"300 0 LINE",
"400 0 LINE",
"400 200 LINE",
"300 200 LINE",
"300 400 LINE",
"200 400 LINE",
"200 500 LINE",
"100 500 LINE",
"100 400 LINE",
"200 400 LINE",
"200 200 LINE",
"300 200 LINE"
);
},
{
closed = 1;
nodes = (
"500 0 LINE",
"600 0 LINE",
"600 200 LINE",
"500 200 LINE",
"500 400 LINE",
"400 400 LINE",
"400 500 LINE",
"300 500 LINE",
"300 400 LINE",
"400 400 LINE",
"400 200 LINE",
"500 200 LINE"
);
},
{
closed = 1;
nodes = (
"600 400 LINE",
"600 500 LINE",
"500 500 LINE",
"500 400 LINE",
"600 400 LINE",
"600 200 LINE",
"700 200 LINE",
"700 400 LINE"
);
},
{
closed = 1;
nodes = (
"100 0 LINE",
"200 0 LINE",
"200 200 LINE",
"100 200 LINE"
);
}
);
width = 700;
}
);
unicode = 006D;
},
{
glyphname = n;
lastChange = "2021-04-30 16:08:47 +0000";
layers = (
{
associatedMasterId = "AA73B291-862F-432F-B5A8-6883F1AD5643";
layerId = "71803AA8-9C84-4B24-AAA0-4CE8AE5B2104";
name = img;
width = 700;
},
{
associatedMasterId = "AA73B291-862F-432F-B5A8-6883F1AD5643";
layerId = "6AD711BC-4DE6-43D5-8846-39C02C009028";
name = public.background;
paths = (
{
closed = 1;
nodes = (
"300 300 LINE",
"400 300 LINE",
"400 400 LINE",
"300 400 LINE",
"300 500 LINE",
"200 500 LINE",
"200 200 LINE",
"300 200 LINE"
);
},
{
closed = 1;
nodes = (
"400 0 LINE",
"500 0 LINE",
"500 200 LINE",
"400 200 LINE"
);
},
{
closed = 1;
nodes = (
"500 400 LINE",
"500 200 LINE",
"600 200 LINE",
"600 400 LINE"
);
},
{
closed = 1;
nodes = (
"100 0 LINE",
"200 0 LINE",
"200 200 LINE",
"100 200 LINE"
);
},
{
closed = 1;
nodes = (
"500 400 LINE",
"500 500 LINE",
"400 500 LINE",
"400 400 LINE"
);
}
);
width = 700;
},
{
guideLines = (
{
angle = 90;
position = "{800, 0}";
}
);
layerId = "AA73B291-862F-432F-B5A8-6883F1AD5643";
paths = (
{
closed = 1;
nodes = (
"300 300 LINE",
"400 300 LINE",
"400 400 LINE",
"300 400 LINE",
"300 500 LINE",
"200 500 LINE",
"200 200 LINE",
"300 200 LINE"
);
},
{
closed = 1;
nodes = (
"400 0 LINE",
"500 0 LINE",
"500 200 LINE",
"400 200 LINE"
);
},
{
closed = 1;
nodes = (
"500 400 LINE",
"500 200 LINE",
"600 200 LINE",
"600 400 LINE"
);
},
{
closed = 1;
nodes = (
"100 0 LINE",
"200 0 LINE",
"200 200 LINE",
"100 200 LINE"
);
},
{
closed = 1;
nodes = (
"500 400 LINE",
"500 500 LINE",
"400 500 LINE",
"400 400 LINE"
);
}
);
width = 700;
}
);
unicode = 006E;
},
{
glyphname = ntilde;
lastChange = "2021-04-30 16:08:47 +0000";
layers = (
{
associatedMasterId = "AA73B291-862F-432F-B5A8-6883F1AD5643";
layerId = "71803AA8-9C84-4B24-AAA0-4CE8AE5B2104";
name = img;
width = 700;
},
{
components = (
{
alignment = -1;
name = n;
}
);
layerId = "AA73B291-862F-432F-B5A8-6883F1AD5643";
paths = (
{
closed = 1;
nodes = (
"500 600 LINE",
"600 600 LINE",
"600 700 LINE",
"500 700 LINE",
"500 800 LINE",
"400 800 LINE",
"400 700 LINE",
"500 700 LINE"
);
},
{
closed = 1;
nodes = (
"600 700 LINE",
"700 700 LINE",
"700 800 LINE",
"600 800 LINE"
);
},
{
closed = 1;
nodes = (
"300 600 LINE",
"400 600 LINE",
"400 700 LINE",
"300 700 LINE"
);
}
);
width = 700;
}
);
unicode = 00F1;
},
{
glyphname = o;
lastChange = "2021-04-30 16:08:47 +0000";
layers = (
{
associatedMasterId = "AA73B291-862F-432F-B5A8-6883F1AD5643";
layerId = "71803AA8-9C84-4B24-AAA0-4CE8AE5B2104";
name = img;
width = 700;
},
{
associatedMasterId = "AA73B291-862F-432F-B5A8-6883F1AD5643";
layerId = "6AD711BC-4DE6-43D5-8846-39C02C009028";
name = public.background;
paths = (
{
closed = 1;
nodes = (
"500 400 LINE",
"500 200 LINE",
"600 200 LINE",
"600 400 LINE",
"500 400 LINE",
"500 500 LINE",
"300 500 LINE",
"300 400 LINE"
);
},
{
closed = 1;
nodes = (
"200 0 LINE",
"400 0 LINE",
"400 100 LINE",
"200 100 LINE"
);
},
{
closed = 1;
nodes = (
"200 100 LINE",
"200 300 LINE",
"100 300 LINE",
"100 100 LINE"
);
},
{
closed = 1;
nodes = (
"300 300 LINE",
"300 400 LINE",
"200 400 LINE",
"200 300 LINE"
);
},
{
closed = 1;
nodes = (
"400 100 LINE",
"500 100 LINE",
"500 200 LINE",
"400 200 LINE"
);
}
);
width = 700;
},
{
guideLines = (
{
angle = 90;
position = "{800, 0}";
}
);
layerId = "AA73B291-862F-432F-B5A8-6883F1AD5643";
paths = (
{
closed = 1;
nodes = (
"500 400 LINE",
"500 200 LINE",
"600 200 LINE",
"600 400 LINE",
"500 400 LINE",
"500 500 LINE",
"300 500 LINE",
"300 400 LINE"
);
},
{
closed = 1;
nodes = (
"200 0 LINE",
"400 0 LINE",
"400 100 LINE",
"200 100 LINE"
);
},
{
closed = 1;
nodes = (
"200 100 LINE",
"200 300 LINE",
"100 300 LINE",
"100 100 LINE"
);
},
{
closed = 1;
nodes = (
"300 300 LINE",
"300 400 LINE",
"200 400 LINE",
"200 300 LINE"
);
},
{
closed = 1;
nodes = (
"400 100 LINE",
"500 100 LINE",
"500 200 LINE",
"400 200 LINE"
);
}
);
width = 700;
}
);
unicode = 006F;
},
{
glyphname = oacute;
lastChange = "2021-04-30 16:08:47 +0000";
layers = (
{
associatedMasterId = "AA73B291-862F-432F-B5A8-6883F1AD5643";
layerId = "71803AA8-9C84-4B24-AAA0-4CE8AE5B2104";
name = img;
width = 800;
},
{
components = (
{
alignment = -1;
name = o;
}
);
layerId = "AA73B291-862F-432F-B5A8-6883F1AD5643";
paths = (
{
closed = 1;
nodes = (
"400 600 LINE",
"500 600 LINE",
"500 700 LINE",
"400 700 LINE"
);
},
{
closed = 1;
nodes = (
"500 700 LINE",
"600 700 LINE",
"600 800 LINE",
"500 800 LINE"
);
}
);
width = 800;
}
);
unicode = 00F3;
},
{
glyphname = ocircumflex;
lastChange = "2021-04-30 16:08:47 +0000";
layers = (
{
associatedMasterId = "AA73B291-862F-432F-B5A8-6883F1AD5643";
layerId = "71803AA8-9C84-4B24-AAA0-4CE8AE5B2104";
name = img;
width = 800;
},
{
components = (
{
alignment = -1;
name = o;
}
);
layerId = "AA73B291-862F-432F-B5A8-6883F1AD5643";
paths = (
{
closed = 1;
nodes = (
"500 600 LINE",
"600 600 LINE",
"600 700 LINE",
"500 700 LINE",
"500 800 LINE",
"400 800 LINE",
"400 700 LINE",
"500 700 LINE"
);
},
{
closed = 1;
nodes = (
"300 600 LINE",
"400 600 LINE",
"400 700 LINE",
"300 700 LINE"
);
}
);
width = 800;
}
);
unicode = 00F4;
},
{
glyphname = odieresis;
lastChange = "2021-04-30 16:08:47 +0000";
layers = (
{
associatedMasterId = "AA73B291-862F-432F-B5A8-6883F1AD5643";
layerId = "71803AA8-9C84-4B24-AAA0-4CE8AE5B2104";
name = img;
width = 800;
},
{
components = (
{
alignment = -1;
name = o;
}
);
layerId = "AA73B291-862F-432F-B5A8-6883F1AD5643";
paths = (
{
closed = 1;
nodes = (
"300 600 LINE",
"400 600 LINE",
"400 700 LINE",
"300 700 LINE"
);
},
{
closed = 1;
nodes = (
"500 600 LINE",
"600 600 LINE",
"600 700 LINE",
"500 700 LINE"
);
}
);
width = 800;
}
);
unicode = 00F6;
},
{
glyphname = ograve;
lastChange = "2021-04-30 16:08:47 +0000";
layers = (
{
associatedMasterId = "AA73B291-862F-432F-B5A8-6883F1AD5643";
layerId = "71803AA8-9C84-4B24-AAA0-4CE8AE5B2104";
name = img;
width = 800;
},
{
components = (
{
alignment = -1;
name = o;
}
);
layerId = "AA73B291-862F-432F-B5A8-6883F1AD5643";
paths = (
{
closed = 1;
nodes = (
"300 700 LINE",
"400 700 LINE",
"400 600 LINE",
"500 600 LINE",
"500 700 LINE",
"400 700 LINE",
"400 800 LINE",
"300 800 LINE"
);
}
);
width = 800;
}
);
unicode = 00F2;
},
{
glyphname = oslash;
lastChange = "2021-04-30 16:08:47 +0000";
layers = (
{
associatedMasterId = "AA73B291-862F-432F-B5A8-6883F1AD5643";
layerId = "71803AA8-9C84-4B24-AAA0-4CE8AE5B2104";
name = img;
width = 700;
},
{
components = (
{
alignment = -1;
name = o;
}
);
layerId = "AA73B291-862F-432F-B5A8-6883F1AD5643";
paths = (
{
closed = 1;
nodes = (
"200 0 LINE",
"300 0 LINE",
"300 200 LINE",
"200 200 LINE"
);
},
{
closed = 1;
nodes = (
"400 300 LINE",
"500 300 LINE",
"500 500 LINE",
"400 500 LINE"
);
},
{
closed = 1;
nodes = (
"300 200 LINE",
"400 200 LINE",
"400 300 LINE",
"300 300 LINE"
);
},
{
closed = 1;
nodes = (
"100 -100 LINE",
"200 -100 LINE",
"200 0 LINE",
"100 0 LINE"
);
},
{
closed = 1;
nodes = (
"500 500 LINE",
"600 500 LINE",
"600 600 LINE",
"500 600 LINE"
);
}
);
width = 700;
}
);
unicode = 00F8;
},
{
glyphname = oslashacute;
lastChange = "2021-04-30 16:08:47 +0000";
layers = (
{
associatedMasterId = "AA73B291-862F-432F-B5A8-6883F1AD5643";
layerId = "71803AA8-9C84-4B24-AAA0-4CE8AE5B2104";
name = img;
width = 700;
},
{
components = (
{
alignment = -1;
name = acute;
transform = "{1, 0, 0, 1, 200, 100}";
},
{
alignment = -1;
name = o;
}
);
layerId = "AA73B291-862F-432F-B5A8-6883F1AD5643";
paths = (
{
closed = 1;
nodes = (
"200 0 LINE",
"300 0 LINE",
"300 200 LINE",
"200 200 LINE"
);
},
{
closed = 1;
nodes = (
"400 300 LINE",
"500 300 LINE",
"500 500 LINE",
"400 500 LINE"
);
},
{
closed = 1;
nodes = (
"300 200 LINE",
"400 200 LINE",
"400 300 LINE",
"300 300 LINE"
);
},
{
closed = 1;
nodes = (
"100 -100 LINE",
"200 -100 LINE",
"200 0 LINE",
"100 0 LINE"
);
},
{
closed = 1;
nodes = (
"500 500 LINE",
"600 500 LINE",
"600 600 LINE",
"500 600 LINE"
);
}
);
width = 700;
}
);
unicode = 01FF;
},
{
glyphname = otilde;
lastChange = "2021-04-30 16:08:47 +0000";
layers = (
{
associatedMasterId = "AA73B291-862F-432F-B5A8-6883F1AD5643";
layerId = "71803AA8-9C84-4B24-AAA0-4CE8AE5B2104";
name = img;
width = 800;
},
{
components = (
{
alignment = -1;
name = o;
}
);
layerId = "AA73B291-862F-432F-B5A8-6883F1AD5643";
paths = (
{
closed = 1;
nodes = (
"500 600 LINE",
"600 600 LINE",
"600 700 LINE",
"500 700 LINE",
"500 800 LINE",
"400 800 LINE",
"400 700 LINE",
"500 700 LINE"
);
},
{
closed = 1;
nodes = (
"600 700 LINE",
"700 700 LINE",
"700 800 LINE",
"600 800 LINE"
);
},
{
closed = 1;
nodes = (
"300 600 LINE",
"400 600 LINE",
"400 700 LINE",
"300 700 LINE"
);
}
);
width = 800;
}
);
unicode = 00F5;
},
{
glyphname = oe;
lastChange = "2021-04-30 16:08:47 +0000";
layers = (
{
associatedMasterId = "AA73B291-862F-432F-B5A8-6883F1AD5643";
layerId = "71803AA8-9C84-4B24-AAA0-4CE8AE5B2104";
name = img;
width = 700;
},
{
layerId = "AA73B291-862F-432F-B5A8-6883F1AD5643";
paths = (
{
closed = 1;
nodes = (
"300 400 LINE",
"300 200 LINE",
"500 200 LINE",
"500 300 LINE",
"400 300 LINE",
"400 400 LINE",
"300 400 LINE",
"300 500 LINE",
"200 500 LINE",
"200 400 LINE"
);
},
{
closed = 1;
nodes = (
"100 100 LINE",
"100 300 LINE",
"0 300 LINE",
"0 100 LINE",
"100 100 LINE",
"100 0 LINE",
"200 0 LINE",
"200 100 LINE"
);
},
{
closed = 1;
nodes = (
"500 0 LINE",
"500 100 LINE",
"300 100 LINE",
"300 200 LINE",
"200 200 LINE",
"200 100 LINE",
"300 100 LINE",
"300 0 LINE"
);
},
{
closed = 1;
nodes = (
"500 300 LINE",
"600 300 LINE",
"600 400 LINE",
"500 400 LINE",
"500 500 LINE",
"400 500 LINE",
"400 400 LINE",
"500 400 LINE"
);
},
{
closed = 1;
nodes = (
"200 300 LINE",
"200 400 LINE",
"100 400 LINE",
"100 300 LINE"
);
}
);
width = 700;
}
);
unicode = 0153;
},
{
glyphname = p;
lastChange = "2021-04-30 16:08:47 +0000";
layers = (
{
associatedMasterId = "AA73B291-862F-432F-B5A8-6883F1AD5643";
layerId = "71803AA8-9C84-4B24-AAA0-4CE8AE5B2104";
name = img;
width = 700;
},
{
associatedMasterId = "AA73B291-862F-432F-B5A8-6883F1AD5643";
layerId = "6AD711BC-4DE6-43D5-8846-39C02C009028";
name = public.background;
paths = (
{
closed = 1;
nodes = (
"300 0 LINE",
"500 0 LINE",
"500 100 LINE",
"300 100 LINE",
"300 300 LINE",
"200 300 LINE",
"200 100 LINE",
"300 100 LINE"
);
},
{
closed = 1;
nodes = (
"600 400 LINE",
"600 500 LINE",
"400 500 LINE",
"400 400 LINE"
);
},
{
closed = 1;
nodes = (
"200 100 LINE",
"100 100 LINE",
"100 -100 LINE",
"200 -100 LINE"
);
},
{
closed = 1;
nodes = (
"200 400 LINE",
"300 400 LINE",
"300 300 LINE",
"400 300 LINE",
"400 400 LINE",
"300 400 LINE",
"300 500 LINE",
"200 500 LINE"
);
},
{
closed = 1;
nodes = (
"600 400 LINE",
"600 200 LINE",
"700 200 LINE",
"700 400 LINE"
);
},
{
closed = 1;
nodes = (
"0 -200 LINE",
"100 -200 LINE",
"100 -100 LINE",
"0 -100 LINE"
);
},
{
closed = 1;
nodes = (
"500 100 LINE",
"600 100 LINE",
"600 200 LINE",
"500 200 LINE"
);
}
);
width = 700;
},
{
layerId = "AA73B291-862F-432F-B5A8-6883F1AD5643";
paths = (
{
closed = 1;
nodes = (
"300 0 LINE",
"500 0 LINE",
"500 100 LINE",
"300 100 LINE",
"300 300 LINE",
"200 300 LINE",
"200 100 LINE",
"300 100 LINE"
);
},
{
closed = 1;
nodes = (
"200 -200 LINE",
"200 100 LINE",
"100 100 LINE",
"100 -200 LINE"
);
},
{
closed = 1;
nodes = (
"600 200 LINE",
"700 200 LINE",
"700 400 LINE",
"600 400 LINE"
);
},
{
closed = 1;
nodes = (
"600 400 LINE",
"600 500 LINE",
"400 500 LINE",
"400 400 LINE"
);
},
{
closed = 1;
nodes = (
"200 400 LINE",
"300 400 LINE",
"300 300 LINE",
"400 300 LINE",
"400 400 LINE",
"300 400 LINE",
"300 500 LINE",
"200 500 LINE"
);
},
{
closed = 1;
nodes = (
"500 100 LINE",
"600 100 LINE",
"600 200 LINE",
"500 200 LINE"
);
}
);
width = 700;
}
);
unicode = 0070;
},
{
glyphname = q;
lastChange = "2021-04-30 16:08:47 +0000";
layers = (
{
associatedMasterId = "AA73B291-862F-432F-B5A8-6883F1AD5643";
layerId = "71803AA8-9C84-4B24-AAA0-4CE8AE5B2104";
name = img;
width = 700;
},
{
associatedMasterId = "AA73B291-862F-432F-B5A8-6883F1AD5643";
layerId = "6AD711BC-4DE6-43D5-8846-39C02C009028";
name = public.background;
paths = (
{
closed = 1;
nodes = (
"200 0 LINE",
"400 0 LINE",
"400 -100 LINE",
"500 -100 LINE",
"500 200 LINE",
"400 200 LINE",
"400 100 LINE",
"200 100 LINE",
"200 300 LINE",
"100 300 LINE",
"100 100 LINE",
"200 100 LINE"
);
},
{
closed = 1;
nodes = (
"500 400 LINE",
"500 200 LINE",
"600 200 LINE",
"600 400 LINE"
);
},
{
closed = 1;
nodes = (
"500 400 LINE",
"500 500 LINE",
"300 500 LINE",
"300 400 LINE"
);
},
{
closed = 1;
nodes = (
"300 300 LINE",
"300 400 LINE",
"200 400 LINE",
"200 300 LINE"
);
},
{
closed = 1;
nodes = (
"600 400 LINE",
"700 400 LINE",
"700 500 LINE",
"600 500 LINE"
);
},
{
closed = 1;
nodes = (
"300 -200 LINE",
"400 -200 LINE",
"400 -100 LINE",
"300 -100 LINE"
);
}
);
width = 700;
},
{
guideLines = (
{
angle = 90;
position = "{750, 0}";
}
);
layerId = "AA73B291-862F-432F-B5A8-6883F1AD5643";
paths = (
{
closed = 1;
nodes = (
"200 0 LINE",
"400 0 LINE",
"400 -100 LINE",
"500 -100 LINE",
"500 200 LINE",
"400 200 LINE",
"400 100 LINE",
"200 100 LINE",
"200 300 LINE",
"100 300 LINE",
"100 100 LINE",
"200 100 LINE"
);
},
{
closed = 1;
nodes = (
"500 400 LINE",
"500 200 LINE",
"600 200 LINE",
"600 400 LINE"
);
},
{
closed = 1;
nodes = (
"500 400 LINE",
"500 500 LINE",
"300 500 LINE",
"300 400 LINE"
);
},
{
closed = 1;
nodes = (
"300 300 LINE",
"300 400 LINE",
"200 400 LINE",
"200 300 LINE"
);
},
{
closed = 1;
nodes = (
"600 400 LINE",
"700 400 LINE",
"700 500 LINE",
"600 500 LINE"
);
},
{
closed = 1;
nodes = (
"300 -200 LINE",
"400 -200 LINE",
"400 -100 LINE",
"300 -100 LINE"
);
}
);
width = 700;
}
);
unicode = 0071;
},
{
glyphname = r;
lastChange = "2021-04-30 16:08:47 +0000";
layers = (
{
associatedMasterId = "AA73B291-862F-432F-B5A8-6883F1AD5643";
layerId = "71803AA8-9C84-4B24-AAA0-4CE8AE5B2104";
name = img;
width = 700;
},
{
associatedMasterId = "AA73B291-862F-432F-B5A8-6883F1AD5643";
layerId = "6AD711BC-4DE6-43D5-8846-39C02C009028";
name = public.background;
paths = (
{
closed = 1;
nodes = (
"300 200 LINE",
"300 300 LINE",
"400 300 LINE",
"400 400 LINE",
"300 400 LINE",
"300 500 LINE",
"200 500 LINE",
"200 200 LINE"
);
},
{
closed = 1;
nodes = (
"100 0 LINE",
"200 0 LINE",
"200 200 LINE",
"100 200 LINE"
);
},
{
closed = 1;
nodes = (
"500 400 LINE",
"500 300 LINE",
"600 300 LINE",
"600 400 LINE",
"500 400 LINE",
"500 500 LINE",
"400 500 LINE",
"400 400 LINE"
);
}
);
width = 700;
},
{
guideLines = (
{
angle = 90;
position = "{700, 0}";
}
);
layerId = "AA73B291-862F-432F-B5A8-6883F1AD5643";
paths = (
{
closed = 1;
nodes = (
"300 200 LINE",
"300 300 LINE",
"400 300 LINE",
"400 400 LINE",
"300 400 LINE",
"300 500 LINE",
"200 500 LINE",
"200 200 LINE"
);
},
{
closed = 1;
nodes = (
"100 0 LINE",
"200 0 LINE",
"200 200 LINE",
"100 200 LINE"
);
},
{
closed = 1;
nodes = (
"500 400 LINE",
"500 300 LINE",
"600 300 LINE",
"600 400 LINE",
"500 400 LINE",
"500 500 LINE",
"400 500 LINE",
"400 400 LINE"
);
}
);
width = 700;
}
);
unicode = 0072;
},
{
glyphname = s;
lastChange = "2021-04-30 16:08:47 +0000";
layers = (
{
associatedMasterId = "AA73B291-862F-432F-B5A8-6883F1AD5643";
layerId = "71803AA8-9C84-4B24-AAA0-4CE8AE5B2104";
name = img;
width = 700;
},
{
associatedMasterId = "AA73B291-862F-432F-B5A8-6883F1AD5643";
layerId = "6AD711BC-4DE6-43D5-8846-39C02C009028";
name = public.background;
paths = (
{
closed = 1;
nodes = (
"600 300 LINE",
"600 400 LINE",
"500 400 LINE",
"500 500 LINE",
"300 500 LINE",
"300 400 LINE",
"500 400 LINE",
"500 300 LINE"
);
},
{
closed = 1;
nodes = (
"400 0 LINE",
"400 100 LINE",
"200 100 LINE",
"200 200 LINE",
"100 200 LINE",
"100 100 LINE",
"200 100 LINE",
"200 0 LINE"
);
},
{
closed = 1;
nodes = (
"400 100 LINE",
"500 100 LINE",
"500 200 LINE",
"400 200 LINE",
"400 300 LINE",
"300 300 LINE",
"300 400 LINE",
"200 400 LINE",
"200 300 LINE",
"300 300 LINE",
"300 200 LINE",
"400 200 LINE"
);
}
);
width = 700;
},
{
guideLines = (
{
angle = 90;
position = "{800, 0}";
}
);
layerId = "AA73B291-862F-432F-B5A8-6883F1AD5643";
paths = (
{
closed = 1;
nodes = (
"600 300 LINE",
"600 400 LINE",
"500 400 LINE",
"500 500 LINE",
"300 500 LINE",
"300 400 LINE",
"500 400 LINE",
"500 300 LINE"
);
},
{
closed = 1;
nodes = (
"400 0 LINE",
"400 100 LINE",
"200 100 LINE",
"200 200 LINE",
"100 200 LINE",
"100 100 LINE",
"200 100 LINE",
"200 0 LINE"
);
},
{
closed = 1;
nodes = (
"400 100 LINE",
"500 100 LINE",
"500 200 LINE",
"400 200 LINE",
"400 300 LINE",
"300 300 LINE",
"300 400 LINE",
"200 400 LINE",
"200 300 LINE",
"300 300 LINE",
"300 200 LINE",
"400 200 LINE"
);
}
);
width = 700;
}
);
unicode = 0073;
},
{
glyphname = germandbls;
lastChange = "2021-04-30 16:08:47 +0000";
layers = (
{
associatedMasterId = "AA73B291-862F-432F-B5A8-6883F1AD5643";
layerId = "71803AA8-9C84-4B24-AAA0-4CE8AE5B2104";
name = img;
width = 700;
},
{
associatedMasterId = "AA73B291-862F-432F-B5A8-6883F1AD5643";
layerId = "6AD711BC-4DE6-43D5-8846-39C02C009028";
name = public.background;
paths = (
{
closed = 1;
nodes = (
"600 400 LINE",
"600 500 LINE",
"500 500 LINE",
"500 400 LINE",
"600 400 LINE",
"600 200 LINE",
"700 200 LINE",
"700 400 LINE"
);
},
{
closed = 1;
nodes = (
"300 300 LINE",
"200 300 LINE",
"200 100 LINE",
"300 100 LINE"
);
},
{
closed = 1;
nodes = (
"400 300 LINE",
"400 500 LINE",
"300 500 LINE",
"300 300 LINE"
);
},
{
closed = 1;
nodes = (
"100 0 LINE",
"200 0 LINE",
"200 100 LINE",
"100 100 LINE"
);
},
{
closed = 1;
nodes = (
"500 0 LINE",
"500 100 LINE",
"400 100 LINE",
"400 0 LINE"
);
},
{
closed = 1;
nodes = (
"500 500 LINE",
"500 600 LINE",
"400 600 LINE",
"400 500 LINE"
);
},
{
closed = 1;
nodes = (
"600 600 LINE",
"600 700 LINE",
"500 700 LINE",
"500 600 LINE"
);
},
{
closed = 1;
nodes = (
"600 600 LINE",
"600 500 LINE",
"700 500 LINE",
"700 600 LINE"
);
},
{
closed = 1;
nodes = (
"600 100 LINE",
"600 200 LINE",
"500 200 LINE",
"500 100 LINE"
);
}
);
width = 700;
},
{
layerId = "AA73B291-862F-432F-B5A8-6883F1AD5643";
paths = (
{
closed = 1;
nodes = (
"600 600 LINE",
"600 500 LINE",
"700 500 LINE",
"700 600 LINE",
"600 600 LINE",
"600 700 LINE",
"500 700 LINE",
"500 600 LINE"
);
},
{
closed = 1;
nodes = (
"400 300 LINE",
"400 500 LINE",
"300 500 LINE",
"300 300 LINE"
);
},
{
closed = 1;
nodes = (
"300 300 LINE",
"200 300 LINE",
"200 100 LINE",
"300 100 LINE"
);
},
{
closed = 1;
nodes = (
"0 0 LINE",
"200 0 LINE",
"200 100 LINE",
"0 100 LINE"
);
},
{
closed = 1;
nodes = (
"600 100 LINE",
"700 100 LINE",
"700 200 LINE",
"600 200 LINE"
);
},
{
closed = 1;
nodes = (
"600 300 LINE",
"600 200 LINE",
"700 200 LINE",
"700 300 LINE"
);
},
{
closed = 1;
nodes = (
"600 300 LINE",
"600 500 LINE",
"500 500 LINE",
"500 300 LINE"
);
},
{
closed = 1;
nodes = (
"600 0 LINE",
"600 100 LINE",
"400 100 LINE",
"400 0 LINE"
);
},
{
closed = 1;
nodes = (
"500 500 LINE",
"500 600 LINE",
"400 600 LINE",
"400 500 LINE"
);
}
);
width = 700;
}
);
unicode = 00DF;
},
{
glyphname = t;
lastChange = "2021-04-30 16:08:47 +0000";
layers = (
{
associatedMasterId = "AA73B291-862F-432F-B5A8-6883F1AD5643";
layerId = "71803AA8-9C84-4B24-AAA0-4CE8AE5B2104";
name = img;
width = 700;
},
{
associatedMasterId = "AA73B291-862F-432F-B5A8-6883F1AD5643";
layerId = "6AD711BC-4DE6-43D5-8846-39C02C009028";
name = public.background;
paths = (
{
closed = 1;
nodes = (
"200 400 LINE",
"300 400 LINE",
"300 300 LINE",
"400 300 LINE",
"400 400 LINE",
"600 400 LINE",
"600 500 LINE",
"400 500 LINE",
"400 600 LINE",
"300 600 LINE",
"300 500 LINE",
"200 500 LINE"
);
},
{
closed = 1;
nodes = (
"200 0 LINE",
"400 0 LINE",
"400 100 LINE",
"300 100 LINE",
"300 300 LINE",
"200 300 LINE"
);
},
{
closed = 1;
nodes = (
"400 600 LINE",
"500 600 LINE",
"500 700 LINE",
"400 700 LINE"
);
},
{
closed = 1;
nodes = (
"400 100 LINE",
"500 100 LINE",
"500 200 LINE",
"400 200 LINE"
);
}
);
width = 700;
},
{
guideLines = (
{
angle = 90;
position = "{850, 0}";
}
);
layerId = "AA73B291-862F-432F-B5A8-6883F1AD5643";
paths = (
{
closed = 1;
nodes = (
"200 400 LINE",
"300 400 LINE",
"300 300 LINE",
"400 300 LINE",
"400 400 LINE",
"600 400 LINE",
"600 500 LINE",
"400 500 LINE",
"400 600 LINE",
"300 600 LINE",
"300 500 LINE",
"200 500 LINE"
);
},
{
closed = 1;
nodes = (
"200 0 LINE",
"400 0 LINE",
"400 100 LINE",
"300 100 LINE",
"300 300 LINE",
"200 300 LINE"
);
},
{
closed = 1;
nodes = (
"400 600 LINE",
"500 600 LINE",
"500 700 LINE",
"400 700 LINE"
);
},
{
closed = 1;
nodes = (
"400 100 LINE",
"500 100 LINE",
"500 200 LINE",
"400 200 LINE"
);
}
);
width = 700;
}
);
unicode = 0074;
},
{
glyphname = u;
lastChange = "2021-04-30 16:08:47 +0000";
layers = (
{
associatedMasterId = "AA73B291-862F-432F-B5A8-6883F1AD5643";
layerId = "71803AA8-9C84-4B24-AAA0-4CE8AE5B2104";
name = img;
width = 700;
},
{
associatedMasterId = "AA73B291-862F-432F-B5A8-6883F1AD5643";
layerId = "6AD711BC-4DE6-43D5-8846-39C02C009028";
name = public.background;
paths = (
{
closed = 1;
nodes = (
"300 100 LINE",
"400 100 LINE",
"400 0 LINE",
"500 0 LINE",
"500 300 LINE",
"400 300 LINE",
"400 200 LINE",
"300 200 LINE"
);
},
{
closed = 1;
nodes = (
"200 0 LINE",
"300 0 LINE",
"300 100 LINE",
"200 100 LINE",
"200 300 LINE",
"100 300 LINE",
"100 100 LINE",
"200 100 LINE"
);
},
{
closed = 1;
nodes = (
"200 300 LINE",
"300 300 LINE",
"300 500 LINE",
"200 500 LINE"
);
},
{
closed = 1;
nodes = (
"500 300 LINE",
"600 300 LINE",
"600 500 LINE",
"500 500 LINE"
);
}
);
width = 700;
},
{
guideLines = (
{
angle = 90;
position = "{800, 0}";
}
);
layerId = "AA73B291-862F-432F-B5A8-6883F1AD5643";
paths = (
{
closed = 1;
nodes = (
"300 100 LINE",
"400 100 LINE",
"400 0 LINE",
"500 0 LINE",
"500 300 LINE",
"400 300 LINE",
"400 200 LINE",
"300 200 LINE"
);
},
{
closed = 1;
nodes = (
"200 0 LINE",
"300 0 LINE",
"300 100 LINE",
"200 100 LINE",
"200 300 LINE",
"100 300 LINE",
"100 100 LINE",
"200 100 LINE"
);
},
{
closed = 1;
nodes = (
"200 300 LINE",
"300 300 LINE",
"300 500 LINE",
"200 500 LINE"
);
},
{
closed = 1;
nodes = (
"500 300 LINE",
"600 300 LINE",
"600 500 LINE",
"500 500 LINE"
);
}
);
width = 700;
}
);
unicode = 0075;
},
{
glyphname = uacute;
lastChange = "2021-04-30 16:08:47 +0000";
layers = (
{
associatedMasterId = "AA73B291-862F-432F-B5A8-6883F1AD5643";
layerId = "71803AA8-9C84-4B24-AAA0-4CE8AE5B2104";
name = img;
width = 700;
},
{
components = (
{
alignment = -1;
name = u;
}
);
layerId = "AA73B291-862F-432F-B5A8-6883F1AD5643";
paths = (
{
closed = 1;
nodes = (
"400 600 LINE",
"500 600 LINE",
"500 700 LINE",
"400 700 LINE"
);
},
{
closed = 1;
nodes = (
"500 700 LINE",
"600 700 LINE",
"600 800 LINE",
"500 800 LINE"
);
}
);
width = 700;
}
);
unicode = 00FA;
},
{
glyphname = ucircumflex;
lastChange = "2021-04-30 16:08:47 +0000";
layers = (
{
associatedMasterId = "AA73B291-862F-432F-B5A8-6883F1AD5643";
layerId = "71803AA8-9C84-4B24-AAA0-4CE8AE5B2104";
name = img;
width = 700;
},
{
components = (
{
alignment = -1;
name = u;
}
);
layerId = "AA73B291-862F-432F-B5A8-6883F1AD5643";
paths = (
{
closed = 1;
nodes = (
"500 600 LINE",
"600 600 LINE",
"600 700 LINE",
"500 700 LINE",
"500 800 LINE",
"400 800 LINE",
"400 700 LINE",
"500 700 LINE"
);
},
{
closed = 1;
nodes = (
"300 600 LINE",
"400 600 LINE",
"400 700 LINE",
"300 700 LINE"
);
}
);
width = 700;
}
);
unicode = 00FB;
},
{
glyphname = udieresis;
lastChange = "2021-04-30 16:08:47 +0000";
layers = (
{
associatedMasterId = "AA73B291-862F-432F-B5A8-6883F1AD5643";
layerId = "71803AA8-9C84-4B24-AAA0-4CE8AE5B2104";
name = img;
width = 700;
},
{
components = (
{
alignment = -1;
name = u;
}
);
layerId = "AA73B291-862F-432F-B5A8-6883F1AD5643";
paths = (
{
closed = 1;
nodes = (
"300 600 LINE",
"400 600 LINE",
"400 700 LINE",
"300 700 LINE"
);
},
{
closed = 1;
nodes = (
"500 600 LINE",
"600 600 LINE",
"600 700 LINE",
"500 700 LINE"
);
}
);
width = 700;
}
);
unicode = 00FC;
},
{
glyphname = ugrave;
lastChange = "2021-04-30 16:08:47 +0000";
layers = (
{
associatedMasterId = "AA73B291-862F-432F-B5A8-6883F1AD5643";
layerId = "71803AA8-9C84-4B24-AAA0-4CE8AE5B2104";
name = img;
width = 700;
},
{
components = (
{
alignment = -1;
name = u;
}
);
layerId = "AA73B291-862F-432F-B5A8-6883F1AD5643";
paths = (
{
closed = 1;
nodes = (
"400 600 LINE",
"500 600 LINE",
"500 700 LINE",
"400 700 LINE",
"400 800 LINE",
"300 800 LINE",
"300 700 LINE",
"400 700 LINE"
);
}
);
width = 700;
}
);
unicode = 00F9;
},
{
glyphname = v;
lastChange = "2021-04-30 16:08:47 +0000";
layers = (
{
associatedMasterId = "AA73B291-862F-432F-B5A8-6883F1AD5643";
layerId = "71803AA8-9C84-4B24-AAA0-4CE8AE5B2104";
name = img;
width = 700;
},
{
associatedMasterId = "AA73B291-862F-432F-B5A8-6883F1AD5643";
layerId = "6AD711BC-4DE6-43D5-8846-39C02C009028";
name = public.background;
paths = (
{
closed = 1;
nodes = (
"100 0 LINE",
"300 0 LINE",
"300 100 LINE",
"200 100 LINE",
"200 300 LINE",
"100 300 LINE"
);
},
{
closed = 1;
nodes = (
"200 300 LINE",
"300 300 LINE",
"300 500 LINE",
"100 500 LINE",
"100 400 LINE",
"200 400 LINE"
);
},
{
closed = 1;
nodes = (
"500 300 LINE",
"600 300 LINE",
"600 500 LINE",
"500 500 LINE"
);
},
{
closed = 1;
nodes = (
"300 100 LINE",
"400 100 LINE",
"400 200 LINE",
"300 200 LINE"
);
},
{
closed = 1;
nodes = (
"400 200 LINE",
"500 200 LINE",
"500 300 LINE",
"400 300 LINE"
);
}
);
width = 700;
},
{
guideLines = (
{
angle = 90;
position = "{800, 0}";
}
);
layerId = "AA73B291-862F-432F-B5A8-6883F1AD5643";
paths = (
{
closed = 1;
nodes = (
"100 0 LINE",
"300 0 LINE",
"300 100 LINE",
"200 100 LINE",
"200 300 LINE",
"100 300 LINE"
);
},
{
closed = 1;
nodes = (
"200 300 LINE",
"300 300 LINE",
"300 500 LINE",
"100 500 LINE",
"100 400 LINE",
"200 400 LINE"
);
},
{
closed = 1;
nodes = (
"500 300 LINE",
"600 300 LINE",
"600 500 LINE",
"500 500 LINE"
);
},
{
closed = 1;
nodes = (
"300 100 LINE",
"400 100 LINE",
"400 200 LINE",
"300 200 LINE"
);
},
{
closed = 1;
nodes = (
"400 200 LINE",
"500 200 LINE",
"500 300 LINE",
"400 300 LINE"
);
}
);
width = 700;
}
);
unicode = 0076;
},
{
glyphname = w;
lastChange = "2021-04-30 16:08:47 +0000";
layers = (
{
associatedMasterId = "AA73B291-862F-432F-B5A8-6883F1AD5643";
layerId = "71803AA8-9C84-4B24-AAA0-4CE8AE5B2104";
name = img;
width = 700;
},
{
associatedMasterId = "AA73B291-862F-432F-B5A8-6883F1AD5643";
layerId = "6AD711BC-4DE6-43D5-8846-39C02C009028";
name = public.background;
paths = (
{
closed = 1;
nodes = (
"100 0 LINE",
"200 0 LINE",
"200 100 LINE",
"100 100 LINE",
"100 300 LINE",
"0 300 LINE",
"0 100 LINE",
"100 100 LINE"
);
},
{
closed = 1;
nodes = (
"300 0 LINE",
"500 0 LINE",
"500 100 LINE",
"300 100 LINE",
"300 200 LINE",
"200 200 LINE",
"200 100 LINE",
"300 100 LINE"
);
},
{
closed = 1;
nodes = (
"0 400 LINE",
"100 400 LINE",
"100 300 LINE",
"200 300 LINE",
"200 500 LINE",
"100 500 LINE",
"0 500 LINE"
);
},
{
closed = 1;
nodes = (
"300 200 LINE",
"400 200 LINE",
"400 400 LINE",
"300 400 LINE"
);
},
{
closed = 1;
nodes = (
"600 300 LINE",
"700 300 LINE",
"700 500 LINE",
"600 500 LINE"
);
},
{
closed = 1;
nodes = (
"500 100 LINE",
"600 100 LINE",
"600 300 LINE",
"500 300 LINE"
);
}
);
width = 700;
},
{
guideLines = (
{
angle = 90;
position = "{750, 0}";
}
);
layerId = "AA73B291-862F-432F-B5A8-6883F1AD5643";
paths = (
{
closed = 1;
nodes = (
"100 400 LINE",
"200 400 LINE",
"200 300 LINE",
"300 300 LINE",
"300 100 LINE",
"400 100 LINE",
"400 0 LINE",
"500 0 LINE",
"500 100 LINE",
"400 100 LINE",
"400 300 LINE",
"300 300 LINE",
"300 500 LINE",
"200 500 LINE",
"100 500 LINE"
);
},
{
closed = 1;
nodes = (
"500 100 LINE",
"600 100 LINE",
"600 300 LINE",
"500 300 LINE",
"500 400 LINE",
"400 400 LINE",
"400 300 LINE",
"500 300 LINE"
);
},
{
closed = 1;
nodes = (
"200 0 LINE",
"300 0 LINE",
"300 100 LINE",
"200 100 LINE",
"200 300 LINE",
"100 300 LINE",
"100 100 LINE",
"200 100 LINE"
);
},
{
closed = 1;
nodes = (
"600 300 LINE",
"700 300 LINE",
"700 500 LINE",
"600 500 LINE"
);
}
);
width = 700;
}
);
unicode = 0077;
},
{
glyphname = x;
lastChange = "2021-04-30 16:08:47 +0000";
layers = (
{
associatedMasterId = "AA73B291-862F-432F-B5A8-6883F1AD5643";
layerId = "71803AA8-9C84-4B24-AAA0-4CE8AE5B2104";
name = img;
width = 700;
},
{
associatedMasterId = "AA73B291-862F-432F-B5A8-6883F1AD5643";
layerId = "6AD711BC-4DE6-43D5-8846-39C02C009028";
name = public.background;
paths = (
{
closed = 1;
nodes = (
"400 0 LINE",
"500 0 LINE",
"500 100 LINE",
"400 100 LINE",
"400 300 LINE",
"500 300 LINE",
"500 400 LINE",
"300 400 LINE",
"300 500 LINE",
"200 500 LINE",
"200 400 LINE",
"300 400 LINE",
"300 200 LINE",
"200 200 LINE",
"200 100 LINE",
"400 100 LINE"
);
},
{
closed = 1;
nodes = (
"500 100 LINE",
"600 100 LINE",
"600 200 LINE",
"500 200 LINE"
);
},
{
closed = 1;
nodes = (
"100 300 LINE",
"200 300 LINE",
"200 400 LINE",
"100 400 LINE"
);
},
{
closed = 1;
nodes = (
"500 400 LINE",
"600 400 LINE",
"600 500 LINE",
"500 500 LINE"
);
},
{
closed = 1;
nodes = (
"100 0 LINE",
"200 0 LINE",
"200 100 LINE",
"100 100 LINE"
);
}
);
width = 700;
},
{
guideLines = (
{
angle = 90;
position = "{800, 0}";
}
);
layerId = "AA73B291-862F-432F-B5A8-6883F1AD5643";
paths = (
{
closed = 1;
nodes = (
"400 0 LINE",
"500 0 LINE",
"500 100 LINE",
"400 100 LINE",
"400 300 LINE",
"500 300 LINE",
"500 400 LINE",
"300 400 LINE",
"300 500 LINE",
"200 500 LINE",
"200 400 LINE",
"300 400 LINE",
"300 200 LINE",
"200 200 LINE",
"200 100 LINE",
"400 100 LINE"
);
},
{
closed = 1;
nodes = (
"500 100 LINE",
"600 100 LINE",
"600 200 LINE",
"500 200 LINE"
);
},
{
closed = 1;
nodes = (
"100 300 LINE",
"200 300 LINE",
"200 400 LINE",
"100 400 LINE"
);
},
{
closed = 1;
nodes = (
"500 400 LINE",
"600 400 LINE",
"600 500 LINE",
"500 500 LINE"
);
},
{
closed = 1;
nodes = (
"100 0 LINE",
"200 0 LINE",
"200 100 LINE",
"100 100 LINE"
);
}
);
width = 700;
}
);
unicode = 0078;
},
{
glyphname = y;
lastChange = "2021-04-30 16:08:47 +0000";
layers = (
{
associatedMasterId = "AA73B291-862F-432F-B5A8-6883F1AD5643";
layerId = "71803AA8-9C84-4B24-AAA0-4CE8AE5B2104";
name = img;
width = 700;
},
{
associatedMasterId = "AA73B291-862F-432F-B5A8-6883F1AD5643";
layerId = "6AD711BC-4DE6-43D5-8846-39C02C009028";
name = public.background;
paths = (
{
closed = 1;
nodes = (
"400 0 LINE",
"500 0 LINE",
"500 300 LINE",
"400 300 LINE",
"400 200 LINE",
"300 200 LINE",
"300 100 LINE",
"400 100 LINE"
);
},
{
closed = 1;
nodes = (
"300 0 LINE",
"300 100 LINE",
"200 100 LINE",
"200 300 LINE",
"100 300 LINE",
"100 100 LINE",
"200 100 LINE",
"200 0 LINE",
"300 0 LINE",
"300 -100 LINE",
"400 -100 LINE",
"400 0 LINE"
);
},
{
closed = 1;
nodes = (
"100 -200 LINE",
"300 -200 LINE",
"300 -100 LINE",
"100 -100 LINE",
"100 0 LINE",
"0 0 LINE",
"0 -100 LINE",
"100 -100 LINE"
);
},
{
closed = 1;
nodes = (
"500 300 LINE",
"600 300 LINE",
"600 500 LINE",
"500 500 LINE"
);
},
{
closed = 1;
nodes = (
"200 300 LINE",
"300 300 LINE",
"300 500 LINE",
"200 500 LINE"
);
}
);
width = 700;
},
{
guideLines = (
{
angle = 90;
position = "{750, 0}";
}
);
layerId = "AA73B291-862F-432F-B5A8-6883F1AD5643";
paths = (
{
closed = 1;
nodes = (
"400 0 LINE",
"500 0 LINE",
"500 300 LINE",
"400 300 LINE",
"400 200 LINE",
"300 200 LINE",
"300 100 LINE",
"400 100 LINE"
);
},
{
closed = 1;
nodes = (
"300 0 LINE",
"300 100 LINE",
"200 100 LINE",
"200 300 LINE",
"100 300 LINE",
"100 100 LINE",
"200 100 LINE",
"200 0 LINE",
"300 0 LINE",
"300 -100 LINE",
"400 -100 LINE",
"400 0 LINE"
);
},
{
closed = 1;
nodes = (
"100 -200 LINE",
"300 -200 LINE",
"300 -100 LINE",
"100 -100 LINE",
"100 0 LINE",
"0 0 LINE",
"0 -100 LINE",
"100 -100 LINE"
);
},
{
closed = 1;
nodes = (
"500 300 LINE",
"600 300 LINE",
"600 500 LINE",
"500 500 LINE"
);
},
{
closed = 1;
nodes = (
"200 300 LINE",
"300 300 LINE",
"300 500 LINE",
"200 500 LINE"
);
}
);
width = 700;
}
);
unicode = 0079;
},
{
glyphname = yacute;
lastChange = "2021-04-30 16:08:47 +0000";
layers = (
{
associatedMasterId = "AA73B291-862F-432F-B5A8-6883F1AD5643";
layerId = "71803AA8-9C84-4B24-AAA0-4CE8AE5B2104";
name = img;
width = 700;
},
{
components = (
{
alignment = -1;
name = y;
}
);
layerId = "AA73B291-862F-432F-B5A8-6883F1AD5643";
paths = (
{
closed = 1;
nodes = (
"400 600 LINE",
"500 600 LINE",
"500 700 LINE",
"400 700 LINE"
);
},
{
closed = 1;
nodes = (
"500 700 LINE",
"600 700 LINE",
"600 800 LINE",
"500 800 LINE"
);
}
);
width = 700;
}
);
unicode = 00FD;
},
{
glyphname = ydieresis;
lastChange = "2021-04-30 16:08:47 +0000";
layers = (
{
associatedMasterId = "AA73B291-862F-432F-B5A8-6883F1AD5643";
layerId = "71803AA8-9C84-4B24-AAA0-4CE8AE5B2104";
name = img;
width = 700;
},
{
components = (
{
alignment = -1;
name = y;
}
);
layerId = "AA73B291-862F-432F-B5A8-6883F1AD5643";
paths = (
{
closed = 1;
nodes = (
"300 600 LINE",
"400 600 LINE",
"400 700 LINE",
"300 700 LINE"
);
},
{
closed = 1;
nodes = (
"500 600 LINE",
"600 600 LINE",
"600 700 LINE",
"500 700 LINE"
);
}
);
width = 700;
}
);
unicode = 00FF;
},
{
glyphname = z;
lastChange = "2021-04-30 16:08:47 +0000";
layers = (
{
associatedMasterId = "AA73B291-862F-432F-B5A8-6883F1AD5643";
layerId = "71803AA8-9C84-4B24-AAA0-4CE8AE5B2104";
name = img;
width = 700;
},
{
guideLines = (
{
angle = 90;
position = "{800, 0}";
}
);
layerId = "AA73B291-862F-432F-B5A8-6883F1AD5643";
paths = (
{
closed = 1;
nodes = (
"400 300 LINE",
"500 300 LINE",
"500 400 LINE",
"400 400 LINE",
"400 500 LINE",
"200 500 LINE",
"200 400 LINE",
"400 400 LINE"
);
},
{
closed = 1;
nodes = (
"300 100 LINE",
"300 0 LINE",
"500 0 LINE",
"500 100 LINE"
);
},
{
closed = 1;
nodes = (
"500 100 LINE",
"600 100 LINE",
"600 200 LINE",
"500 200 LINE"
);
},
{
closed = 1;
nodes = (
"100 300 LINE",
"200 300 LINE",
"200 400 LINE",
"100 400 LINE"
);
},
{
closed = 1;
nodes = (
"500 400 LINE",
"600 400 LINE",
"600 500 LINE",
"500 500 LINE"
);
},
{
closed = 1;
nodes = (
"400 300 LINE",
"300 300 LINE",
"300 200 LINE",
"400 200 LINE"
);
},
{
closed = 1;
nodes = (
"300 100 LINE",
"300 200 LINE",
"200 200 LINE",
"200 100 LINE"
);
},
{
closed = 1;
nodes = (
"100 0 LINE",
"200 0 LINE",
"200 100 LINE",
"100 100 LINE"
);
}
);
width = 700;
}
);
unicode = 007A;
},
{
glyphname = ff;
lastChange = "2021-04-30 16:08:47 +0000";
layers = (
{
associatedMasterId = "AA73B291-862F-432F-B5A8-6883F1AD5643";
layerId = "71803AA8-9C84-4B24-AAA0-4CE8AE5B2104";
name = img;
width = 700;
},
{
layerId = "AA73B291-862F-432F-B5A8-6883F1AD5643";
paths = (
{
closed = 1;
nodes = (
"300 -100 LINE",
"400 -100 LINE",
"400 100 LINE",
"300 100 LINE",
"300 300 LINE",
"400 300 LINE",
"400 100 LINE",
"500 100 LINE",
"500 300 LINE",
"700 300 LINE",
"700 400 LINE",
"600 400 LINE",
"600 600 LINE",
"700 600 LINE",
"700 700 LINE",
"400 700 LINE",
"400 600 LINE",
"500 600 LINE",
"500 400 LINE",
"400 400 LINE",
"400 600 LINE",
"300 600 LINE",
"300 400 LINE",
"100 400 LINE",
"100 300 LINE",
"200 300 LINE",
"200 100 LINE",
"300 100 LINE"
);
},
{
closed = 1;
nodes = (
"300 -200 LINE",
"300 -100 LINE",
"200 -100 LINE",
"200 100 LINE",
"100 100 LINE",
"100 -100 LINE",
"0 -100 LINE",
"0 -200 LINE"
);
}
);
width = 700;
}
);
unicode = FB00;
},
{
glyphname = fi;
lastChange = "2021-04-30 16:08:47 +0000";
layers = (
{
associatedMasterId = "AA73B291-862F-432F-B5A8-6883F1AD5643";
layerId = "71803AA8-9C84-4B24-AAA0-4CE8AE5B2104";
name = img;
width = 700;
},
{
layerId = "AA73B291-862F-432F-B5A8-6883F1AD5643";
paths = (
{
closed = 1;
nodes = (
"600 100 LINE",
"700 100 LINE",
"700 200 LINE",
"600 200 LINE",
"600 400 LINE",
"400 400 LINE",
"400 600 LINE",
"300 600 LINE",
"300 400 LINE",
"100 400 LINE",
"100 300 LINE",
"200 300 LINE",
"200 100 LINE",
"300 100 LINE",
"300 300 LINE",
"500 300 LINE",
"500 200 LINE",
"600 200 LINE"
);
},
{
closed = 1;
nodes = (
"400 0 LINE",
"600 0 LINE",
"600 100 LINE",
"500 100 LINE",
"500 200 LINE",
"400 200 LINE"
);
},
{
closed = 1;
nodes = (
"600 500 LINE",
"700 500 LINE",
"700 600 LINE",
"600 600 LINE",
"600 700 LINE",
"400 700 LINE",
"400 600 LINE",
"600 600 LINE"
);
},
{
closed = 1;
nodes = (
"100 -100 LINE",
"200 -100 LINE",
"200 99 LINE",
"100 99 LINE"
);
},
{
closed = 1;
nodes = (
"0 -200 LINE",
"100 -200 LINE",
"100 -100 LINE",
"0 -100 LINE"
);
}
);
width = 700;
}
);
unicode = FB01;
},
{
glyphname = fl;
lastChange = "2021-04-30 16:08:47 +0000";
layers = (
{
associatedMasterId = "AA73B291-862F-432F-B5A8-6883F1AD5643";
layerId = "71803AA8-9C84-4B24-AAA0-4CE8AE5B2104";
name = img;
width = 700;
},
{
layerId = "AA73B291-862F-432F-B5A8-6883F1AD5643";
paths = (
{
closed = 1;
nodes = (
"300 300 LINE",
"400 300 LINE",
"400 0 LINE",
"600 0 LINE",
"600 100 LINE",
"500 100 LINE",
"500 300 LINE",
"600 300 LINE",
"600 500 LINE",
"500 500 LINE",
"500 400 LINE",
"399 400 LINE",
"399 600 LINE",
"300 600 LINE",
"300 400 LINE",
"100 400 LINE",
"100 300 LINE",
"200 300 LINE",
"200 100 LINE",
"300 100 LINE"
);
},
{
closed = 1;
nodes = (
"399 600 LINE",
"600 600 LINE",
"600 500 LINE",
"700 500 LINE",
"700 700 LINE",
"399 700 LINE"
);
},
{
closed = 1;
nodes = (
"100 -100 LINE",
"200 -100 LINE",
"200 99 LINE",
"100 99 LINE"
);
},
{
closed = 1;
nodes = (
"100 -200 LINE",
"100 -100 LINE",
"0 -100 LINE",
"0 -200 LINE"
);
},
{
closed = 1;
nodes = (
"600 100 LINE",
"700 100 LINE",
"700 200 LINE",
"600 200 LINE"
);
}
);
width = 700;
}
);
unicode = FB02;
},
{
glyphname = ordmasculine;
lastChange = "2021-04-30 16:08:47 +0000";
layers = (
{
associatedMasterId = "AA73B291-862F-432F-B5A8-6883F1AD5643";
layerId = "71803AA8-9C84-4B24-AAA0-4CE8AE5B2104";
name = img;
width = 700;
},
{
associatedMasterId = "AA73B291-862F-432F-B5A8-6883F1AD5643";
layerId = "6AD711BC-4DE6-43D5-8846-39C02C009028";
name = public.background;
paths = (
{
closed = 1;
nodes = (
"200 200 LINE",
"500 200 LINE",
"500 300 LINE",
"200 300 LINE"
);
},
{
closed = 1;
nodes = (
"200 500 LINE",
"300 500 LINE",
"300 400 LINE",
"400 400 LINE",
"400 500 LINE",
"300 500 LINE",
"300 600 LINE",
"200 600 LINE"
);
},
{
closed = 1;
nodes = (
"500 600 LINE",
"400 600 LINE",
"400 700 LINE",
"300 700 LINE",
"300 600 LINE",
"400 600 LINE",
"400 500 LINE",
"500 500 LINE"
);
}
);
width = 700;
},
{
layerId = "AA73B291-862F-432F-B5A8-6883F1AD5643";
paths = (
{
closed = 1;
nodes = (
"100 400 LINE",
"200 400 LINE",
"200 300 LINE",
"400 300 LINE",
"400 400 LINE",
"200 400 LINE",
"200 500 LINE",
"100 500 LINE"
);
},
{
closed = 1;
nodes = (
"600 600 LINE",
"500 600 LINE",
"500 700 LINE",
"300 700 LINE",
"300 600 LINE",
"500 600 LINE",
"500 500 LINE",
"600 500 LINE"
);
},
{
closed = 1;
nodes = (
"300 600 LINE",
"200 600 LINE",
"200 500 LINE",
"300 500 LINE"
);
},
{
closed = 1;
nodes = (
"400 400 LINE",
"500 400 LINE",
"500 500 LINE",
"400 500 LINE"
);
}
);
width = 700;
}
);
unicode = 00BA;
},
{
glyphname = zero;
lastChange = "2021-04-30 16:08:47 +0000";
layers = (
{
associatedMasterId = "AA73B291-862F-432F-B5A8-6883F1AD5643";
layerId = "71803AA8-9C84-4B24-AAA0-4CE8AE5B2104";
name = img;
width = 700;
},
{
associatedMasterId = "AA73B291-862F-432F-B5A8-6883F1AD5643";
layerId = "6AD711BC-4DE6-43D5-8846-39C02C009028";
name = public.background;
paths = (
{
closed = 1;
nodes = (
"400 400 LINE",
"500 400 LINE",
"500 200 LINE",
"600 200 LINE",
"600 400 LINE",
"700 400 LINE",
"700 600 LINE",
"600 600 LINE",
"600 700 LINE",
"300 700 LINE",
"300 600 LINE",
"600 600 LINE",
"600 500 LINE",
"400 500 LINE"
);
},
{
closed = 1;
nodes = (
"100 200 LINE",
"300 200 LINE",
"300 300 LINE",
"200 300 LINE",
"200 500 LINE",
"100 500 LINE",
"100 300 LINE",
"0 300 LINE",
"0 100 LINE",
"100 100 LINE",
"100 0 LINE",
"400 0 LINE",
"400 100 LINE",
"100 100 LINE"
);
},
{
closed = 1;
nodes = (
"400 100 LINE",
"500 100 LINE",
"500 200 LINE",
"400 200 LINE"
);
},
{
closed = 1;
nodes = (
"200 500 LINE",
"300 500 LINE",
"300 600 LINE",
"200 600 LINE"
);
},
{
closed = 1;
nodes = (
"300 300 LINE",
"400 300 LINE",
"400 400 LINE",
"300 400 LINE"
);
}
);
width = 700;
},
{
guideLines = (
{
angle = 90;
position = "{700, 0}";
}
);
layerId = "AA73B291-862F-432F-B5A8-6883F1AD5643";
paths = (
{
closed = 1;
nodes = (
"500 300 LINE",
"600 300 LINE",
"600 600 LINE",
"500 600 LINE",
"500 700 LINE",
"300 700 LINE",
"300 600 LINE",
"500 600 LINE"
);
},
{
closed = 1;
nodes = (
"100 100 LINE",
"100 400 LINE",
"0 400 LINE",
"0 100 LINE"
);
},
{
closed = 1;
nodes = (
"100 100 LINE",
"100 0 LINE",
"300 0 LINE",
"300 100 LINE"
);
},
{
closed = 1;
nodes = (
"400 200 LINE",
"500 200 LINE",
"500 300 LINE",
"400 300 LINE"
);
},
{
closed = 1;
nodes = (
"300 200 LINE",
"300 100 LINE",
"400 100 LINE",
"400 200 LINE"
);
},
{
closed = 1;
nodes = (
"300 600 LINE",
"200 600 LINE",
"200 500 LINE",
"300 500 LINE"
);
},
{
closed = 1;
nodes = (
"200 500 LINE",
"100 500 LINE",
"100 400 LINE",
"200 400 LINE"
);
}
);
width = 700;
}
);
unicode = 0030;
},
{
glyphname = one;
lastChange = "2021-04-30 16:08:47 +0000";
layers = (
{
associatedMasterId = "AA73B291-862F-432F-B5A8-6883F1AD5643";
layerId = "71803AA8-9C84-4B24-AAA0-4CE8AE5B2104";
name = img;
width = 700;
},
{
associatedMasterId = "AA73B291-862F-432F-B5A8-6883F1AD5643";
layerId = "6AD711BC-4DE6-43D5-8846-39C02C009028";
name = public.background;
paths = (
{
closed = 1;
nodes = (
"300 300 LINE",
"400 300 LINE",
"400 700 LINE",
"300 700 LINE",
"300 600 LINE",
"200 600 LINE",
"200 500 LINE",
"300 500 LINE"
);
},
{
closed = 1;
nodes = (
"200 0 LINE",
"300 0 LINE",
"300 300 LINE",
"200 300 LINE"
);
}
);
width = 700;
},
{
guideLines = (
{
angle = 90;
position = "{700, 0}";
}
);
layerId = "AA73B291-862F-432F-B5A8-6883F1AD5643";
paths = (
{
closed = 1;
nodes = (
"400 500 LINE",
"300 500 LINE",
"300 200 LINE",
"400 200 LINE"
);
},
{
closed = 1;
nodes = (
"300 600 LINE",
"400 600 LINE",
"400 500 LINE",
"500 500 LINE",
"500 700 LINE",
"300 700 LINE"
);
},
{
closed = 1;
nodes = (
"300 200 LINE",
"200 200 LINE",
"200 0 LINE",
"300 0 LINE"
);
}
);
width = 700;
}
);
unicode = 0031;
},
{
glyphname = two;
lastChange = "2021-04-30 16:08:47 +0000";
layers = (
{
associatedMasterId = "AA73B291-862F-432F-B5A8-6883F1AD5643";
layerId = "71803AA8-9C84-4B24-AAA0-4CE8AE5B2104";
name = img;
width = 700;
},
{
associatedMasterId = "AA73B291-862F-432F-B5A8-6883F1AD5643";
layerId = "6AD711BC-4DE6-43D5-8846-39C02C009028";
name = public.background;
paths = (
{
closed = 1;
nodes = (
"100 0 LINE",
"500 0 LINE",
"500 100 LINE",
"200 100 LINE",
"200 200 LINE",
"100 200 LINE"
);
},
{
closed = 1;
nodes = (
"300 600 LINE",
"500 600 LINE",
"500 400 LINE",
"600 400 LINE",
"600 600 LINE",
"500 600 LINE",
"500 700 LINE",
"300 700 LINE"
);
},
{
closed = 1;
nodes = (
"300 300 LINE",
"500 300 LINE",
"500 400 LINE",
"300 400 LINE"
);
},
{
closed = 1;
nodes = (
"300 200 LINE",
"300 300 LINE",
"200 300 LINE",
"200 200 LINE"
);
},
{
closed = 1;
nodes = (
"200 500 LINE",
"300 500 LINE",
"300 600 LINE",
"200 600 LINE"
);
}
);
width = 700;
},
{
guideLines = (
{
angle = 90;
position = "{700, 0}";
}
);
layerId = "AA73B291-862F-432F-B5A8-6883F1AD5643";
paths = (
{
closed = 1;
nodes = (
"0 0 LINE",
"400 0 LINE",
"400 100 LINE",
"0 100 LINE"
);
},
{
closed = 1;
nodes = (
"500 500 LINE",
"600 500 LINE",
"600 600 LINE",
"500 600 LINE",
"500 700 LINE",
"300 700 LINE",
"300 600 LINE",
"500 600 LINE"
);
},
{
closed = 1;
nodes = (
"400 400 LINE",
"500 400 LINE",
"500 500 LINE",
"400 500 LINE"
);
},
{
closed = 1;
nodes = (
"300 300 LINE",
"400 300 LINE",
"400 400 LINE",
"300 400 LINE"
);
},
{
closed = 1;
nodes = (
"200 500 LINE",
"300 500 LINE",
"300 600 LINE",
"200 600 LINE"
);
},
{
closed = 1;
nodes = (
"200 200 LINE",
"300 200 LINE",
"300 300 LINE",
"200 300 LINE"
);
},
{
closed = 1;
nodes = (
"100 100 LINE",
"200 100 LINE",
"200 200 LINE",
"100 200 LINE"
);
}
);
width = 700;
}
);
unicode = 0032;
},
{
glyphname = three;
lastChange = "2021-04-30 16:08:47 +0000";
layers = (
{
associatedMasterId = "AA73B291-862F-432F-B5A8-6883F1AD5643";
layerId = "71803AA8-9C84-4B24-AAA0-4CE8AE5B2104";
name = img;
width = 700;
},
{
associatedMasterId = "AA73B291-862F-432F-B5A8-6883F1AD5643";
layerId = "6AD711BC-4DE6-43D5-8846-39C02C009028";
name = public.background;
paths = (
{
closed = 1;
nodes = (
"500 600 LINE",
"500 700 LINE",
"200 700 LINE",
"200 600 LINE"
);
},
{
closed = 1;
nodes = (
"0 100 LINE",
"100 100 LINE",
"100 0 LINE",
"300 0 LINE",
"300 100 LINE",
"100 100 LINE",
"100 200 LINE",
"0 200 LINE"
);
},
{
closed = 1;
nodes = (
"400 300 LINE",
"400 400 LINE",
"200 400 LINE",
"200 300 LINE"
);
},
{
closed = 1;
nodes = (
"400 300 LINE",
"400 200 LINE",
"500 200 LINE",
"500 300 LINE"
);
},
{
closed = 1;
nodes = (
"500 600 LINE",
"500 500 LINE",
"600 500 LINE",
"600 600 LINE"
);
},
{
closed = 1;
nodes = (
"500 400 LINE",
"500 500 LINE",
"400 500 LINE",
"400 400 LINE"
);
},
{
closed = 1;
nodes = (
"300 100 LINE",
"400 100 LINE",
"400 200 LINE",
"300 200 LINE"
);
}
);
width = 700;
},
{
guideLines = (
{
angle = 90;
position = "{700, 0}";
}
);
layerId = "AA73B291-862F-432F-B5A8-6883F1AD5643";
paths = (
{
closed = 1;
nodes = (
"600 700 LINE",
"300 700 LINE",
"300 600 LINE",
"500 600 LINE",
"500 500 LINE",
"600 500 LINE"
);
},
{
closed = 1;
nodes = (
"100 100 LINE",
"100 0 LINE",
"300 0 LINE",
"300 100 LINE"
);
},
{
closed = 1;
nodes = (
"200 300 LINE",
"398 300 LINE",
"398 400 LINE",
"200 400 LINE"
);
},
{
closed = 1;
nodes = (
"300 200 LINE",
"300 100 LINE",
"400 100 LINE",
"400 200 LINE"
);
},
{
closed = 1;
nodes = (
"400 200 LINE",
"500 200 LINE",
"500 300 LINE",
"400 300 LINE"
);
},
{
closed = 1;
nodes = (
"400 500 LINE",
"400 400 LINE",
"500 400 LINE",
"500 500 LINE"
);
},
{
closed = 1;
nodes = (
"0 100 LINE",
"100 100 LINE",
"100 200 LINE",
"0 200 LINE"
);
}
);
width = 700;
}
);
unicode = 0033;
},
{
glyphname = four;
lastChange = "2021-04-30 16:08:47 +0000";
layers = (
{
associatedMasterId = "AA73B291-862F-432F-B5A8-6883F1AD5643";
layerId = "71803AA8-9C84-4B24-AAA0-4CE8AE5B2104";
name = img;
width = 700;
},
{
associatedMasterId = "AA73B291-862F-432F-B5A8-6883F1AD5643";
layerId = "6AD711BC-4DE6-43D5-8846-39C02C009028";
name = public.background;
paths = (
{
closed = 1;
nodes = (
"100 300 LINE",
"400 300 LINE",
"400 200 LINE",
"500 200 LINE",
"500 500 LINE",
"400 500 LINE",
"400 400 LINE",
"200 400 LINE",
"200 500 LINE",
"100 500 LINE"
);
},
{
closed = 1;
nodes = (
"200 500 LINE",
"300 500 LINE",
"300 700 LINE",
"200 700 LINE"
);
},
{
closed = 1;
nodes = (
"500 500 LINE",
"600 500 LINE",
"600 700 LINE",
"500 700 LINE"
);
},
{
closed = 1;
nodes = (
"400 200 LINE",
"300 200 LINE",
"300 0 LINE",
"400 0 LINE"
);
}
);
width = 700;
},
{
guideLines = (
{
angle = 90;
position = "{700, 0}";
}
);
layerId = "AA73B291-862F-432F-B5A8-6883F1AD5643";
paths = (
{
closed = 1;
nodes = (
"300 500 LINE",
"400 500 LINE",
"400 300 LINE",
"200 300 LINE",
"200 400 LINE",
"100 400 LINE",
"100 200 LINE",
"300 200 LINE",
"300 0 LINE",
"400 0 LINE",
"400 200 LINE",
"600 200 LINE",
"600 301 LINE",
"500 301 LINE",
"500 500 LINE",
"400 500 LINE",
"400 600 LINE",
"300 600 LINE"
);
},
{
closed = 1;
nodes = (
"400 600 LINE",
"500 600 LINE",
"500 500 LINE",
"600 500 LINE",
"600 700 LINE",
"400 700 LINE"
);
},
{
closed = 1;
nodes = (
"200 400 LINE",
"300 400 LINE",
"300 500 LINE",
"200 500 LINE"
);
}
);
width = 700;
}
);
unicode = 0034;
},
{
glyphname = five;
lastChange = "2021-04-30 16:08:47 +0000";
layers = (
{
associatedMasterId = "AA73B291-862F-432F-B5A8-6883F1AD5643";
layerId = "71803AA8-9C84-4B24-AAA0-4CE8AE5B2104";
name = img;
width = 700;
},
{
associatedMasterId = "AA73B291-862F-432F-B5A8-6883F1AD5643";
layerId = "6AD711BC-4DE6-43D5-8846-39C02C009028";
name = public.background;
paths = (
{
closed = 1;
nodes = (
"600 100 LINE",
"600 400 LINE",
"500 400 LINE",
"500 500 LINE",
"200 500 LINE",
"200 600 LINE",
"600 600 LINE",
"600 700 LINE",
"100 700 LINE",
"100 400 LINE",
"500 400 LINE",
"500 100 LINE"
);
},
{
closed = 1;
nodes = (
"500 100 LINE",
"200 100 LINE",
"200 200 LINE",
"100 200 LINE",
"100 100 LINE",
"200 100 LINE",
"200 0 LINE",
"500 0 LINE"
);
}
);
width = 700;
},
{
guideLines = (
{
angle = 90;
position = "{700, 0}";
}
);
layerId = "AA73B291-862F-432F-B5A8-6883F1AD5643";
paths = (
{
closed = 1;
nodes = (
"200 500 LINE",
"200 600 LINE",
"100 600 LINE",
"100 400 LINE",
"400 400 LINE",
"400 200 LINE",
"300 200 LINE",
"300 100 LINE",
"400 100 LINE",
"400 200 LINE",
"500 200 LINE",
"500 400 LINE",
"400 400 LINE",
"400 500 LINE"
);
},
{
closed = 1;
nodes = (
"600 600 LINE",
"600 700 LINE",
"200 700 LINE",
"200 600 LINE"
);
},
{
closed = 1;
nodes = (
"300 100 LINE",
"100 100 LINE",
"100 200 LINE",
"0 200 LINE",
"0 100 LINE",
"100 100 LINE",
"100 0 LINE",
"300 0 LINE"
);
}
);
width = 700;
}
);
unicode = 0035;
},
{
glyphname = six;
lastChange = "2021-04-30 16:08:47 +0000";
layers = (
{
associatedMasterId = "AA73B291-862F-432F-B5A8-6883F1AD5643";
layerId = "71803AA8-9C84-4B24-AAA0-4CE8AE5B2104";
name = img;
width = 700;
},
{
associatedMasterId = "AA73B291-862F-432F-B5A8-6883F1AD5643";
layerId = "6AD711BC-4DE6-43D5-8846-39C02C009028";
name = public.background;
paths = (
{
closed = 1;
nodes = (
"100 500 LINE",
"100 300 LINE",
"500 300 LINE",
"500 200 LINE",
"600 200 LINE",
"600 300 LINE",
"500 300 LINE",
"500 400 LINE",
"200 400 LINE",
"200 500 LINE"
);
},
{
closed = 1;
nodes = (
"0 300 LINE",
"0 100 LINE",
"100 100 LINE",
"100 0 LINE",
"400 0 LINE",
"400 100 LINE",
"100 100 LINE",
"100 300 LINE"
);
},
{
closed = 1;
nodes = (
"200 500 LINE",
"400 500 LINE",
"400 600 LINE",
"200 600 LINE"
);
},
{
closed = 1;
nodes = (
"400 600 LINE",
"600 600 LINE",
"600 700 LINE",
"400 700 LINE"
);
},
{
closed = 1;
nodes = (
"500 100 LINE",
"500 200 LINE",
"400 200 LINE",
"400 100 LINE"
);
}
);
width = 700;
},
{
layerId = "AA73B291-862F-432F-B5A8-6883F1AD5643";
paths = (
{
closed = 1;
nodes = (
"200 500 LINE",
"100 500 LINE",
"100 300 LINE",
"399 300 LINE",
"399 400 LINE",
"200 400 LINE"
);
},
{
closed = 1;
nodes = (
"600 600 LINE",
"500 600 LINE",
"500 700 LINE",
"300 700 LINE",
"300 600 LINE",
"500 600 LINE",
"500 500 LINE",
"600 500 LINE"
);
},
{
closed = 1;
nodes = (
"100 100 LINE",
"100 0 LINE",
"300 0 LINE",
"300 100 LINE"
);
},
{
closed = 1;
nodes = (
"100 100 LINE",
"100 300 LINE",
"0 300 LINE",
"0 100 LINE"
);
},
{
closed = 1;
nodes = (
"300 200 LINE",
"300 100 LINE",
"400 100 LINE",
"400 200 LINE"
);
},
{
closed = 1;
nodes = (
"400 200 LINE",
"500 200 LINE",
"500 300 LINE",
"400 300 LINE"
);
},
{
closed = 1;
nodes = (
"300 600 LINE",
"200 600 LINE",
"200 500 LINE",
"300 500 LINE"
);
}
);
width = 700;
}
);
unicode = 0036;
},
{
glyphname = seven;
lastChange = "2021-04-30 16:08:47 +0000";
layers = (
{
associatedMasterId = "AA73B291-862F-432F-B5A8-6883F1AD5643";
layerId = "71803AA8-9C84-4B24-AAA0-4CE8AE5B2104";
name = img;
width = 700;
},
{
associatedMasterId = "AA73B291-862F-432F-B5A8-6883F1AD5643";
layerId = "6AD711BC-4DE6-43D5-8846-39C02C009028";
name = public.background;
paths = (
{
closed = 1;
nodes = (
"499 500 LINE",
"400 500 LINE",
"400 400 LINE",
"500 400 LINE",
"500 500 LINE",
"600 500 LINE",
"600 600 LINE",
"700 600 LINE",
"700 700 LINE",
"300 700 LINE",
"300 600 LINE",
"499 600 LINE"
);
},
{
closed = 1;
nodes = (
"0 0 LINE",
"100 0 LINE",
"100 100 LINE",
"0 100 LINE"
);
},
{
closed = 1;
nodes = (
"300 400 LINE",
"300 300 LINE",
"400 300 LINE",
"400 400 LINE"
);
},
{
closed = 1;
nodes = (
"200 200 LINE",
"100 200 LINE",
"100 100 LINE",
"200 100 LINE"
);
},
{
closed = 1;
nodes = (
"300 300 LINE",
"200 300 LINE",
"200 200 LINE",
"300 200 LINE"
);
}
);
width = 700;
},
{
guideLines = (
{
angle = 90;
position = "{700, 0}";
}
);
layerId = "AA73B291-862F-432F-B5A8-6883F1AD5643";
paths = (
{
closed = 1;
nodes = (
"200 600 LINE",
"500 600 LINE",
"500 500 LINE",
"600 500 LINE",
"600 600 LINE",
"700 600 LINE",
"700 700 LINE",
"200 700 LINE"
);
},
{
closed = 1;
nodes = (
"200 200 LINE",
"100 200 LINE",
"100 0 LINE",
"200 0 LINE"
);
},
{
closed = 1;
nodes = (
"300 400 LINE",
"300 300 LINE",
"400 300 LINE",
"400 400 LINE"
);
},
{
closed = 1;
nodes = (
"400 400 LINE",
"500 400 LINE",
"500 500 LINE",
"400 500 LINE"
);
},
{
closed = 1;
nodes = (
"200 200 LINE",
"300 200 LINE",
"300 300 LINE",
"200 300 LINE"
);
}
);
width = 700;
}
);
unicode = 0037;
},
{
glyphname = eight;
lastChange = "2021-04-30 16:08:47 +0000";
layers = (
{
associatedMasterId = "AA73B291-862F-432F-B5A8-6883F1AD5643";
layerId = "71803AA8-9C84-4B24-AAA0-4CE8AE5B2104";
name = img;
width = 700;
},
{
associatedMasterId = "AA73B291-862F-432F-B5A8-6883F1AD5643";
layerId = "6AD711BC-4DE6-43D5-8846-39C02C009028";
name = public.background;
paths = (
{
closed = 1;
nodes = (
"500 200 LINE",
"600 200 LINE",
"600 300 LINE",
"500 300 LINE",
"500 400 LINE",
"200 400 LINE",
"200 500 LINE",
"100 500 LINE",
"100 400 LINE",
"200 400 LINE",
"200 300 LINE",
"500 300 LINE"
);
},
{
closed = 1;
nodes = (
"700 600 LINE",
"600 600 LINE",
"600 700 LINE",
"300 700 LINE",
"300 600 LINE",
"600 600 LINE",
"600 500 LINE",
"700 500 LINE"
);
},
{
closed = 1;
nodes = (
"100 100 LINE",
"100 0 LINE",
"400 0 LINE",
"400 100 LINE"
);
},
{
closed = 1;
nodes = (
"400 100 LINE",
"500 100 LINE",
"500 200 LINE",
"400 200 LINE"
);
},
{
closed = 1;
nodes = (
"300 600 LINE",
"200 600 LINE",
"200 500 LINE",
"300 500 LINE"
);
},
{
closed = 1;
nodes = (
"100 100 LINE",
"100 200 LINE",
"0 200 LINE",
"0 100 LINE"
);
},
{
closed = 1;
nodes = (
"500 400 LINE",
"600 400 LINE",
"600 500 LINE",
"500 500 LINE"
);
},
{
closed = 1;
nodes = (
"100 200 LINE",
"200 200 LINE",
"200 300 LINE",
"100 300 LINE"
);
}
);
width = 700;
},
{
guideLines = (
{
angle = 90;
position = "{700, 0}";
}
);
layerId = "AA73B291-862F-432F-B5A8-6883F1AD5643";
paths = (
{
closed = 1;
nodes = (
"400 200 LINE",
"500 200 LINE",
"500 300 LINE",
"400 300 LINE",
"400 400 LINE",
"200 400 LINE",
"200 500 LINE",
"100 500 LINE",
"100 400 LINE",
"200 400 LINE",
"200 300 LINE",
"400 300 LINE"
);
},
{
closed = 1;
nodes = (
"600 600 LINE",
"500 600 LINE",
"500 700 LINE",
"300 700 LINE",
"300 600 LINE",
"500 600 LINE",
"500 500 LINE",
"600 500 LINE"
);
},
{
closed = 1;
nodes = (
"100 100 LINE",
"100 0 LINE",
"300 0 LINE",
"300 100 LINE"
);
},
{
closed = 1;
nodes = (
"300 100 LINE",
"400 100 LINE",
"400 200 LINE",
"300 200 LINE"
);
},
{
closed = 1;
nodes = (
"300 600 LINE",
"200 600 LINE",
"200 500 LINE",
"300 500 LINE"
);
},
{
closed = 1;
nodes = (
"100 100 LINE",
"100 200 LINE",
"0 200 LINE",
"0 100 LINE"
);
},
{
closed = 1;
nodes = (
"400 400 LINE",
"500 400 LINE",
"500 500 LINE",
"400 500 LINE"
);
},
{
closed = 1;
nodes = (
"100 200 LINE",
"200 200 LINE",
"200 300 LINE",
"100 300 LINE"
);
}
);
width = 700;
}
);
unicode = 0038;
},
{
glyphname = nine;
lastChange = "2021-04-30 16:08:47 +0000";
layers = (
{
associatedMasterId = "AA73B291-862F-432F-B5A8-6883F1AD5643";
layerId = "71803AA8-9C84-4B24-AAA0-4CE8AE5B2104";
name = img;
width = 700;
},
{
associatedMasterId = "AA73B291-862F-432F-B5A8-6883F1AD5643";
layerId = "6AD711BC-4DE6-43D5-8846-39C02C009028";
name = public.background;
paths = (
{
closed = 1;
nodes = (
"100 400 LINE",
"200 400 LINE",
"200 300 LINE",
"500 300 LINE",
"500 200 LINE",
"600 200 LINE",
"600 400 LINE",
"200 400 LINE",
"200 500 LINE",
"100 500 LINE"
);
},
{
closed = 1;
nodes = (
"600 400 LINE",
"700 400 LINE",
"700 600 LINE",
"600 600 LINE",
"600 700 LINE",
"300 700 LINE",
"300 600 LINE",
"600 600 LINE"
);
},
{
closed = 1;
nodes = (
"0 100 LINE",
"100 100 LINE",
"100 0 LINE",
"400 0 LINE",
"400 100 LINE",
"100 100 LINE",
"100 200 LINE",
"0 200 LINE"
);
},
{
closed = 1;
nodes = (
"300 600 LINE",
"200 600 LINE",
"200 500 LINE",
"300 500 LINE"
);
},
{
closed = 1;
nodes = (
"400 100 LINE",
"500 100 LINE",
"500 200 LINE",
"400 200 LINE"
);
}
);
width = 700;
},
{
layerId = "AA73B291-862F-432F-B5A8-6883F1AD5643";
paths = (
{
closed = 1;
nodes = (
"400 200 LINE",
"500 200 LINE",
"500 400 LINE",
"200 400 LINE",
"200 500 LINE",
"100 500 LINE",
"100 400 LINE",
"200 400 LINE",
"200 300 LINE",
"400 300 LINE"
);
},
{
closed = 1;
nodes = (
"600 600 LINE",
"500 600 LINE",
"500 700 LINE",
"300 700 LINE",
"300 600 LINE",
"500 600 LINE",
"500 400 LINE",
"600 400 LINE"
);
},
{
closed = 1;
nodes = (
"100 100 LINE",
"100 0 LINE",
"300 0 LINE",
"300 100 LINE"
);
},
{
closed = 1;
nodes = (
"0 100 LINE",
"100 100 LINE",
"100 200 LINE",
"0 200 LINE"
);
},
{
closed = 1;
nodes = (
"300 600 LINE",
"200 600 LINE",
"200 500 LINE",
"300 500 LINE"
);
},
{
closed = 1;
nodes = (
"300 200 LINE",
"300 100 LINE",
"400 100 LINE",
"400 200 LINE"
);
}
);
width = 700;
}
);
unicode = 0039;
},
{
glyphname = fraction;
lastChange = "2021-04-30 16:08:47 +0000";
layers = (
{
associatedMasterId = "AA73B291-862F-432F-B5A8-6883F1AD5643";
layerId = "71803AA8-9C84-4B24-AAA0-4CE8AE5B2104";
name = img;
width = 700;
},
{
layerId = "AA73B291-862F-432F-B5A8-6883F1AD5643";
paths = (
{
closed = 1;
nodes = (
"200 100 LINE",
"300 100 LINE",
"300 300 LINE",
"200 300 LINE"
);
},
{
closed = 1;
nodes = (
"400 400 LINE",
"500 400 LINE",
"500 600 LINE",
"400 600 LINE"
);
},
{
closed = 1;
nodes = (
"300 300 LINE",
"400 300 LINE",
"400 400 LINE",
"300 400 LINE"
);
},
{
closed = 1;
nodes = (
"100 0 LINE",
"200 0 LINE",
"200 100 LINE",
"100 100 LINE"
);
},
{
closed = 1;
nodes = (
"500 600 LINE",
"600 600 LINE",
"600 700 LINE",
"500 700 LINE"
);
}
);
width = 700;
}
);
unicode = 2044;
},
{
glyphname = onehalf;
lastChange = "2021-04-30 16:08:47 +0000";
layers = (
{
associatedMasterId = "AA73B291-862F-432F-B5A8-6883F1AD5643";
layerId = "71803AA8-9C84-4B24-AAA0-4CE8AE5B2104";
name = img;
width = 700;
},
{
components = (
{
alignment = -1;
name = fraction;
}
);
layerId = "AA73B291-862F-432F-B5A8-6883F1AD5643";
paths = (
{
closed = 1;
nodes = (
"400 200 LINE",
"500 200 LINE",
"500 100 LINE",
"500 0 LINE",
"700 0 LINE",
"700 100 LINE",
"600 100 LINE",
"600 300 LINE",
"400 300 LINE"
);
},
{
closed = 1;
nodes = (
"0 600 LINE",
"100 600 LINE",
"100 400 LINE",
"200 400 LINE",
"200 700 LINE",
"0 700 LINE"
);
}
);
width = 700;
}
);
unicode = 00BD;
},
{
glyphname = onethird;
lastChange = "2021-04-30 16:08:47 +0000";
layers = (
{
associatedMasterId = "AA73B291-862F-432F-B5A8-6883F1AD5643";
layerId = "71803AA8-9C84-4B24-AAA0-4CE8AE5B2104";
name = img;
width = 700;
},
{
components = (
{
alignment = -1;
name = fraction;
}
);
layerId = "AA73B291-862F-432F-B5A8-6883F1AD5643";
paths = (
{
closed = 1;
nodes = (
"0 600 LINE",
"100 600 LINE",
"100 400 LINE",
"200 400 LINE",
"200 700 LINE",
"0 700 LINE"
);
},
{
closed = 1;
nodes = (
"500 0 LINE",
"700 0 LINE",
"700 300 LINE",
"500 300 LINE",
"500 200 LINE",
"600 200 LINE",
"600 100 LINE",
"500 100 LINE"
);
}
);
width = 700;
}
);
unicode = 2153;
},
{
glyphname = twothirds;
lastChange = "2021-04-30 16:08:47 +0000";
layers = (
{
associatedMasterId = "AA73B291-862F-432F-B5A8-6883F1AD5643";
layerId = "71803AA8-9C84-4B24-AAA0-4CE8AE5B2104";
name = img;
width = 700;
},
{
components = (
{
alignment = -1;
name = fraction;
}
);
layerId = "AA73B291-862F-432F-B5A8-6883F1AD5643";
paths = (
{
closed = 1;
nodes = (
"0 600 LINE",
"100 600 LINE",
"100 500 LINE",
"100 400 LINE",
"300 400 LINE",
"300 500 LINE",
"200 500 LINE",
"200 700 LINE",
"0 700 LINE"
);
},
{
closed = 1;
nodes = (
"500 0 LINE",
"700 0 LINE",
"700 300 LINE",
"500 300 LINE",
"500 200 LINE",
"600 200 LINE",
"600 100 LINE",
"500 100 LINE"
);
}
);
width = 700;
}
);
unicode = 2154;
},
